<svg id="Layer_1" data-name="Layer 1" xmlns="http://www.w3.org/2000/svg" xmlns:xlink="http://www.w3.org/1999/xlink" viewBox="0 0 461.01 194.06"><defs><style>.cls-1{fill:none;}.cls-2{fill:#fff;}.cls-3{opacity:0.6;}.cls-4{clip-path:url(#clip-path);}.cls-5{opacity:0.2;}.cls-6{clip-path:url(#clip-path-2);}</style><clipPath id="clip-path"><rect class="cls-1" x="375.79" y="38.5" width="62.75" height="50.29"/></clipPath><clipPath id="clip-path-2"><rect class="cls-1" x="397.89" y="43.27" width="40.65" height="65.37"/></clipPath></defs><title>Artboard 6 copy 3</title><path class="cls-2" d="M426.26,61.7v46.94L386.73,85.82h0c-11.74-6.82-10.87-11-10.95-20.5l40.65,23.47V67.37Z"/><g class="cls-3"><g class="cls-4"><path class="cls-2" d="M416.44,88.79,375.79,65.32,415.31,42.5h0c11.78-6.76,15-3.89,23.22.77L397.89,66.74l18.55,10.71Z"/></g></g><g class="cls-5"><g class="cls-6"><path class="cls-2" d="M397.89,66.74l40.65-23.47V88.91h0c0,13.58-4.12,14.94-12.28,19.73V61.7L407.71,72.41Z"/></g></g><path class="cls-2" d="M80.95,154.53c-.21-2.68-3.51-40.84-3.51-40.84a84.07,84.07,0,0,1-.31-8.66h-.21s-.83,4.12-2.17,8.66c0,0-10.72,37.23-12,40.84H54.44c-1.13-3-12-40.84-12-40.84-1.34-4.54-2.17-8.66-2.17-8.66h-.21a69.79,69.79,0,0,1-.21,8.66s-3.4,37.74-3.61,40.84H22.48L30,83.59H46.3l11,39.7c1.24,4.33,1.86,7.94,1.86,7.94h.21s.72-3.61,2-7.94L73,83.59H89.2l7.63,70.95Z"/><path class="cls-2" d="M123.52,155.56c-16.09,0-24.34-6-24.34-17.53,0-14.33,14.33-18.56,31-20.11v-2.58c0-5.77-3.92-7.42-9.8-7.42a36.74,36.74,0,0,0-14.44,3.4l-3.51-9.18a53.25,53.25,0,0,1,20.93-4.23c12.58,0,21.86,5.26,21.86,20.31v33.21c-4.64,2.47-12.17,4.12-21.76,4.12m6.7-30.21c-9.69.93-16,3.2-16,12.07,0,6.5,3.71,9.28,10.11,9.28a13.54,13.54,0,0,0,5.88-1.13Z"/><path class="cls-2" d="M159.13,90.5c-4.74,0-8.56-3.3-8.56-7.53s3.82-7.53,8.56-7.53,8.56,3.4,8.56,7.53-3.81,7.53-8.56,7.53m-8,8.45h16.09v55.58H151.09Z"/><path class="cls-2" d="M199.55,155.56c-16.81,0-27.33-9.9-27.33-28.46,0-17.84,10.11-28.77,24.44-28.77a34.08,34.08,0,0,1,8.15.93V73.59h16v77.85c-5.05,2.68-11.65,4.12-21.24,4.12m5.26-47.64a14.85,14.85,0,0,0-4.43-.62c-8.87,0-12.27,7.63-12.27,19.08,0,12.07,3.61,19,11.76,19a10.7,10.7,0,0,0,4.95-.82Z"/><path class="cls-2" d="M246.38,155.56c-8.77,0-14.54-1.55-18.56-4.23l3.82-11.65a21.27,21.27,0,0,0,11.45,3.3c5.88,0,9.49-3.4,9.49-8.45,0-4.54-2.68-7.32-9.9-10.52-11-4.95-14.13-12.68-14.13-19.59,0-12,8.66-21.86,22.48-21.86,7.63,0,13.2,1.86,16.6,4.12l-3.51,10.21A20.56,20.56,0,0,0,253.5,93.8c-5.57,0-8.56,3.09-8.56,8.15s3.61,7.73,9.59,10.41c13.72,6.19,15.67,13.72,15.67,20.93,0,12.79-9.8,22.27-23.82,22.27"/><path class="cls-2" d="M297.41,155.56c-16.09,0-24.34-6-24.34-17.53,0-14.33,14.33-18.56,31-20.11v-2.58c0-5.77-3.92-7.42-9.8-7.42a36.75,36.75,0,0,0-14.44,3.4l-3.51-9.18a53.25,53.25,0,0,1,20.93-4.23c12.58,0,21.86,5.26,21.86,20.31v33.21c-4.64,2.47-12.17,4.12-21.76,4.12m6.7-30.21c-9.69.93-16,3.2-16,12.07,0,6.5,3.71,9.28,10.11,9.28a13.54,13.54,0,0,0,5.88-1.13Z"/><path class="cls-2" d="M344,109.37v45.17H328V109.37h-6.08V99H328V93.28c0-13.92,9.59-21.24,24.65-19.59V83.9c-5.36-.21-8.56,1.65-8.56,8v7h8.56v10.41Z"/><path class="cls-2" d="M368.1,132.36c1.13,8.15,5.26,12.17,13.4,12.17a32.18,32.18,0,0,0,14.44-3l3.61,10c-4.33,2.17-10.52,4-19.9,4-17,0-26.81-11.24-26.81-29,0-17.43,9.07-28.67,25.06-28.67s24.23,10.93,23.51,29.7Zm9.18-25c-6.6,0-10.72,5.67-10.21,17.12l19.39-2.89c0-9.9-3.3-14.23-9.18-14.23"/></svg>