<svg id="Layer_1" data-name="Layer 1" xmlns="http://www.w3.org/2000/svg" viewBox="0 0 461.01 194.06"><defs><style>.cls-1{fill:#fff;}</style></defs><title>Artboard 6</title><path class="cls-1" d="M127.94,104.9a7.87,7.87,0,1,0-4.47-14.35L112.4,84.16c0-.21,0-.42,0-.63s0-.42,0-.63l11.06-6.39a7.87,7.87,0,1,0,0-13L112.4,57.17c0-.21,0-.42,0-.63A7.88,7.88,0,1,0,109,63l11.06,6.39c0,.21,0,.42,0,.63s0,.42,0,.63L109,77.06a7.85,7.85,0,0,0-8.94,0L89,70.67c0-.21,0-.42,0-.63a7.87,7.87,0,0,0-4.5-7.1V50.15a7.87,7.87,0,1,0-6.75,0V62.93a7.87,7.87,0,1,0,7.85,13.58L96.72,82.9c0,.21,0,.42,0,.63s0,.42,0,.63L85.65,90.55a7.86,7.86,0,0,0-8.94,0L65.64,84.16c0-.21,0-.42,0-.63a7.87,7.87,0,0,0-4.5-7.11V63.64a7.87,7.87,0,1,0-6.75,0V76.43a7.84,7.84,0,0,0-1.1.63L42.27,70.67c0-.21,0-.42,0-.63a7.87,7.87,0,1,0-11.25,7.1V89.92a7.87,7.87,0,1,0,6.75,0V77.14a7.81,7.81,0,0,0,1.1-.63L50,82.9c0,.21,0,.42,0,.63a7.87,7.87,0,0,0,4.5,7.1v12.78a7.87,7.87,0,0,0-4.5,7.1c0,.21,0,.42,0,.63L38.9,117.55A7.87,7.87,0,1,0,42.3,124c0-.21,0-.42,0-.63L53.33,117a7.87,7.87,0,1,0,7.85-13.58V90.64a7.91,7.91,0,0,0,1.1-.63L73.34,96.4c0,.21,0,.42,0,.63a7.87,7.87,0,0,0,4.5,7.1v12.78a7.86,7.86,0,0,0-4.5,7.1c0,.21,0,.42,0,.63L62.27,131a7.87,7.87,0,1,0,3.4,6.48c0-.21,0-.42,0-.63l11.07-6.39a8,8,0,0,0,1.1.63v12.78A7.87,7.87,0,1,0,89.05,151c0-.21,0-.42,0-.63L100.09,144a7.87,7.87,0,1,0-3.4-6.48c0,.21,0,.42,0,.63l-11.06,6.39a7.69,7.69,0,0,0-1.1-.63V131.13a7.87,7.87,0,0,0,4.5-7.11c0-.21,0-.42,0-.63L100.09,117a7.86,7.86,0,0,0,8.94,0l11.06,6.39c0,.21,0,.42,0,.63a7.88,7.88,0,1,0,3.4-6.48l-11.06-6.39c0-.21,0-.42,0-.63a7.87,7.87,0,0,0-15.75,0c0,.21,0,.42,0,.63l-11.06,6.39a7.83,7.83,0,0,0-1.1-.63V104.13a7.87,7.87,0,0,0,4.5-7.1c0-.21,0-.42,0-.63L100.09,90A7.86,7.86,0,0,0,109,90l11.06,6.39c0,.21,0,.42,0,.63a7.87,7.87,0,0,0,7.87,7.87"/><rect class="cls-1" x="163.66" y="19.58" width="2.27" height="154.9"/><path class="cls-1" d="M208.21,87c4.28,0,7.71-1,10.2-3a9.39,9.39,0,0,0,3.76-7.8,9.74,9.74,0,0,0-2.64-7,10,10,0,0,0-2.92-1.78A23.66,23.66,0,0,0,210,65.89,19,19,0,0,1,205.1,65c-1.5-.52-2.16-1.37-2.16-2.54,0-2.26,1.65-3.24,5.55-3.24,2.68,0,4.51,1,5.55,3.1.71,1.27,1.17,1.51,2.44.94l3.57-1.55c1.36-.57,1.65-1.23,1-2.53-2.21-4.71-5.88-6.92-12.6-6.92-8.51,0-13.4,4.27-13.4,10.53A9.32,9.32,0,0,0,198,69.89a9.93,9.93,0,0,0,3.2,1.7,21,21,0,0,0,3.34.89c.89.14,2.06.33,3.57.51,4.09.43,6.34,1.27,6.34,3.39,0,2.49-2.07,3.71-6.25,3.71-3.06,0-5.08-1.08-6.06-3.24-.61-1.46-1.13-1.64-2.49-1.12l-3.44,1.22c-1.31.52-1.64,1.09-1.22,2.45,1.88,5.08,6.3,7.62,13.21,7.62m42.61-2.45c.42,1.36,1.18,1.74,3.47,1.74h3.53c1.31,0,1.74-.61,1.27-1.88l-11.24-30c-.42-1.18-1-1.5-2.35-1.5h-3.62c-1.37,0-1.93.32-2.35,1.6L228.3,84.41c-.47,1.27,0,1.88,1.27,1.88h3.25c2.3,0,2.91-.38,3.43-1.74l1.51-4.42h11.6Zm-11-10.62,2.44-7.33a19.43,19.43,0,0,0,1.08-6.67h.47l0,.89a28.38,28.38,0,0,0,1.12,5.83l2.45,7.28Zm34.28-.38h10.81c1.46,0,1.93-.42,1.93-1.88V68.52c0-1.46-.47-1.93-1.93-1.93H274.06V59.87h13.16c1.46,0,1.93-.42,1.93-1.88V54.84c0-1.45-.47-1.92-1.93-1.92h-18.9c-1.46,0-1.93.47-1.93,1.92V84.37c0,1.45.47,1.92,1.93,1.92h3.81c1.46,0,1.92-.47,1.92-1.92Zm47.08,10.82V81.22c0-1.37-.57-1.93-1.93-1.93H305.58v-6.4h10.81c1.46,0,1.92-.46,1.92-1.92V67.82c0-1.46-.46-1.88-1.92-1.88H305.58V59.87h13.16c1.45,0,1.93-.42,1.93-1.88V54.84c0-1.45-.47-1.92-1.93-1.92h-18.9c-1.45,0-1.93.47-1.93,1.92V84.37c0,1.45.47,1.92,1.93,1.92H319.2c1.46,0,1.93-.47,1.93-1.92M227,100.48h-1.14c-.51,0-.74.23-.74.69v25.77c0,1.43.06,3.31.23,5.65s.18,3.88.18,4.63h-.12c-.4-.58-1.2-1.83-2.34-3.71s-2.17-3.38-2.92-4.46l-19.71-28.17a.86.86,0,0,0-.8-.4h-1.14c-.52,0-.75.23-.75.74v39.09c0,.51.23.74.75.74h1.14c.46,0,.69-.23.69-.74V113.68c0-1.31-.06-3.08-.17-5.26s-.17-3.54-.17-4.17h.12a36.08,36.08,0,0,1,2.11,3.37,41.36,41.36,0,0,0,2.51,4.06L225,140.59a.91.91,0,0,0,.8.46H227c.46,0,.68-.23.68-.74V101.22c0-.51-.23-.74-.68-.74m26.08,10.46c-8,0-12.35,4.45-12.35,11.94v7.72c0,7,4.06,11.25,12,11.25q8.66,0,12.17-6.51c.29-.46.23-.8-.23-1l-.8-.46a.71.71,0,0,0-1,.29c-2.06,3.71-5.43,5.6-10.11,5.6-6.23,0-9.54-3.37-9.54-8.91v-3.89h20.91c.86,0,1.31-.4,1.31-1.26v-2.91c0-7.26-4.28-11.82-12.34-11.82m9.89,14H243.23v-2.29c0-5.94,3.43-9.54,9.89-9.54s9.89,3.6,9.89,9.54Zm29-13.15h-9.08v-6.23c0-.4-.23-.63-.69-.63h-1.09c-.46,0-.68.23-.68.63v6.23h-6.18a.57.57,0,0,0-.63.63v1a.57.57,0,0,0,.63.63h6.18v16.63c0,4.34.85,7.32,2.51,8.86s4.63,2.4,8.91,2.34a.6.6,0,0,0,.69-.68v-1a.61.61,0,0,0-.69-.69c-3.48,0-5.88-.57-7.08-1.77s-1.89-3.55-1.89-7.14V114H292c.46,0,.69-.23.69-.63v-1c0-.4-.23-.63-.69-.63m46.52,0h-.8c-.63,0-1,.23-1.15.63l-6.17,20c-.17.63-.4,1.59-.69,2.91s-.57,2.23-.74,2.68h-.12c-.17-.4-.4-1.31-.74-2.63s-.63-2.28-.86-3L321,113.28c-.17-.51-.34-.63-1-.63h-.57c-.74,0-.91.06-1.09.69L312,132.59c-.17.63-.46,1.55-.75,2.86a24.65,24.65,0,0,1-.74,2.58h-.11a23.1,23.1,0,0,1-.69-2.68,27.18,27.18,0,0,0-.68-2.68l-6.23-20.17c-.11-.46-.51-.69-1.14-.69h-.86c-.57,0-.75.18-.52.75l8.8,28.11a.9.9,0,0,0,.86.69h.86a1,1,0,0,0,.91-.69L318.29,120c.23-.69.46-1.55.75-2.63s.4-1.6.45-1.71h.18c.05.22.23.85.51,1.83s.46,1.88.63,2.52l6.74,20.62a1,1,0,0,0,.91.69h.86a.92.92,0,0,0,.92-.69l8.8-28.11c.17-.52.12-.75-.51-.75m22.6-.85c-7.48,0-12.23,3.88-12.23,10.05v10.86c0,6.17,4.74,10,12.23,10s12.29-3.83,12.29-10V121c0-6.22-4.74-10.05-12.29-10.05m9.83,20.91c0,4.79-3.88,7.77-9.83,7.77s-9.77-3-9.77-7.77V120.93c0-4.74,3.89-7.77,9.77-7.77s9.83,3,9.83,7.77Zm29.28-20.91h-1.77a27.38,27.38,0,0,0-10.17,1.83c-1.78.74-2.18,1.37-2.18,3.14v24.46a.6.6,0,0,0,.68.68h1.14c.4,0,.63-.23.63-.68V116.59a2,2,0,0,1,1.2-1.89,23.86,23.86,0,0,1,8.63-1.49h1.83c.4,0,.63-.22.63-.68v-.92c0-.46-.23-.68-.63-.68m34.12,29.37-5.26-10.46c-1.26-2.57-3-4.11-5.37-4.57l10.17-12.74c.4-.52.29-.75-.46-.75h-1a1.5,1.5,0,0,0-1.31.52l-9.94,12.57h-7.49V99.45a.6.6,0,0,0-.68-.68h-1.09a.6.6,0,0,0-.68.68v40.92a.6.6,0,0,0,.68.68H413a.6.6,0,0,0,.68-.68V127.1h7.2a5.93,5.93,0,0,1,6.06,3.77l4.75,9.6a1.06,1.06,0,0,0,1.08.57h1.14c.51,0,.63-.23.4-.74"/></svg>