<svg id="Layer_1" data-name="Layer 1" xmlns="http://www.w3.org/2000/svg" xmlns:xlink="http://www.w3.org/1999/xlink" viewBox="0 0 800 800"><defs><style>.cls-1{fill:url(#linear-gradient);}.cls-2{fill:#fff;}.cls-3{fill:#2a2e32;}.cls-4{fill:url(#linear-gradient-2);}.cls-5{fill:url(#linear-gradient-3);}.cls-6{fill:url(#linear-gradient-4);}.cls-7{fill:url(#linear-gradient-5);}.cls-8{fill:url(#linear-gradient-6);}.cls-9{fill:#aab3bd;}.cls-10{fill:#6d7987;}</style><linearGradient id="linear-gradient" x1="112.51" y1="402.52" x2="673.46" y2="402.52" gradientUnits="userSpaceOnUse"><stop offset="0" stop-color="#6ad3ff"/><stop offset="1" stop-color="#00bf9c"/></linearGradient><linearGradient id="linear-gradient-2" x1="191.94" y1="577.39" x2="191.94" y2="538.22" gradientUnits="userSpaceOnUse"><stop offset="0" stop-color="#fff"/><stop offset="1" stop-color="#5a90cb"/></linearGradient><linearGradient id="linear-gradient-3" x1="460.01" y1="499.7" x2="460.01" y2="460.53" xlink:href="#linear-gradient-2"/><linearGradient id="linear-gradient-4" x1="309.59" y1="178.02" x2="309.59" y2="138.85" xlink:href="#linear-gradient-2"/><linearGradient id="linear-gradient-5" x1="520.8" y1="331.68" x2="520.8" y2="305.99" xlink:href="#linear-gradient-2"/><linearGradient id="linear-gradient-6" x1="236.39" y1="380.69" x2="236.39" y2="355" xlink:href="#linear-gradient-2"/></defs><title>mock</title><path class="cls-1" d="M660.75,390l-.36,0-42.88-133.9a12.7,12.7,0,1,0-14.83-20.61L488.77,152a12.7,12.7,0,1,0-24.13-7.86l-142.86.4a12.7,12.7,0,1,0-24.12,7.9l-114,83.15a12.7,12.7,0,1,0-14.88,20.57L125.61,389.83l-.39,0a12.71,12.71,0,1,0,0,25.41l.38,0,43.24,134.15a12.7,12.7,0,1,0,14.88,20.58l114,83.14a12.7,12.7,0,1,0,24.13,7.87H464.65a12.7,12.7,0,1,0,24.17-7.76l113.75-81.43a12.7,12.7,0,1,0,14.91-20.54l43-135.77.31,0a12.71,12.71,0,1,0,0-25.41ZM188.64,245.61a12.65,12.65,0,0,0-.78-4.34l114-83.15c.18.14.37.29.56.42L236.89,355l-.51,0a12.74,12.74,0,0,0-2.25.21L184.51,255A12.66,12.66,0,0,0,188.64,245.61Zm409.92,4.54-70.16,53a12.63,12.63,0,0,0-7.31-2.53L483.38,158.5a12.69,12.69,0,0,0,1.21-.82l113.92,83.57a12.53,12.53,0,0,0,.06,8.9Zm-45.2,191.76a12.68,12.68,0,0,0,.64,4L471.48,476.1a12.74,12.74,0,0,0-3.35-4.32L520,326c.25,0,.51,0,.76,0s.48,0,.72,0l37.17,105.58A12.68,12.68,0,0,0,553.36,441.91ZM355.11,489.42a12.75,12.75,0,0,0-5.59-6.28l36.86-161.05,64.78,150.35a12.66,12.66,0,0,0-3.66,6.92ZM309.59,160.8a12.73,12.73,0,0,0,2-.17L377,299.22a12.66,12.66,0,0,0-4.31,9.52c0,.41,0,.81.06,1.21l-126.28,50a12.76,12.76,0,0,0-2.83-2.69l65.49-196.45Zm164.3-.83a12.7,12.7,0,0,0,2.67.34l37.7,142.13a12.73,12.73,0,0,0-5.54,6.94l-111.07-3.76a12.68,12.68,0,0,0-3.21-5.75ZM460,468.83a12.75,12.75,0,0,0-2.6.27L392.76,319a12.72,12.72,0,0,0,4.67-6.37l111.07,3.76a12.7,12.7,0,0,0,4.89,7.19L461.64,469A12.77,12.77,0,0,0,460,468.83ZM249,366.46l126.28-50a12.74,12.74,0,0,0,4.29,3.55l-37,161.52a12.62,12.62,0,0,0-4.58,1.13L245.91,376.07a12.64,12.64,0,0,0,3.19-8.39C249.09,367.27,249.07,366.86,249,366.46Zm218.72-210L388.3,296.39a12.06,12.06,0,0,0-5-.19L318,157.61a12.69,12.69,0,0,0,3.82-6l142.86-.4A12.68,12.68,0,0,0,467.75,156.49ZM236.93,380.36a12.68,12.68,0,0,0,2.94-.47l92.83,107.44a12.64,12.64,0,0,0-2.06,6.92,12.83,12.83,0,0,0,.07,1.29l-143.79,58a12.76,12.76,0,0,0-3.92-4.2ZM188.61,560.48l144.75-58.39a12.75,12.75,0,0,0,4.06,3.4L308.6,644.76a12.63,12.63,0,0,0-6.78,2.62l-114-83.14A12.64,12.64,0,0,0,188.61,560.48Zm126.91,85.7,28.82-139.27a12.64,12.64,0,0,0,4-1l118,144.27a12.64,12.64,0,0,0-1.74,3.68H321.79A12.73,12.73,0,0,0,315.52,646.18Zm38.3-144.72a12.63,12.63,0,0,0,2-5l92.39-10.06a12.72,12.72,0,0,0,9.15,7.61L471.92,645.7l-.08,0ZM478.94,644.89,464.45,493.43a12.7,12.7,0,0,0,4.66-3L598,559.15a12.57,12.57,0,0,0,.46,6.86L484.71,647.44A12.63,12.63,0,0,0,478.94,644.89Zm122.38-92L472.44,484.17c.07-.32.11-.64.15-1l85.58-31.35a12.64,12.64,0,0,0,7.69,2.75l36.92,97A12.76,12.76,0,0,0,601.32,552.93ZM566.07,429.2c-.24,0-.48,0-.72,0L528.18,323.66q.52-.37,1-.79l119.39,76.29a12.47,12.47,0,0,0-.44,5L576,434A12.68,12.68,0,0,0,566.07,429.2Zm87.59-37a12.74,12.74,0,0,0-1.29,1L533,316.92a12.57,12.57,0,0,0-.32-8.13l70.16-53a12.63,12.63,0,0,0,7.6,2.54l.36,0ZM175.54,258.3l.39,0a12.74,12.74,0,0,0,2.25-.21l49.63,100.21a12.66,12.66,0,0,0-4.13,9.36c0,.09,0,.18,0,.28L135.8,395.5a12.77,12.77,0,0,0-3.48-3.51ZM132.32,413.05a12.69,12.69,0,0,0,5.6-10.54c0-.09,0-.19,0-.28L225.8,374.7a12.76,12.76,0,0,0,4.26,4L176.28,547.2l-.34,0-.38,0Zm478.42,136-.31,0c-.35,0-.69,0-1,.05l-36.68-96.4a12.69,12.69,0,0,0,6.07-10.82,12.83,12.83,0,0,0-.08-1.4l72.13-29.83a12.77,12.77,0,0,0,2.88,2.65Z"/><rect class="cls-2" x="145.99" y="527.77" width="89.96" height="51"/><path class="cls-3" d="M232.76,583.2H151.12a8.82,8.82,0,0,1-8.81-8.81v-41.5a8.82,8.82,0,0,1,8.81-8.81h81.64a8.82,8.82,0,0,1,8.81,8.81v41.5A8.82,8.82,0,0,1,232.76,583.2Zm-81.64-51.79a1.49,1.49,0,0,0-1.47,1.47v41.5a1.49,1.49,0,0,0,1.47,1.47h81.64a1.49,1.49,0,0,0,1.47-1.47v-41.5a1.49,1.49,0,0,0-1.47-1.47Z"/><path class="cls-3" d="M238.07,589H204.92v.86a2.54,2.54,0,0,1-2.54,2.54H181.49a2.54,2.54,0,0,1-2.54-2.54V589H145.8a3.49,3.49,0,0,0-3.49,3.49V596a3.49,3.49,0,0,0,3.49,3.49h92.28a3.49,3.49,0,0,0,3.49-3.49v-3.53A3.49,3.49,0,0,0,238.07,589Z"/><path class="cls-4" d="M203.06,555.51a1.87,1.87,0,1,0-1.06-3.41l-2.63-1.52s0-.1,0-.15,0-.1,0-.15l2.63-1.52a1.87,1.87,0,1,0,0-3.08l-2.63-1.52s0-.1,0-.15a1.87,1.87,0,1,0-.81,1.54l2.63,1.52c0,.05,0,.1,0,.15s0,.1,0,.15l-2.63,1.52a1.87,1.87,0,0,0-2.13,0l-2.63-1.52s0-.1,0-.15a1.87,1.87,0,0,0-1.07-1.69v-3a1.87,1.87,0,1,0-1.61,0v3a1.87,1.87,0,1,0,1.87,3.23l2.63,1.52c0,.05,0,.1,0,.15s0,.1,0,.15L193,552.09a1.87,1.87,0,0,0-2.13,0l-2.63-1.52s0-.1,0-.15a1.87,1.87,0,0,0-1.07-1.69v-3a1.87,1.87,0,1,0-1.61,0v3l-.26.15-2.63-1.52s0-.1,0-.15A1.87,1.87,0,1,0,180,548.9v3a1.87,1.87,0,1,0,1.61,0v-3l.26-.15,2.63,1.52c0,.05,0,.1,0,.15a1.87,1.87,0,0,0,1.07,1.69v3a1.87,1.87,0,0,0-1.07,1.69c0,.05,0,.1,0,.15l-2.63,1.52a1.87,1.87,0,1,0,.81,1.54c0-.05,0-.1,0-.15l2.63-1.52a1.87,1.87,0,1,0,1.87-3.23v-3l.26-.15,2.63,1.52s0,.1,0,.15a1.87,1.87,0,0,0,1.07,1.69v3a1.87,1.87,0,0,0-1.07,1.69c0,.05,0,.1,0,.15l-2.63,1.52a1.87,1.87,0,1,0,.81,1.54c0-.05,0-.1,0-.15l2.63-1.52.26.15v3a1.87,1.87,0,1,0,2.68,1.69c0-.05,0-.1,0-.15l2.63-1.52a1.87,1.87,0,1,0-.81-1.54c0,.05,0,.1,0,.15L193,564.94l-.26-.15v-3a1.87,1.87,0,0,0,1.07-1.69c0-.05,0-.1,0-.15l2.63-1.52a1.87,1.87,0,0,0,2.13,0l2.63,1.52s0,.1,0,.15a1.87,1.87,0,1,0,.81-1.54L199.37,557s0-.1,0-.15a1.87,1.87,0,1,0-3.75,0c0,.05,0,.1,0,.15L193,558.52l-.26-.15v-3a1.87,1.87,0,0,0,1.07-1.69c0-.05,0-.1,0-.15l2.63-1.52a1.87,1.87,0,0,0,2.13,0l2.63,1.52s0,.1,0,.15a1.87,1.87,0,0,0,1.87,1.87"/><rect class="cls-2" x="414.06" y="450.08" width="89.96" height="51"/><path class="cls-3" d="M500.83,505.51H419.19a8.82,8.82,0,0,1-8.81-8.81v-41.5a8.82,8.82,0,0,1,8.81-8.81h81.64a8.82,8.82,0,0,1,8.81,8.81v41.5A8.82,8.82,0,0,1,500.83,505.51Zm-81.64-51.79a1.49,1.49,0,0,0-1.47,1.47v41.5a1.49,1.49,0,0,0,1.47,1.47h81.64a1.49,1.49,0,0,0,1.47-1.47v-41.5a1.49,1.49,0,0,0-1.47-1.47Z"/><path class="cls-3" d="M506.15,511.29H473v.86a2.54,2.54,0,0,1-2.54,2.54H449.56a2.54,2.54,0,0,1-2.54-2.54v-.86H413.87a3.49,3.49,0,0,0-3.49,3.49v3.53a3.49,3.49,0,0,0,3.49,3.49h92.28a3.49,3.49,0,0,0,3.49-3.49v-3.53A3.49,3.49,0,0,0,506.15,511.29Z"/><path class="cls-5" d="M471.13,477.82a1.87,1.87,0,1,0-1.06-3.41l-2.63-1.52s0-.1,0-.15,0-.1,0-.15l2.63-1.52a1.87,1.87,0,1,0,0-3.08l-2.63-1.52s0-.1,0-.15a1.87,1.87,0,1,0-.81,1.54l2.63,1.52c0,.05,0,.1,0,.15s0,.1,0,.15l-2.63,1.52a1.87,1.87,0,0,0-2.13,0l-2.63-1.52s0-.1,0-.15a1.87,1.87,0,0,0-1.07-1.69v-3a1.87,1.87,0,1,0-1.61,0v3a1.87,1.87,0,1,0,1.87,3.23l2.63,1.52c0,.05,0,.1,0,.15s0,.1,0,.15l-2.63,1.52a1.87,1.87,0,0,0-2.13,0l-2.63-1.52s0-.1,0-.15a1.87,1.87,0,0,0-1.07-1.69v-3a1.87,1.87,0,1,0-1.61,0v3l-.26.15-2.63-1.52s0-.1,0-.15a1.87,1.87,0,1,0-2.68,1.69v3a1.87,1.87,0,1,0,1.61,0v-3l.26-.15,2.63,1.52c0,.05,0,.1,0,.15a1.87,1.87,0,0,0,1.07,1.69v3a1.87,1.87,0,0,0-1.07,1.69c0,.05,0,.1,0,.15l-2.63,1.52a1.87,1.87,0,1,0,.81,1.54c0-.05,0-.1,0-.15l2.63-1.52a1.87,1.87,0,1,0,1.87-3.23v-3l.26-.15,2.63,1.52s0,.1,0,.15a1.87,1.87,0,0,0,1.07,1.69v3a1.87,1.87,0,0,0-1.07,1.69c0,.05,0,.1,0,.15L455.51,484a1.87,1.87,0,1,0,.81,1.54c0-.05,0-.1,0-.15l2.63-1.52.26.15v3a1.87,1.87,0,1,0,2.68,1.69c0-.05,0-.1,0-.15l2.63-1.52a1.87,1.87,0,1,0-.81-1.54c0,.05,0,.1,0,.15l-2.63,1.52-.26-.15v-3a1.87,1.87,0,0,0,1.07-1.69c0-.05,0-.1,0-.15l2.63-1.52a1.87,1.87,0,0,0,2.13,0l2.63,1.52s0,.1,0,.15a1.87,1.87,0,1,0,.81-1.54l-2.63-1.52s0-.1,0-.15a1.87,1.87,0,1,0-3.75,0c0,.05,0,.1,0,.15l-2.63,1.52-.26-.15v-3a1.87,1.87,0,0,0,1.07-1.69c0-.05,0-.1,0-.15l2.63-1.52a1.87,1.87,0,0,0,2.13,0l2.63,1.52s0,.1,0,.15a1.87,1.87,0,0,0,1.87,1.87"/><rect class="cls-2" x="263.64" y="128.41" width="89.96" height="51"/><path class="cls-3" d="M350.41,183.83H268.77A8.82,8.82,0,0,1,260,175v-41.5a8.82,8.82,0,0,1,8.81-8.81h81.64a8.82,8.82,0,0,1,8.81,8.81V175A8.82,8.82,0,0,1,350.41,183.83ZM268.77,132a1.49,1.49,0,0,0-1.47,1.47V175a1.49,1.49,0,0,0,1.47,1.47h81.64a1.49,1.49,0,0,0,1.47-1.47v-41.5a1.49,1.49,0,0,0-1.47-1.47Z"/><path class="cls-3" d="M355.73,189.61H322.57v.86A2.54,2.54,0,0,1,320,193H299.14a2.54,2.54,0,0,1-2.54-2.54v-.86H263.45A3.49,3.49,0,0,0,260,193.1v3.53a3.49,3.49,0,0,0,3.49,3.49h92.28a3.49,3.49,0,0,0,3.49-3.49V193.1A3.49,3.49,0,0,0,355.73,189.61Z"/><path class="cls-6" d="M320.71,156.14a1.87,1.87,0,1,0-1.06-3.41L317,151.21s0-.1,0-.15,0-.1,0-.15l2.63-1.52a1.87,1.87,0,1,0,0-3.08L317,144.78s0-.1,0-.15a1.87,1.87,0,1,0-.81,1.54l2.63,1.52c0,.05,0,.1,0,.15s0,.1,0,.15l-2.63,1.52a1.87,1.87,0,0,0-2.13,0L311.45,148s0-.1,0-.15a1.87,1.87,0,0,0-1.07-1.69v-3a1.87,1.87,0,1,0-1.61,0v3a1.87,1.87,0,1,0,1.87,3.23l2.63,1.52c0,.05,0,.1,0,.15s0,.1,0,.15l-2.63,1.52a1.87,1.87,0,0,0-2.13,0l-2.63-1.52s0-.1,0-.15a1.87,1.87,0,0,0-1.07-1.69v-3a1.87,1.87,0,1,0-1.61,0v3l-.26.15L300.33,148s0-.1,0-.15a1.87,1.87,0,1,0-2.68,1.69v3a1.87,1.87,0,1,0,1.61,0v-3l.26-.15,2.63,1.52c0,.05,0,.1,0,.15a1.87,1.87,0,0,0,1.07,1.69v3a1.87,1.87,0,0,0-1.07,1.69c0,.05,0,.1,0,.15l-2.63,1.52a1.87,1.87,0,1,0,.81,1.54c0-.05,0-.1,0-.15L303,159a1.87,1.87,0,1,0,1.87-3.23v-3l.26-.15,2.63,1.52s0,.1,0,.15a1.87,1.87,0,0,0,1.07,1.69v3a1.87,1.87,0,0,0-1.07,1.69c0,.05,0,.1,0,.15l-2.63,1.52a1.87,1.87,0,1,0,.81,1.54c0-.05,0-.1,0-.15l2.63-1.52.26.15v3a1.87,1.87,0,1,0,2.68,1.69c0-.05,0-.1,0-.15l2.63-1.52a1.87,1.87,0,1,0-.81-1.54c0,.05,0,.1,0,.15l-2.63,1.52-.26-.15v-3a1.87,1.87,0,0,0,1.07-1.69c0-.05,0-.1,0-.15l2.63-1.52a1.87,1.87,0,0,0,2.13,0l2.63,1.52s0,.1,0,.15a1.87,1.87,0,1,0,.81-1.54L317,157.63s0-.1,0-.15a1.87,1.87,0,1,0-3.75,0c0,.05,0,.1,0,.15l-2.63,1.52-.26-.15v-3a1.87,1.87,0,0,0,1.07-1.69c0-.05,0-.1,0-.15l2.63-1.52a1.87,1.87,0,0,0,2.13,0l2.63,1.52s0,.1,0,.15a1.87,1.87,0,0,0,1.87,1.87"/><rect class="cls-2" x="490.66" y="299.13" width="59.02" height="33.46"/><path class="cls-3" d="M547.58,335.5H494a5.79,5.79,0,0,1-5.78-5.78V302.49a5.79,5.79,0,0,1,5.78-5.78h53.56a5.79,5.79,0,0,1,5.78,5.78v27.23A5.79,5.79,0,0,1,547.58,335.5Zm-53.56-34a1,1,0,0,0-1,1v27.23a1,1,0,0,0,1,1h53.56a1,1,0,0,0,1-1V302.49a1,1,0,0,0-1-1Z"/><path class="cls-3" d="M551.07,339.29H529.32v.56a1.66,1.66,0,0,1-1.66,1.66H513.95a1.66,1.66,0,0,1-1.66-1.66v-.56H490.53a2.29,2.29,0,0,0-2.29,2.29v2.32a2.29,2.29,0,0,0,2.29,2.29h60.54a2.29,2.29,0,0,0,2.29-2.29v-2.32A2.29,2.29,0,0,0,551.07,339.29Z"/><path class="cls-7" d="M528.1,317.33a1.23,1.23,0,1,0-.7-2.24l-1.73-1s0-.07,0-.1,0-.07,0-.1l1.73-1a1.23,1.23,0,1,0,0-2l-1.73-1s0-.07,0-.1a1.23,1.23,0,1,0-.53,1l1.73,1s0,.07,0,.1,0,.07,0,.1l-1.73,1a1.23,1.23,0,0,0-1.4,0L522,312s0-.07,0-.1a1.23,1.23,0,0,0-.7-1.11v-2a1.23,1.23,0,1,0-1.05,0v2a1.23,1.23,0,1,0,1.22,2.12l1.73,1s0,.07,0,.1,0,.07,0,.1l-1.73,1a1.23,1.23,0,0,0-1.4,0l-1.73-1s0-.07,0-.1a1.23,1.23,0,0,0-.7-1.11v-2a1.23,1.23,0,1,0-1.05,0v2l-.17.1-1.73-1s0-.07,0-.1A1.23,1.23,0,1,0,513,313v2a1.23,1.23,0,1,0,1.05,0v-2l.17-.1,1.73,1s0,.07,0,.1a1.23,1.23,0,0,0,.7,1.11v2a1.23,1.23,0,0,0-.7,1.11s0,.07,0,.1l-1.73,1a1.23,1.23,0,1,0,.53,1s0-.07,0-.1l1.73-1a1.23,1.23,0,1,0,1.22-2.12v-2l.17-.1,1.73,1s0,.07,0,.1a1.23,1.23,0,0,0,.7,1.11v2a1.23,1.23,0,0,0-.7,1.11s0,.07,0,.1l-1.73,1a1.23,1.23,0,1,0,.53,1s0-.07,0-.1l1.73-1,.17.1v2a1.23,1.23,0,1,0,1.76,1.11s0-.07,0-.1l1.73-1a1.23,1.23,0,1,0-.53-1s0,.07,0,.1l-1.73,1-.17-.1v-2a1.23,1.23,0,0,0,.7-1.11s0-.07,0-.1l1.73-1a1.23,1.23,0,0,0,1.4,0l1.73,1s0,.07,0,.1a1.23,1.23,0,1,0,.53-1l-1.73-1s0-.07,0-.1a1.23,1.23,0,1,0-2.46,0s0,.07,0,.1l-1.73,1-.17-.1v-2a1.23,1.23,0,0,0,.7-1.11s0-.07,0-.1l1.73-1a1.23,1.23,0,0,0,1.4,0l1.73,1s0,.07,0,.1a1.23,1.23,0,0,0,1.23,1.23"/><rect class="cls-2" x="206.24" y="348.14" width="59.02" height="33.46"/><path class="cls-3" d="M263.17,384.5H209.61a5.79,5.79,0,0,1-5.78-5.78V351.49a5.79,5.79,0,0,1,5.78-5.78h53.56a5.79,5.79,0,0,1,5.78,5.78v27.23A5.79,5.79,0,0,1,263.17,384.5Zm-53.56-34a1,1,0,0,0-1,1v27.23a1,1,0,0,0,1,1h53.56a1,1,0,0,0,1-1V351.49a1,1,0,0,0-1-1Z"/><path class="cls-3" d="M266.66,388.3H244.9v.56a1.66,1.66,0,0,1-1.66,1.66H229.53a1.66,1.66,0,0,1-1.66-1.66v-.56H206.12a2.29,2.29,0,0,0-2.29,2.29v2.32a2.29,2.29,0,0,0,2.29,2.29h60.54a2.29,2.29,0,0,0,2.29-2.29v-2.32A2.29,2.29,0,0,0,266.66,388.3Z"/><path class="cls-8" d="M243.69,366.34a1.23,1.23,0,1,0-.7-2.24l-1.73-1s0-.07,0-.1,0-.07,0-.1l1.73-1a1.23,1.23,0,1,0,0-2l-1.73-1s0-.07,0-.1a1.23,1.23,0,1,0-.53,1l1.73,1s0,.07,0,.1,0,.07,0,.1l-1.73,1a1.23,1.23,0,0,0-1.4,0l-1.73-1s0-.07,0-.1a1.23,1.23,0,0,0-.7-1.11v-2a1.23,1.23,0,1,0-1.05,0v2a1.23,1.23,0,1,0,1.22,2.12l1.73,1s0,.07,0,.1,0,.07,0,.1l-1.73,1a1.23,1.23,0,0,0-1.4,0l-1.73-1s0-.07,0-.1a1.23,1.23,0,0,0-.7-1.11v-2a1.23,1.23,0,1,0-1.05,0v2l-.17.1-1.73-1s0-.07,0-.1a1.23,1.23,0,1,0-1.76,1.11v2a1.23,1.23,0,1,0,1.05,0v-2l.17-.1,1.73,1s0,.07,0,.1a1.23,1.23,0,0,0,.7,1.11v2a1.23,1.23,0,0,0-.7,1.11s0,.07,0,.1l-1.73,1a1.23,1.23,0,1,0,.53,1s0-.07,0-.1l1.73-1a1.23,1.23,0,1,0,1.22-2.12v-2l.17-.1,1.73,1s0,.07,0,.1a1.23,1.23,0,0,0,.7,1.11v2a1.23,1.23,0,0,0-.7,1.11s0,.07,0,.1l-1.73,1a1.23,1.23,0,1,0,.53,1s0-.07,0-.1l1.73-1,.17.1v2a1.23,1.23,0,1,0,1.76,1.11s0-.07,0-.1l1.73-1a1.23,1.23,0,1,0-.53-1s0,.07,0,.1l-1.73,1-.17-.1v-2a1.23,1.23,0,0,0,.7-1.11s0-.07,0-.1l1.73-1a1.23,1.23,0,0,0,1.4,0l1.73,1s0,.07,0,.1a1.23,1.23,0,1,0,.53-1l-1.73-1s0-.07,0-.1a1.23,1.23,0,1,0-2.46,0s0,.07,0,.1l-1.73,1-.17-.1v-2a1.23,1.23,0,0,0,.7-1.11s0-.07,0-.1l1.73-1a1.23,1.23,0,0,0,1.4,0l1.73,1s0,.07,0,.1a1.23,1.23,0,0,0,1.23,1.23"/><rect class="cls-9" x="157.75" y="227.73" width="53.49" height="35.76"/><path class="cls-10" d="M169.46,251.21a5.59,5.59,0,1,1,5.59-5.59A5.6,5.6,0,0,1,169.46,251.21Zm0-9.35a3.76,3.76,0,1,0,3.76,3.76A3.76,3.76,0,0,0,169.46,241.85Z"/><path class="cls-10" d="M184.49,251.21a5.59,5.59,0,1,1,5.59-5.59A5.6,5.6,0,0,1,184.49,251.21Zm0-9.35a3.76,3.76,0,1,0,3.76,3.76A3.76,3.76,0,0,0,184.49,241.85Z"/><path class="cls-10" d="M199.53,251.21a5.59,5.59,0,1,1,5.59-5.59A5.6,5.6,0,0,1,199.53,251.21Zm0-9.35a3.76,3.76,0,1,0,3.76,3.76A3.76,3.76,0,0,0,199.53,241.85Z"/><rect class="cls-9" x="358.61" y="292.75" width="53.49" height="35.76"/><path class="cls-10" d="M370.31,316.23a5.59,5.59,0,1,1,5.59-5.59A5.6,5.6,0,0,1,370.31,316.23Zm0-9.35a3.76,3.76,0,1,0,3.76,3.76A3.76,3.76,0,0,0,370.31,306.87Z"/><path class="cls-10" d="M385.35,316.23a5.59,5.59,0,1,1,5.59-5.59A5.6,5.6,0,0,1,385.35,316.23Zm0-9.35a3.76,3.76,0,1,0,3.76,3.76A3.76,3.76,0,0,0,385.35,306.87Z"/><path class="cls-10" d="M400.38,316.23a5.59,5.59,0,1,1,5.59-5.59A5.6,5.6,0,0,1,400.38,316.23Zm0-9.35a3.76,3.76,0,1,0,3.76,3.76A3.76,3.76,0,0,0,400.38,306.87Z"/><rect class="cls-9" x="583.68" y="227.73" width="53.49" height="35.76"/><path class="cls-10" d="M595.39,251.21a5.59,5.59,0,1,1,5.59-5.59A5.6,5.6,0,0,1,595.39,251.21Zm0-9.35a3.76,3.76,0,1,0,3.76,3.76A3.76,3.76,0,0,0,595.39,241.85Z"/><path class="cls-10" d="M610.43,251.21a5.59,5.59,0,1,1,5.59-5.59A5.6,5.6,0,0,1,610.43,251.21Zm0-9.35a3.76,3.76,0,1,0,3.76,3.76A3.76,3.76,0,0,0,610.43,241.85Z"/><path class="cls-10" d="M625.46,251.21a5.59,5.59,0,1,1,5.59-5.59A5.6,5.6,0,0,1,625.46,251.21Zm0-9.35a3.76,3.76,0,1,0,3.76,3.76A3.76,3.76,0,0,0,625.46,241.85Z"/><rect class="cls-9" x="634.01" y="385.97" width="53.49" height="35.76"/><path class="cls-10" d="M645.71,409.45a5.59,5.59,0,1,1,5.59-5.59A5.6,5.6,0,0,1,645.71,409.45Zm0-9.35a3.76,3.76,0,1,0,3.76,3.76A3.76,3.76,0,0,0,645.71,400.09Z"/><path class="cls-10" d="M660.75,409.45a5.59,5.59,0,1,1,5.59-5.59A5.6,5.6,0,0,1,660.75,409.45Zm0-9.35a3.76,3.76,0,1,0,3.76,3.76A3.76,3.76,0,0,0,660.75,400.09Z"/><path class="cls-10" d="M675.78,409.45a5.59,5.59,0,1,1,5.59-5.59A5.6,5.6,0,0,1,675.78,409.45Zm0-9.35a3.76,3.76,0,1,0,3.76,3.76A3.76,3.76,0,0,0,675.78,400.09Z"/><rect class="cls-9" x="316.61" y="476.37" width="53.49" height="35.76"/><path class="cls-10" d="M328.32,499.84a5.59,5.59,0,1,1,5.59-5.59A5.6,5.6,0,0,1,328.32,499.84Zm0-9.35a3.76,3.76,0,1,0,3.76,3.76A3.76,3.76,0,0,0,328.32,490.49Z"/><path class="cls-10" d="M343.36,499.84a5.59,5.59,0,1,1,5.59-5.59A5.6,5.6,0,0,1,343.36,499.84Zm0-9.35a3.76,3.76,0,1,0,3.76,3.76A3.76,3.76,0,0,0,343.36,490.49Z"/><path class="cls-10" d="M358.39,499.84a5.59,5.59,0,1,1,5.59-5.59A5.6,5.6,0,0,1,358.39,499.84Zm0-9.35a3.76,3.76,0,1,0,3.76,3.76A3.76,3.76,0,0,0,358.39,490.49Z"/><rect class="cls-9" x="450.1" y="639.53" width="53.49" height="35.76"/><path class="cls-10" d="M461.81,663a5.59,5.59,0,1,1,5.59-5.59A5.6,5.6,0,0,1,461.81,663Zm0-9.35a3.76,3.76,0,1,0,3.76,3.76A3.76,3.76,0,0,0,461.81,653.65Z"/><path class="cls-10" d="M476.85,663a5.59,5.59,0,1,1,5.59-5.59A5.6,5.6,0,0,1,476.85,663Zm0-9.35a3.76,3.76,0,1,0,3.76,3.76A3.76,3.76,0,0,0,476.85,653.65Z"/><path class="cls-10" d="M491.88,663a5.59,5.59,0,1,1,5.59-5.59A5.6,5.6,0,0,1,491.88,663Zm0-9.35a3.76,3.76,0,1,0,3.76,3.76A3.76,3.76,0,0,0,491.88,653.65Z"/></svg>