<?xml version="1.0" encoding="utf-8"?>
<!-- Generator: Adobe Illustrator 21.1.0, SVG Export Plug-In . SVG Version: 6.00 Build 0)  -->
<svg version="1.1" id="Layer_1" xmlns="http://www.w3.org/2000/svg" xmlns:xlink="http://www.w3.org/1999/xlink" x="0px" y="0px"
	 viewBox="0 0 800 800" style="enable-background:new 0 0 800 800;" xml:space="preserve">
<style type="text/css">
	.st0{fill:url(#SVGID_1_);}
	.st1{fill:#FFFFFF;}
	.st2{fill:#2A2E32;}
	.st3{fill:url(#SVGID_2_);}
	.st4{fill:url(#SVGID_3_);}
	.st5{fill:url(#SVGID_4_);}
	.st6{fill:url(#SVGID_5_);}
	.st7{fill:url(#SVGID_6_);}
	.st8{fill:#AAB3BD;}
	.st9{fill:#6D7987;}
</style>
<title>mock</title>
<linearGradient id="SVGID_1_" gradientUnits="userSpaceOnUse" x1="-0.3465" y1="396.4635" x2="779.9735" y2="396.4635" gradientTransform="matrix(1 0 0 -1 0 800)">
	<stop  offset="0" style="stop-color:#6AD3FF"/>
	<stop  offset="1" style="stop-color:#00BF9C"/>
</linearGradient>
<path class="st0" d="M762.8,386.1h-0.5l-59.6-186.3c8.1-5.5,10.2-16.5,4.7-24.5c-5.5-8.1-16.5-10.2-24.5-4.7
	c-0.3,0.2-0.5,0.4-0.8,0.6L523.6,55c3.4-9.1-1.2-19.3-10.4-22.7c-9.1-3.4-19.3,1.2-22.7,10.4c-0.2,0.5-0.3,0.9-0.5,1.4l-198.7,0.6
	c-2.7-9.4-12.4-14.8-21.8-12.1c-9.4,2.7-14.8,12.4-12.1,21.8c0.1,0.4,0.3,0.9,0.4,1.3L99.1,171.3c-7.7-6-18.8-4.5-24.8,3.2
	c-6,7.7-4.5,18.8,3.2,24.8c0.3,0.2,0.6,0.4,0.9,0.6L18.4,385.9h-0.5c-9.8-0.3-17.9,7.4-18.2,17.2c-0.3,9.8,7.4,17.9,17.2,18.2
	c0.3,0,0.7,0,1,0h0.5l60.1,186.6c-8,5.6-10,16.6-4.4,24.6c5.6,8,16.6,10,24.6,4.4c0.2-0.1,0.3-0.2,0.5-0.4l158.6,115.7
	c-3.4,9.2,1.3,19.3,10.4,22.7c9.2,3.4,19.3-1.3,22.7-10.4c0.2-0.4,0.3-0.9,0.4-1.3H490c2.7,9.4,12.4,14.8,21.8,12.2
	c9.4-2.7,14.8-12.4,12.2-21.8c-0.1-0.4-0.2-0.8-0.4-1.1L681.9,639c7.7,6,18.8,4.7,24.8-3c6-7.7,4.7-18.8-3-24.8
	c-0.4-0.3-0.7-0.5-1.1-0.8l59.8-188.9h0.4c9.8,0.3,17.9-7.4,18.2-17.2c0.3-9.8-7.4-17.9-17.2-18.2
	C763.5,386.2,763.2,386.2,762.8,386.1L762.8,386.1z M106.1,185.2c0-2.1-0.4-4.1-1.1-6L263.5,63.5c0.3,0.2,0.5,0.4,0.8,0.6
	l-91.2,273.3h-0.7c-1,0-2.1,0.1-3.1,0.3l-69-139.4C104,195,106.1,190.2,106.1,185.2z M676.3,191.6l-97.6,73.7
	c-2.9-2.2-6.5-3.4-10.2-3.5L516.1,64.1c0.6-0.3,1.1-0.7,1.7-1.1l158.5,116.3C674.7,183.2,674.8,187.6,676.3,191.6L676.3,191.6z
	 M613.4,458.3c0,1.9,0.3,3.8,0.9,5.6l-114.8,42c-1.1-2.3-2.7-4.4-4.7-6L567,297.1c0.3,0,0.7,0,1.1,0s0.7,0,1,0l51.7,146.9
	C616.1,447.3,613.4,452.6,613.4,458.3L613.4,458.3z M337.6,524.4c-1.5-3.7-4.3-6.8-7.8-8.7l51.3-224l90.1,209.1
	c-2.7,2.6-4.5,6-5.1,9.6L337.6,524.4z M274.3,67.3c0.9,0,1.9-0.1,2.8-0.2l91,192.8c-3.8,3.3-6,8.2-6,13.2c0,0.6,0,1.1,0.1,1.7
	l-175.7,69.6c-1.1-1.4-2.4-2.7-3.9-3.7l91.1-273.3L274.3,67.3z M502.9,66.1c1.2,0.3,2.5,0.4,3.7,0.5L559,264.3
	c-3.6,2.2-6.4,5.6-7.7,9.7l-154.5-5.2c-0.8-3-2.3-5.8-4.5-8L502.9,66.1z M483.5,495.8c-1.2,0-2.4,0.1-3.6,0.4L390,287.3
	c3.1-2.2,5.3-5.3,6.5-8.9l154.5,5.2c1,4,3.4,7.6,6.8,10l-72,202.3C485.1,495.9,484.3,495.8,483.5,495.8z M190,353.3l175.7-69.6
	c1.6,2.1,3.6,3.8,6,4.9l-51.5,224.7c-2.2,0.1-4.4,0.7-6.4,1.6L185.7,366.7c2.9-3.2,4.4-7.4,4.4-11.7
	C190.1,354.5,190.1,353.9,190,353.3z M494.3,61.2L383.8,255.9c-2.3-0.6-4.6-0.7-7-0.3L286,62.8c2.5-2.2,4.4-5.1,5.3-8.3L490,53.9
	C490.8,56.7,492.3,59.2,494.3,61.2L494.3,61.2z M173.2,372.7c1.4-0.1,2.8-0.3,4.1-0.7l129.1,149.5c-1.9,2.9-2.9,6.2-2.9,9.6
	c0,0.6,0,1.2,0.1,1.8l-200,80.7c-1.3-2.3-3.2-4.3-5.5-5.8L173.2,372.7z M106,623.2L307.4,542c1.5,2,3.5,3.6,5.6,4.7l-40.1,193.7
	c-3.4,0.3-6.7,1.5-9.4,3.6L104.9,628.5C105.5,626.8,105.9,625,106,623.2z M282.6,742.5l40.1-193.7c1.9-0.2,3.8-0.6,5.6-1.4
	L492.4,748c-1.1,1.6-1.9,3.3-2.4,5.1H291.3C289.9,748.5,286.8,744.7,282.6,742.5L282.6,742.5z M335.8,541.1c1.4-2.1,2.4-4.5,2.8-7
	l128.5-14c2.2,5.4,7,9.4,12.7,10.6l20.3,211H500L335.8,541.1z M509.9,740.7L489.7,530c2.4-0.9,4.7-2.3,6.5-4.2l179.3,95.6
	c-0.7,3.2-0.5,6.5,0.6,9.5L517.9,744.2C515.6,742.4,512.8,741.1,509.9,740.7z M680.1,612.7l-179.3-95.6c0.1-0.4,0.2-0.9,0.2-1.4
	l119-43.6c3,2.4,6.8,3.8,10.7,3.8l51.4,134.9C681.4,611.4,680.7,612.1,680.1,612.7L680.1,612.7z M631.1,440.6c-0.3,0-0.7,0-1,0
	l-51.7-146.8c0.5-0.3,0.9-0.7,1.4-1.1l166.1,106.1c-0.7,2.3-0.9,4.6-0.6,7l-100.3,41.5C641.6,443.1,636.5,440.6,631.1,440.6z
	 M752.9,389.2c-0.6,0.4-1.2,0.9-1.8,1.4L585.1,284.4c1.1-3.7,1-7.7-0.4-11.3l97.6-73.7c3,2.3,6.8,3.5,10.6,3.5h0.5L752.9,389.2z
	 M87.8,202.9h0.5c1,0,2.1-0.1,3.1-0.3l69,139.4c-3.7,3.3-5.7,8.1-5.7,13c0,0.1,0,0.3,0,0.4L32.5,393.7c-1.3-1.9-2.9-3.6-4.8-4.9
	L87.8,202.9z M27.7,418.2c4.9-3.3,7.8-8.8,7.8-14.7c0-0.1,0-0.3,0-0.4l122.2-38.3c1.5,2.3,3.5,4.2,5.9,5.6L88.9,604.8h-0.5h-0.5
	L27.7,418.2z M693.2,607.3h-0.4c-0.5,0-1,0-1.4,0.1l-51-134.1c5.2-3.2,8.4-8.9,8.4-15.1c0-0.7,0-1.3-0.1-1.9L749,414.8
	c1.1,1.4,2.5,2.7,4,3.7L693.2,607.3z"/>
<rect x="46.7" y="577.7" class="st1" width="125.1" height="70.9"/>
<path class="st2" d="M167.4,654.8H53.9c-6.8,0-12.2-5.5-12.3-12.3v-57.7c0-6.8,5.5-12.2,12.3-12.3h113.6c6.8,0,12.2,5.5,12.3,12.3
	v57.7C179.7,649.4,174.2,654.8,167.4,654.8z M53.9,582.8c-1.1,0-2,0.9-2,2v57.7c0,1.1,0.9,2,2,2h113.6c1.1,0,2-0.9,2-2v-57.7
	c0-1.1-0.9-2-2-2H53.9z"/>
<path class="st2" d="M174.8,662.9h-46.1v1.2c0,2-1.6,3.5-3.5,3.5H96.1c-2,0-3.5-1.6-3.5-3.5v-1.2H46.5c-2.7,0-4.9,2.2-4.9,4.9v4.9
	c0,2.7,2.2,4.9,4.9,4.9h128.4c2.7,0,4.9-2.2,4.9-4.9v-4.9C179.7,665.1,177.5,662.9,174.8,662.9z"/>
<linearGradient id="SVGID_2_" gradientUnits="userSpaceOnUse" x1="110.6351" y1="153.2344" x2="110.6351" y2="207.7226" gradientTransform="matrix(1 0 0 -1 0 800)">
	<stop  offset="0" style="stop-color:#FFFFFF"/>
	<stop  offset="1" style="stop-color:#5A90CB"/>
</linearGradient>
<path class="st3" d="M126.1,616.3c1.4,0,2.6-1.2,2.6-2.6c0-1.4-1.2-2.6-2.6-2.6c-0.5,0-1,0.2-1.5,0.5l-3.7-2.1c0,0,0-0.1,0-0.2
	c0-0.1,0-0.1,0-0.2l3.7-2.1c1.2,0.8,2.8,0.5,3.6-0.7c0.8-1.2,0.5-2.8-0.7-3.6c-0.9-0.6-2.1-0.6-3,0l-3.7-2.1c0,0,0-0.1,0-0.2
	c0-1.4-1.2-2.6-2.6-2.6c-1.4,0-2.6,1.2-2.6,2.6c0,1.4,1.2,2.6,2.6,2.6c0.5,0,1-0.2,1.5-0.5l3.7,2.1c0,0.1,0,0.1,0,0.2
	c0,0.1,0,0.1,0,0.2l-3.7,2.1c-0.9-0.6-2.1-0.6-3,0l-3.7-2.1c0,0,0-0.1,0-0.2c0-1-0.6-1.9-1.5-2.4v-4.2c1.3-0.6,1.8-2.2,1.2-3.5
	c-0.6-1.3-2.2-1.8-3.5-1.2c-1.3,0.6-1.8,2.2-1.2,3.5c0.3,0.5,0.7,1,1.2,1.2v4.2c-1.3,0.6-1.8,2.2-1.2,3.5c0.6,1.3,2.2,1.8,3.5,1.2
	c0.1,0,0.2-0.1,0.3-0.2l3.7,2.1c0,0.1,0,0.1,0,0.2s0,0.1,0,0.2l-3.6,2.1c-0.9-0.6-2.1-0.6-3,0l-3.7-2.1c0,0,0-0.1,0-0.2
	c0-1-0.6-1.9-1.5-2.4v-4.2c1.3-0.6,1.8-2.2,1.2-3.5c-0.6-1.3-2.2-1.8-3.5-1.2c-1.3,0.6-1.8,2.2-1.2,3.5c0.3,0.5,0.7,1,1.2,1.2v4.2
	l-0.4,0.2l-3.7-2.1c0,0,0-0.1,0-0.2c0-1.4-1.2-2.6-2.6-2.6c-1.4,0-2.6,1.2-2.6,2.6c0,1,0.6,1.9,1.5,2.4v4.2
	c-1.3,0.6-1.8,2.2-1.2,3.5c0.6,1.3,2.2,1.8,3.5,1.2c1.3-0.6,1.8-2.2,1.2-3.5c-0.3-0.5-0.7-1-1.2-1.2v-4.2l0.4-0.2l3.7,2.1
	c0,0.1,0,0.1,0,0.2c0,1,0.6,1.9,1.5,2.4v4.2c-0.9,0.4-1.5,1.3-1.5,2.4c0,0.1,0,0.1,0,0.2l-3.7,2.1c-1.2-0.8-2.8-0.5-3.6,0.7
	c-0.8,1.2-0.5,2.8,0.7,3.6c1.2,0.8,2.8,0.5,3.6-0.7c0.3-0.4,0.5-0.9,0.5-1.5c0-0.1,0-0.1,0-0.2l3.7-2.1c1.2,0.8,2.8,0.5,3.6-0.7
	c0.8-1.2,0.5-2.8-0.7-3.6c-0.1-0.1-0.2-0.1-0.3-0.2v-4.2l0.4-0.2l3.7,2.1c0,0,0,0.1,0,0.2c0,1,0.6,1.9,1.5,2.4v4.2
	c-0.9,0.4-1.5,1.3-1.5,2.4c0,0.1,0,0.1,0,0.2l-3.7,2.1c-1.2-0.8-2.8-0.5-3.6,0.7c-0.8,1.2-0.5,2.8,0.7,3.6c1.2,0.8,2.8,0.5,3.6-0.7
	c0.3-0.4,0.5-0.9,0.5-1.5c0-0.1,0-0.1,0-0.2l3.7-2.1l0.4,0.2v4.2c-1.3,0.6-1.8,2.2-1.2,3.5c0.6,1.3,2.2,1.8,3.5,1.2
	c0.9-0.4,1.5-1.3,1.5-2.3c0-0.1,0-0.1,0-0.2l3.7-2.1c1.2,0.8,2.8,0.5,3.6-0.7c0.8-1.2,0.5-2.8-0.7-3.6c-1.2-0.8-2.8-0.5-3.6,0.7
	c-0.3,0.4-0.5,0.9-0.5,1.5c0,0.1,0,0.1,0,0.2l-3.7,2.2l-0.4-0.2v-4.2c0.9-0.4,1.5-1.3,1.5-2.4c0-0.1,0-0.1,0-0.2l3.7-2.1
	c0.9,0.6,2.1,0.6,3,0l3.7,2.1c0,0,0,0.1,0,0.2c0,1.4,1.2,2.6,2.6,2.6c1.4,0,2.6-1.2,2.6-2.6c0-1.4-1.2-2.6-2.6-2.6
	c-0.5,0-1,0.2-1.5,0.5l-3.7-2.2c0,0,0-0.1,0-0.2c0-1.4-1.2-2.6-2.6-2.6s-2.6,1.2-2.6,2.6c0,0.1,0,0.1,0,0.2l-3.6,2.1l-0.4-0.2v-4.2
	c0.9-0.4,1.5-1.3,1.5-2.4c0-0.1,0-0.1,0-0.2l3.7-2.1c0.9,0.6,2.1,0.6,3,0l3.7,2.1c0,0,0,0.1,0,0.2
	C123.5,615.2,124.7,616.4,126.1,616.3"/>
<rect x="419.6" y="469.7" class="st1" width="125.1" height="70.9"/>
<path class="st2" d="M540.3,546.8H426.8c-6.8,0-12.2-5.5-12.3-12.3v-57.7c0-6.8,5.5-12.2,12.3-12.3h113.6c6.8,0,12.2,5.5,12.3,12.3
	v57.7C552.6,541.3,547.1,546.8,540.3,546.8z M426.8,474.7c-1.1,0-2,0.9-2,2v57.7c0,1.1,0.9,2,2,2h113.6c1.1,0,2-0.9,2-2v-57.7
	c0-1.1-0.9-2-2-2H426.8z"/>
<path class="st2" d="M547.7,554.8h-46.1v1.2c0,2-1.6,3.5-3.5,3.5H469c-2,0-3.5-1.6-3.5-3.5v-1.2h-46.1c-2.7,0-4.9,2.2-4.9,4.9v4.9
	c0,2.7,2.2,4.9,4.9,4.9h128.4c2.7,0,4.9-2.2,4.9-4.9v-4.9C552.6,557,550.4,554.8,547.7,554.8L547.7,554.8z"/>
<linearGradient id="SVGID_3_" gradientUnits="userSpaceOnUse" x1="483.535" y1="261.3065" x2="483.535" y2="315.7947" gradientTransform="matrix(1 0 0 -1 0 800)">
	<stop  offset="0" style="stop-color:#FFFFFF"/>
	<stop  offset="1" style="stop-color:#5A90CB"/>
</linearGradient>
<path class="st4" d="M499,508.3c1.4,0,2.6-1.2,2.6-2.6c0-1.4-1.2-2.6-2.6-2.6c-0.5,0-1,0.2-1.5,0.5l-3.7-2.1c0,0,0-0.1,0-0.2
	c0-0.1,0-0.1,0-0.2l3.7-2.1c1.2,0.8,2.8,0.5,3.6-0.7s0.5-2.8-0.7-3.6c-0.9-0.6-2.1-0.6-3,0l-3.7-2.1c0,0,0-0.1,0-0.2
	c0-1.4-1.2-2.6-2.6-2.6c-1.4,0-2.6,1.2-2.6,2.6c0,1.4,1.2,2.6,2.6,2.6c0.5,0,1-0.2,1.5-0.5l3.7,2.1c0,0.1,0,0.1,0,0.2
	c0,0.1,0,0.1,0,0.2l-3.7,2.1c-0.9-0.6-2.1-0.6-3,0l-3.7-2.1c0,0,0-0.1,0-0.2c0-1-0.6-1.9-1.5-2.4v-4.2c1.3-0.6,1.8-2.2,1.2-3.5
	c-0.6-1.3-2.2-1.8-3.5-1.2c-1.3,0.6-1.8,2.2-1.2,3.5c0.3,0.5,0.7,1,1.2,1.2v4.2c-1.3,0.6-1.8,2.2-1.2,3.5c0.6,1.3,2.2,1.8,3.5,1.2
	c0.1,0,0.2-0.1,0.3-0.2l3.7,2.1c0,0.1,0,0.1,0,0.2c0,0.1,0,0.1,0,0.2l-3.7,2.1c-0.9-0.6-2.1-0.6-3,0l-3.7-2.1c0,0,0-0.1,0-0.2
	c0-1-0.6-1.9-1.5-2.4v-4.2c1.3-0.6,1.8-2.2,1.2-3.5c-0.6-1.3-2.2-1.8-3.5-1.2c-1.3,0.6-1.8,2.2-1.2,3.5c0.3,0.5,0.7,1,1.2,1.2v4.2
	l-0.4,0.2l-3.7-2.1c0,0,0-0.1,0-0.2c0-1.4-1.2-2.6-2.6-2.6c-1.4,0-2.6,1.2-2.6,2.6c0,1,0.6,1.9,1.5,2.3v4.2
	c-1.3,0.6-1.8,2.2-1.2,3.5c0.6,1.3,2.2,1.8,3.5,1.2c1.3-0.6,1.8-2.2,1.2-3.5c-0.3-0.5-0.7-1-1.2-1.2v-4.2l0.4-0.2l3.7,2.1
	c0,0.1,0,0.1,0,0.2c0,1,0.6,1.9,1.5,2.4v4.2c-0.9,0.4-1.5,1.3-1.5,2.4c0,0.1,0,0.1,0,0.2l-3.7,2.1c-1.2-0.8-2.8-0.5-3.6,0.7
	c-0.8,1.2-0.5,2.8,0.7,3.6c1.2,0.8,2.8,0.5,3.6-0.7c0.3-0.4,0.5-0.9,0.5-1.5c0-0.1,0-0.1,0-0.2l3.7-2.1c1.2,0.8,2.8,0.5,3.6-0.7
	c0.8-1.2,0.5-2.8-0.7-3.6c-0.1-0.1-0.2-0.1-0.3-0.2v-4.2l0.4-0.2l3.7,2.1c0,0,0,0.1,0,0.2c0,1,0.6,1.9,1.5,2.4v4.2
	c-0.9,0.4-1.5,1.3-1.5,2.4c0,0.1,0,0.1,0,0.2l-3.6,2.1c-1.2-0.8-2.8-0.5-3.6,0.7c-0.8,1.2-0.5,2.8,0.7,3.6c1.2,0.8,2.8,0.5,3.6-0.7
	c0.3-0.4,0.5-0.9,0.5-1.5c0-0.1,0-0.1,0-0.2l3.7-2.1l0.4,0.2v4.2c-1.3,0.6-1.8,2.2-1.2,3.5c0.6,1.3,2.2,1.8,3.5,1.2
	c0.9-0.4,1.5-1.3,1.5-2.3c0-0.1,0-0.1,0-0.2l3.7-2.1c1.2,0.8,2.8,0.5,3.6-0.7c0.8-1.2,0.5-2.8-0.7-3.6c-1.2-0.8-2.8-0.5-3.6,0.7
	c-0.3,0.4-0.5,0.9-0.5,1.5c0,0.1,0,0.1,0,0.2l-3.7,2.1l-0.4-0.2v-4.2c0.9-0.4,1.5-1.3,1.5-2.4c0-0.1,0-0.1,0-0.2l3.7-2.1
	c0.9,0.6,2.1,0.6,3,0l3.7,2.1c0,0,0,0.1,0,0.2c0,1.4,1.2,2.6,2.6,2.6c1.4,0,2.6-1.2,2.6-2.6c0-1.4-1.2-2.6-2.6-2.6
	c-0.5,0-1,0.2-1.5,0.5l-3.7-2.1c0,0,0-0.1,0-0.2c0-1.4-1.2-2.6-2.6-2.6s-2.6,1.2-2.6,2.6c0,0.1,0,0.1,0,0.2l-3.7,2.1l-0.4-0.2V508
	c0.9-0.4,1.5-1.3,1.5-2.4c0-0.1,0-0.1,0-0.2l3.7-2.1c0.9,0.6,2.1,0.6,3,0l3.7,2.1c0,0,0,0.1,0,0.2
	C496.4,507.1,497.6,508.3,499,508.3"/>
<rect x="210.4" y="22.2" class="st1" width="125.1" height="70.9"/>
<path class="st2" d="M331.1,99.3H217.5c-6.8,0-12.2-5.5-12.2-12.3V29.3c0-6.8,5.5-12.2,12.3-12.3h113.6c6.8,0,12.2,5.5,12.3,12.3V87
	C343.4,93.8,337.9,99.3,331.1,99.3C331.1,99.3,331.1,99.3,331.1,99.3z M217.5,27.2c-1.1,0-2,0.9-2,2V87c0,1.1,0.9,2,2,2h113.6
	c1.1,0,2-0.9,2-2V29.3c0-1.1-0.9-2-2-2L217.5,27.2z"/>
<path class="st2" d="M338.5,107.3h-46.1v1.2c0,2-1.6,3.5-3.5,3.5c0,0,0,0,0,0h-29c-2,0-3.5-1.6-3.5-3.5l0,0v-1.2h-46.1
	c-2.7,0-4.8,2.2-4.8,4.9v4.9c0,2.7,2.2,4.9,4.9,4.9h128.4c2.7,0,4.9-2.2,4.9-4.9v-4.9C343.4,109.5,341.2,107.3,338.5,107.3
	C338.5,107.3,338.5,107.3,338.5,107.3z"/>
<linearGradient id="SVGID_4_" gradientUnits="userSpaceOnUse" x1="274.3322" y1="708.7855" x2="274.3322" y2="763.2737" gradientTransform="matrix(1 0 0 -1 0 800)">
	<stop  offset="0" style="stop-color:#FFFFFF"/>
	<stop  offset="1" style="stop-color:#5A90CB"/>
</linearGradient>
<path class="st5" d="M289.8,60.8c1.4,0,2.6-1.2,2.6-2.6c0-1.4-1.2-2.6-2.6-2.6c-0.5,0-1,0.2-1.5,0.5l-3.7-2.1c0,0,0-0.1,0-0.2
	c0-0.1,0-0.1,0-0.2l3.7-2.1c1.2,0.8,2.8,0.5,3.6-0.7c0.8-1.2,0.5-2.8-0.7-3.6c-0.9-0.6-2.1-0.6-3,0l-3.7-2.1c0,0,0-0.1,0-0.2
	c0-1.4-1.2-2.6-2.6-2.6c-1.4,0-2.6,1.2-2.6,2.6c0,1.4,1.2,2.6,2.6,2.6c0.5,0,1-0.2,1.5-0.5l3.7,2.1c0,0.1,0,0.1,0,0.2
	c0,0.1,0,0.1,0,0.2l-3.7,2.1c-0.9-0.6-2.1-0.6-3,0l-3.6-2.1c0,0,0-0.1,0-0.2c0-1-0.6-1.9-1.5-2.4v-4.2c1.3-0.6,1.8-2.2,1.2-3.5
	c-0.6-1.3-2.2-1.8-3.5-1.2c-1.3,0.6-1.8,2.2-1.2,3.5c0.3,0.5,0.7,1,1.2,1.2v4.2c-1.3,0.6-1.8,2.2-1.2,3.5c0.6,1.3,2.2,1.8,3.5,1.2
	c0.1,0,0.2-0.1,0.3-0.2l3.7,2.1c0,0.1,0,0.1,0,0.2c0,0.1,0,0.1,0,0.2l-3.7,2.1c-0.9-0.6-2.1-0.6-3,0l-3.7-2.1c0,0,0-0.1,0-0.2
	c0-1-0.6-1.9-1.5-2.4v-4.2c1.3-0.6,1.8-2.2,1.2-3.5c-0.6-1.3-2.2-1.8-3.5-1.2c-1.3,0.6-1.8,2.2-1.2,3.5c0.3,0.5,0.7,1,1.2,1.2v4.2
	l-0.4,0.2l-3.6-2.1c0,0,0-0.1,0-0.2c0-1.4-1.2-2.6-2.6-2.6s-2.6,1.2-2.6,2.6c0,1,0.6,1.9,1.5,2.3v4.2c-1.3,0.6-1.8,2.2-1.2,3.5
	c0.6,1.3,2.2,1.8,3.5,1.2c1.3-0.6,1.8-2.2,1.2-3.5c-0.3-0.5-0.7-1-1.2-1.2v-4.2l0.4-0.2l3.7,2.1c0,0.1,0,0.1,0,0.2
	c0,1,0.6,1.9,1.5,2.4v4.2c-0.9,0.4-1.5,1.3-1.5,2.4c0,0.1,0,0.1,0,0.2l-3.7,2.1c-1.2-0.8-2.8-0.5-3.6,0.7c-0.8,1.2-0.5,2.8,0.7,3.6
	c1.2,0.8,2.8,0.5,3.6-0.7c0.3-0.4,0.5-0.9,0.5-1.5c0-0.1,0-0.1,0-0.2l3.7-2.1c1.2,0.8,2.8,0.5,3.6-0.7c0.8-1.2,0.5-2.8-0.7-3.6
	c-0.1-0.1-0.2-0.1-0.3-0.2v-4.2l0.4-0.2l3.7,2.1c0,0,0,0.1,0,0.2c0,1,0.6,1.9,1.5,2.4v4.2c-0.9,0.4-1.5,1.3-1.5,2.4
	c0,0.1,0,0.1,0,0.2l-3.7,2.1c-1.2-0.8-2.8-0.5-3.6,0.7c-0.8,1.2-0.5,2.8,0.7,3.6c1.2,0.8,2.8,0.5,3.6-0.7c0.3-0.4,0.5-0.9,0.5-1.5
	c0-0.1,0-0.1,0-0.2l3.7-2.1l0.4,0.2v4.2c-1.3,0.6-1.8,2.2-1.2,3.5c0.6,1.3,2.2,1.8,3.5,1.2c0.9-0.4,1.5-1.3,1.5-2.3
	c0-0.1,0-0.1,0-0.2l3.7-2.1c1.2,0.8,2.8,0.5,3.6-0.7c0.8-1.2,0.5-2.8-0.7-3.6c-1.2-0.8-2.8-0.5-3.6,0.7c-0.3,0.4-0.5,0.9-0.5,1.5
	c0,0.1,0,0.1,0,0.2l-3.7,2.1l-0.4-0.2v-4.2c0.9-0.4,1.5-1.3,1.5-2.4c0-0.1,0-0.1,0-0.2l3.7-2.1c0.9,0.6,2.1,0.6,3,0l3.7,2.1
	c0,0,0,0.1,0,0.2c0,1.4,1.2,2.6,2.6,2.6c1.4,0,2.6-1.2,2.6-2.6s-1.2-2.6-2.6-2.6c-0.5,0-1,0.2-1.5,0.5l-3.8-2.1c0,0,0-0.1,0-0.2
	c0-1.4-1.2-2.6-2.6-2.6s-2.6,1.2-2.6,2.6c0,0.1,0,0.1,0,0.2l-3.7,2.1l-0.4-0.2v-4.2c0.9-0.4,1.5-1.3,1.5-2.4c0-0.1,0-0.1,0-0.2
	l3.7-2.1c0.9,0.6,2.1,0.6,3,0l3.7,2.1c0,0,0,0.1,0,0.2C287.1,59.7,288.3,60.8,289.8,60.8"/>
<rect x="526.2" y="259.7" class="st1" width="82.1" height="46.5"/>
<path class="st2" d="M605.4,310.3h-74.5c-4.4,0-8-3.6-8-8v-37.9c0-4.4,3.6-8,8-8h74.5c4.4,0,8,3.6,8,8v37.9
	C613.4,306.7,609.8,310.3,605.4,310.3z M530.9,263c-0.8,0-1.4,0.6-1.4,1.4v37.9c0,0.8,0.6,1.4,1.4,1.4h74.5c0.8,0,1.4-0.6,1.4-1.4
	v-37.9c0-0.8-0.6-1.4-1.4-1.4L530.9,263z"/>
<path class="st2" d="M610.2,315.6H580v0.8c0,1.3-1,2.3-2.3,2.3h-19.1c-1.3,0-2.3-1-2.3-2.3v-0.8H526c-1.8,0-3.2,1.4-3.2,3.2
	c0,0,0,0,0,0v3.2c0,1.8,1.4,3.2,3.2,3.2c0,0,0,0,0,0h84.2c1.8,0,3.2-1.4,3.2-3.2v-3.2C613.4,317,612,315.6,610.2,315.6z"/>
<linearGradient id="SVGID_5_" gradientUnits="userSpaceOnUse" x1="568.1161" y1="495.0339" x2="568.1161" y2="530.7705" gradientTransform="matrix(1 0 0 -1 0 800)">
	<stop  offset="0" style="stop-color:#FFFFFF"/>
	<stop  offset="1" style="stop-color:#5A90CB"/>
</linearGradient>
<path class="st6" d="M578.3,285c0.9,0,1.7-0.8,1.7-1.7c0-0.9-0.8-1.7-1.7-1.7c-0.4,0-0.7,0.1-1,0.3l-2.4-1.4c0,0,0-0.1,0-0.1
	c0,0,0-0.1,0-0.1l2.4-1.4c0.8,0.6,1.8,0.4,2.4-0.4c0.6-0.8,0.4-1.8-0.4-2.4c-0.6-0.4-1.4-0.4-2,0l-2.4-1.4c0,0,0-0.1,0-0.1
	c0-0.9-0.8-1.7-1.7-1.7s-1.7,0.8-1.7,1.7c0,0.9,0.8,1.7,1.7,1.7c0.4,0,0.7-0.1,1-0.3l2.4,1.4c0,0,0,0.1,0,0.1c0,0,0,0.1,0,0.1
	l-2.4,1.4c-0.6-0.4-1.4-0.4-1.9,0l-2.4-1.4c0,0,0-0.1,0-0.1c0-0.7-0.4-1.3-1-1.5v-2.8c0.9-0.4,1.2-1.4,0.8-2.3
	c-0.4-0.9-1.4-1.2-2.3-0.8c-0.9,0.4-1.2,1.4-0.8,2.3c0.2,0.4,0.5,0.6,0.8,0.8v2.8c-0.9,0.4-1.3,1.4-0.9,2.3c0.4,0.9,1.4,1.3,2.3,0.9
	c0.1,0,0.2-0.1,0.3-0.2l2.4,1.4c0,0,0,0.1,0,0.1c0,0,0,0.1,0,0.1l-2.4,1.4c-0.6-0.4-1.4-0.4-1.9,0l-2.4-1.4c0,0,0-0.1,0-0.1
	c0-0.7-0.4-1.3-1-1.5v-2.8c0.9-0.4,1.2-1.4,0.8-2.3c-0.4-0.9-1.4-1.2-2.3-0.8c-0.9,0.4-1.2,1.4-0.8,2.3c0.2,0.4,0.5,0.6,0.8,0.8v2.8
	L562,279l-2.4-1.4c0,0,0-0.1,0-0.1c0-0.9-0.7-1.7-1.7-1.8c-0.9,0-1.7,0.7-1.8,1.7c0,0.7,0.4,1.4,1.1,1.6v2.8
	c-0.9,0.4-1.2,1.4-0.8,2.3c0.4,0.9,1.4,1.2,2.3,0.8c0.9-0.4,1.2-1.4,0.8-2.3c-0.2-0.4-0.5-0.6-0.8-0.8V279l0.2-0.1l2.4,1.4
	c0,0,0,0.1,0,0.1c0,0.7,0.4,1.3,1,1.5v2.8c-0.6,0.3-1,0.9-1,1.5c0,0,0,0.1,0,0.1l-2.4,1.4c-0.8-0.5-1.8-0.3-2.4,0.4
	s-0.3,1.8,0.4,2.4c0.8,0.5,1.8,0.3,2.4-0.4c0.2-0.3,0.3-0.6,0.3-1c0,0,0-0.1,0-0.1l2.4-1.4c0.8,0.6,1.8,0.4,2.4-0.4
	c0.6-0.8,0.4-1.8-0.4-2.4c-0.1-0.1-0.2-0.1-0.3-0.2v-2.8l0.2-0.1l2.4,1.4c0,0,0,0.1,0,0.1c0,0.7,0.4,1.3,1,1.5v2.8
	c-0.6,0.3-1,0.9-1,1.5c0,0,0,0.1,0,0.1l-2.4,1.4c-0.8-0.5-1.8-0.3-2.4,0.4c-0.5,0.8-0.3,1.8,0.4,2.4c0.8,0.5,1.8,0.3,2.4-0.4
	c0.2-0.3,0.3-0.6,0.3-1c0,0,0-0.1,0-0.1l2.4-1.4l0.2,0.1v2.8c-0.9,0.4-1.2,1.4-0.8,2.3c0.4,0.9,1.4,1.2,2.3,0.8c0.6-0.3,1-0.9,1-1.5
	c0,0,0-0.1,0-0.1l2.4-1.4c0.8,0.5,1.8,0.3,2.4-0.4c0.5-0.8,0.3-1.8-0.4-2.4c-0.8-0.5-1.8-0.3-2.4,0.4c-0.2,0.3-0.3,0.6-0.3,1
	c0,0,0,0.1,0,0.1l-2.4,1.4l-0.2-0.1v-2.8c0.6-0.3,1-0.9,1-1.5c0,0,0-0.1,0-0.1l2.4-1.4c0.6,0.4,1.4,0.4,1.9,0l2.4,1.4
	c0,0,0,0.1,0,0.1c0,0.9,0.8,1.7,1.7,1.7c0.9,0,1.7-0.8,1.7-1.7s-0.8-1.7-1.7-1.7c-0.4,0-0.7,0.1-1,0.3l-2.4-1.4c0,0,0-0.1,0-0.1
	c0-0.9-0.8-1.7-1.7-1.7s-1.7,0.8-1.7,1.7c0,0,0,0.1,0,0.1l-2.4,1.4l-0.2-0.1v-2.8c0.6-0.3,1-0.9,1-1.5c0,0,0-0.1,0-0.1l2.4-1.4
	c0.6,0.4,1.4,0.4,1.9,0l2.4,1.4c0,0,0,0.1,0,0.1C576.6,284.3,577.4,285,578.3,285"/>
<rect x="130.5" y="327.9" class="st1" width="82.1" height="46.5"/>
<path class="st2" d="M209.7,378.4h-74.5c-4.4,0-8-3.6-8-8v-37.9c0-4.4,3.6-8,8-8h74.5c4.4,0,8,3.6,8,8v37.9
	C217.8,374.8,214.2,378.4,209.7,378.4z M135.2,331.1c-0.8,0-1.4,0.6-1.4,1.4v37.9c0,0.8,0.6,1.4,1.4,1.4h74.5c0.8,0,1.4-0.6,1.4-1.4
	v-37.9c0-0.8-0.6-1.4-1.4-1.4L135.2,331.1z"/>
<path class="st2" d="M214.6,383.7h-30.3v0.8c0,1.3-1,2.3-2.3,2.3l0,0h-19.1c-1.3,0-2.3-1-2.3-2.3l0,0v-0.8h-30.3
	c-1.8,0-3.2,1.4-3.2,3.2l0,0v3.2c0,1.8,1.4,3.2,3.2,3.2l0,0h84.2c1.8,0,3.2-1.4,3.2-3.2c0,0,0,0,0,0v-3.2
	C217.8,385.2,216.3,383.7,214.6,383.7C214.6,383.7,214.6,383.7,214.6,383.7z"/>
<linearGradient id="SVGID_6_" gradientUnits="userSpaceOnUse" x1="172.4585" y1="426.8576" x2="172.4585" y2="462.5942" gradientTransform="matrix(1 0 0 -1 0 800)">
	<stop  offset="0" style="stop-color:#FFFFFF"/>
	<stop  offset="1" style="stop-color:#5A90CB"/>
</linearGradient>
<path class="st7" d="M182.6,353.2c0.9,0,1.7-0.8,1.7-1.7c0-0.9-0.8-1.7-1.7-1.7c-0.4,0-0.7,0.1-1,0.3l-2.4-1.4c0,0,0-0.1,0-0.1
	s0-0.1,0-0.1l2.4-1.4c0.8,0.6,1.8,0.4,2.4-0.4c0.6-0.8,0.4-1.8-0.4-2.4c-0.6-0.4-1.4-0.4-2,0l-2.4-1.4c0,0,0-0.1,0-0.1
	c0-0.9-0.8-1.7-1.7-1.7c-0.9,0-1.7,0.8-1.7,1.7c0,0.9,0.8,1.7,1.7,1.7c0.4,0,0.7-0.1,1-0.3l2.4,1.4c0,0,0,0.1,0,0.1c0,0,0,0.1,0,0.1
	l-2.4,1.4c-0.6-0.4-1.4-0.4-1.9,0l-2.4-1.4c0,0,0-0.1,0-0.1c0-0.7-0.4-1.3-1-1.5v-2.8c0.9-0.4,1.2-1.4,0.8-2.3
	c-0.4-0.9-1.4-1.2-2.3-0.8c-0.9,0.4-1.2,1.4-0.8,2.3c0.2,0.4,0.5,0.6,0.8,0.8v2.8c-0.9,0.4-1.3,1.4-0.9,2.3c0.4,0.9,1.4,1.3,2.3,0.9
	c0.1,0,0.2-0.1,0.3-0.2l2.4,1.4c0,0,0,0.1,0,0.1c0,0,0,0.1,0,0.1l-2.4,1.4c-0.6-0.4-1.4-0.4-1.9,0l-2.4-1.4c0,0,0-0.1,0-0.1
	c0-0.7-0.4-1.3-1-1.5v-2.8c0.9-0.4,1.2-1.4,0.8-2.3c-0.4-0.9-1.4-1.2-2.3-0.8c-0.9,0.4-1.2,1.4-0.8,2.3c0.2,0.4,0.5,0.6,0.8,0.8v2.8
	l-0.2,0.1l-2.4-1.4c0,0,0-0.1,0-0.1c0-0.9-0.8-1.7-1.7-1.7c-0.9,0-1.7,0.8-1.7,1.7c0,0.7,0.4,1.3,1,1.5v2.8
	c-0.9,0.4-1.2,1.4-0.8,2.3c0.4,0.9,1.4,1.2,2.3,0.8c0.9-0.4,1.2-1.4,0.8-2.3c-0.2-0.4-0.5-0.6-0.8-0.8v-2.8l0.2-0.1l2.4,1.4
	c0,0,0,0.1,0,0.1c0,0.7,0.4,1.3,1,1.5v2.8c-0.6,0.3-1,0.9-1,1.5c0,0,0,0.1,0,0.1l-2.4,1.4c-0.8-0.5-1.8-0.3-2.4,0.4
	c-0.5,0.8-0.3,1.8,0.4,2.4c0.8,0.5,1.8,0.3,2.4-0.4c0.2-0.3,0.3-0.6,0.3-1c0,0,0-0.1,0-0.1l2.4-1.4c0.8,0.6,1.8,0.4,2.4-0.4
	c0.6-0.8,0.4-1.8-0.4-2.4c-0.1-0.1-0.2-0.1-0.3-0.2v-2.8l0.2-0.1l2.4,1.4c0,0,0,0.1,0,0.1c0,0.7,0.4,1.3,1,1.5v2.8
	c-0.6,0.3-1,0.9-1,1.5c0,0,0,0.1,0,0.1l-2.4,1.4c-0.8-0.5-1.8-0.3-2.4,0.4s-0.3,1.8,0.4,2.4c0.8,0.5,1.8,0.3,2.4-0.4
	c0.2-0.3,0.3-0.6,0.3-1c0,0,0-0.1,0-0.1l2.4-1.4l0.2,0.1v2.8c-0.9,0.4-1.2,1.4-0.8,2.3c0.4,0.9,1.4,1.2,2.3,0.8c0.6-0.3,1-0.9,1-1.5
	c0,0,0-0.1,0-0.1l2.4-1.4c0.8,0.5,1.8,0.3,2.4-0.4c0.5-0.8,0.3-1.8-0.4-2.4c-0.8-0.5-1.8-0.3-2.4,0.4c-0.2,0.3-0.3,0.6-0.3,1
	c0,0,0,0.1,0,0.1l-2.4,1.4l-0.2-0.1v-2.8c0.6-0.3,1-0.9,1-1.5c0,0,0-0.1,0-0.1l2.4-1.4c0.6,0.4,1.4,0.4,1.9,0l2.4,1.4
	c0,0,0,0.1,0,0.1c0,0.9,0.8,1.7,1.7,1.7c0.9,0,1.7-0.8,1.7-1.7c0-0.9-0.8-1.7-1.7-1.7c-0.4,0-0.7,0.1-1,0.3l-2.4-1.4
	c0,0,0-0.1,0-0.1c0-0.9-0.8-1.7-1.7-1.7c-0.9,0-1.7,0.8-1.7,1.7c0,0,0,0.1,0,0.1l-2.4,1.4l-0.2-0.1V353c0.6-0.3,1-0.9,1-1.5
	c0,0,0-0.1,0-0.1l2.4-1.4c0.6,0.4,1.4,0.4,1.9,0l2.4,1.4c0,0,0,0.1,0,0.1C180.9,352.4,181.7,353.2,182.6,353.2L182.6,353.2"/>
<rect x="63.1" y="160.4" class="st8" width="74.4" height="49.7"/>
<path class="st9" d="M79.4,193c-4.3,0-7.8-3.5-7.8-7.8c0-4.3,3.5-7.8,7.8-7.8c4.3,0,7.8,3.5,7.8,7.8c0,0,0,0,0,0
	C87.1,189.5,83.7,193,79.4,193z M79.4,180c-2.9,0-5.2,2.3-5.2,5.2s2.3,5.2,5.2,5.2c2.9,0,5.2-2.3,5.2-5.2c0,0,0,0,0,0
	C84.6,182.4,82.3,180,79.4,180C79.4,180,79.4,180,79.4,180L79.4,180z"/>
<path class="st9" d="M100.3,193c-4.3,0-7.8-3.5-7.8-7.8c0-4.3,3.5-7.8,7.8-7.8c4.3,0,7.8,3.5,7.8,7.8c0,0,0,0,0,0
	C108,189.5,104.6,193,100.3,193z M100.3,180c-2.9,0-5.2,2.3-5.2,5.2s2.3,5.2,5.2,5.2c2.9,0,5.2-2.3,5.2-5.2c0,0,0,0,0,0
	C105.5,182.4,103.2,180,100.3,180C100.3,180,100.3,180,100.3,180L100.3,180z"/>
<path class="st9" d="M121.2,193c-4.3,0-7.8-3.5-7.8-7.8c0-4.3,3.5-7.8,7.8-7.8c4.3,0,7.8,3.5,7.8,7.8c0,0,0,0,0,0
	C129,189.5,125.5,193,121.2,193z M121.2,180c-2.9,0-5.2,2.3-5.2,5.2s2.3,5.2,5.2,5.2c2.9,0,5.2-2.3,5.2-5.2c0,0,0,0,0,0
	C126.4,182.4,124.1,180,121.2,180C121.2,180,121.2,180,121.2,180L121.2,180z"/>
<rect x="342.5" y="250.8" class="st8" width="74.4" height="49.7"/>
<path class="st9" d="M358.8,283.5c-4.3,0-7.8-3.5-7.8-7.8s3.5-7.8,7.8-7.8c4.3,0,7.8,3.5,7.8,7.8l0,0
	C366.5,280,363.1,283.5,358.8,283.5z M358.8,270.5c-2.9,0-5.2,2.3-5.2,5.2c0,2.9,2.3,5.2,5.2,5.2c2.9,0,5.2-2.3,5.2-5.2
	C364,272.8,361.7,270.5,358.8,270.5C358.8,270.5,358.8,270.5,358.8,270.5L358.8,270.5z"/>
<path class="st9" d="M379.7,283.5c-4.3,0-7.8-3.5-7.8-7.8s3.5-7.8,7.8-7.8c4.3,0,7.8,3.5,7.8,7.8l0,0
	C387.5,280,384,283.5,379.7,283.5z M379.7,270.5c-2.9,0-5.2,2.3-5.2,5.2c0,2.9,2.3,5.2,5.2,5.2c2.9,0,5.2-2.3,5.2-5.2
	C384.9,272.8,382.6,270.5,379.7,270.5C379.7,270.5,379.7,270.5,379.7,270.5L379.7,270.5z"/>
<path class="st9" d="M400.6,283.5c-4.3,0-7.8-3.5-7.8-7.8s3.5-7.8,7.8-7.8c4.3,0,7.8,3.5,7.8,7.8l0,0
	C408.4,280,404.9,283.5,400.6,283.5z M400.6,270.5c-2.9,0-5.2,2.3-5.2,5.2c0,2.9,2.3,5.2,5.2,5.2c2.9,0,5.2-2.3,5.2-5.2
	C405.8,272.8,403.5,270.5,400.6,270.5C400.6,270.5,400.6,270.5,400.6,270.5L400.6,270.5z"/>
<rect x="655.6" y="160.4" class="st8" width="74.4" height="49.7"/>
<path class="st9" d="M671.9,193c-4.3,0-7.8-3.5-7.8-7.8c0-4.3,3.5-7.8,7.8-7.8c4.3,0,7.8,3.5,7.8,7.8
	C679.6,189.5,676.2,193,671.9,193z M671.9,180c-2.9,0-5.2,2.3-5.2,5.2s2.3,5.2,5.2,5.2c2.9,0,5.2-2.3,5.2-5.2
	C677.1,182.4,674.8,180,671.9,180C671.9,180,671.9,180,671.9,180L671.9,180z"/>
<path class="st9" d="M692.8,193c-4.3,0-7.8-3.5-7.8-7.8c0-4.3,3.5-7.8,7.8-7.8c4.3,0,7.8,3.5,7.8,7.8
	C700.6,189.5,697.1,193,692.8,193z M692.8,180c-2.9,0-5.2,2.3-5.2,5.2s2.3,5.2,5.2,5.2c2.9,0,5.2-2.3,5.2-5.2
	C698,182.4,695.7,180,692.8,180C692.8,180,692.8,180,692.8,180L692.8,180z"/>
<path class="st9" d="M713.7,193c-4.3,0-7.8-3.5-7.8-7.8c0-4.3,3.5-7.8,7.8-7.8c4.3,0,7.8,3.5,7.8,7.8C721.5,189.5,718,193,713.7,193
	z M713.7,180c-2.9,0-5.2,2.3-5.2,5.2s2.3,5.2,5.2,5.2c2.9,0,5.2-2.3,5.2-5.2C718.9,182.4,716.6,180,713.7,180
	C713.7,180,713.7,180,713.7,180L713.7,180z"/>
<rect x="725.6" y="380.5" class="st8" width="74.4" height="49.7"/>
<path class="st9" d="M741.9,413.1c-4.3,0-7.8-3.5-7.8-7.8s3.5-7.8,7.8-7.8c4.3,0,7.8,3.5,7.8,7.8
	C749.6,409.7,746.2,413.1,741.9,413.1z M741.9,400.1c-2.9,0-5.2,2.3-5.2,5.2c0,2.9,2.3,5.2,5.2,5.2c2.9,0,5.2-2.3,5.2-5.2
	C747.1,402.5,744.8,400.1,741.9,400.1C741.9,400.1,741.9,400.1,741.9,400.1L741.9,400.1z"/>
<path class="st9" d="M762.8,413.1c-4.3,0-7.8-3.5-7.8-7.8s3.5-7.8,7.8-7.8c4.3,0,7.8,3.5,7.8,7.8
	C770.6,409.7,767.1,413.1,762.8,413.1z M762.8,400.1c-2.9,0-5.2,2.3-5.2,5.2c0,2.9,2.3,5.2,5.2,5.2c2.9,0,5.2-2.3,5.2-5.2
	C768,402.5,765.7,400.1,762.8,400.1C762.8,400.1,762.8,400.1,762.8,400.1L762.8,400.1z"/>
<path class="st9" d="M783.7,413.1c-4.3,0-7.8-3.5-7.8-7.8s3.5-7.8,7.8-7.8c4.3,0,7.8,3.5,7.8,7.8C791.5,409.7,788,413.1,783.7,413.1
	z M783.7,400.1c-2.9,0-5.2,2.3-5.2,5.2c0,2.9,2.3,5.2,5.2,5.2c2.9,0,5.2-2.3,5.2-5.2C788.9,402.5,786.6,400.1,783.7,400.1
	C783.7,400.1,783.7,400.1,783.7,400.1L783.7,400.1z"/>
<rect x="284.1" y="506.2" class="st8" width="74.4" height="49.7"/>
<path class="st9" d="M300.4,538.9c-4.3,0-7.8-3.5-7.8-7.8s3.5-7.8,7.8-7.8c4.3,0,7.8,3.5,7.8,7.8l0,0
	C308.1,535.4,304.6,538.9,300.4,538.9z M300.4,525.9c-2.9,0-5.2,2.3-5.2,5.2c0,2.9,2.3,5.2,5.2,5.2c2.9,0,5.2-2.3,5.2-5.2
	S303.2,525.9,300.4,525.9C300.4,525.9,300.4,525.9,300.4,525.9z"/>
<path class="st9" d="M321.3,538.9c-4.3,0-7.8-3.5-7.8-7.8s3.5-7.8,7.8-7.8c4.3,0,7.8,3.5,7.8,7.8l0,0
	C329,535.4,325.6,538.9,321.3,538.9z M321.3,525.9c-2.9,0-5.2,2.3-5.2,5.2c0,2.9,2.3,5.2,5.2,5.2c2.9,0,5.2-2.3,5.2-5.2
	S324.2,525.9,321.3,525.9C321.3,525.9,321.3,525.9,321.3,525.9z"/>
<path class="st9" d="M342.2,538.9c-4.3,0-7.8-3.5-7.8-7.8s3.5-7.8,7.8-7.8c4.3,0,7.8,3.5,7.8,7.8l0,0
	C350,535.4,346.5,538.9,342.2,538.9z M342.2,525.9c-2.9,0-5.2,2.3-5.2,5.2c0,2.9,2.3,5.2,5.2,5.2c2.9,0,5.2-2.3,5.2-5.2
	S345.1,525.9,342.2,525.9C342.2,525.9,342.2,525.9,342.2,525.9z"/>
<rect x="469.8" y="733.2" class="st8" width="74.4" height="49.7"/>
<path class="st9" d="M486,765.9c-4.3,0-7.8-3.5-7.8-7.8c0-4.3,3.5-7.8,7.8-7.8c4.3,0,7.8,3.5,7.8,7.8
	C493.8,762.4,490.3,765.8,486,765.9z M486,752.8c-2.9,0-5.2,2.3-5.2,5.2c0,2.9,2.3,5.2,5.2,5.2c2.9,0,5.2-2.3,5.2-5.2
	C491.3,755.2,488.9,752.8,486,752.8C486,752.8,486,752.8,486,752.8z"/>
<path class="st9" d="M507,765.9c-4.3,0-7.8-3.5-7.8-7.8c0-4.3,3.5-7.8,7.8-7.8c4.3,0,7.8,3.5,7.8,7.8
	C514.7,762.4,511.3,765.8,507,765.9z M507,752.8c-2.9,0-5.2,2.3-5.2,5.2c0,2.9,2.3,5.2,5.2,5.2c2.9,0,5.2-2.3,5.2-5.2
	C512.2,755.2,509.9,752.8,507,752.8C507,752.8,507,752.8,507,752.8z"/>
<path class="st9" d="M527.9,765.9c-4.3,0-7.8-3.5-7.8-7.8c0-4.3,3.5-7.8,7.8-7.8c4.3,0,7.8,3.5,7.8,7.8
	C535.6,762.4,532.2,765.8,527.9,765.9z M527.9,752.8c-2.9,0-5.2,2.3-5.2,5.2c0,2.9,2.3,5.2,5.2,5.2c2.9,0,5.2-2.3,5.2-5.2
	C533.1,755.2,530.8,752.8,527.9,752.8C527.9,752.8,527.9,752.8,527.9,752.8z"/>
</svg>
