<?xml version="1.0" encoding="utf-8"?>
<!-- Generator: Adobe Illustrator 21.1.0, SVG Export Plug-In . SVG Version: 6.00 Build 0)  -->
<svg version="1.1" id="Capa_1" xmlns="http://www.w3.org/2000/svg" xmlns:xlink="http://www.w3.org/1999/xlink" x="0px" y="0px"
	 viewBox="0 0 268.8 268.8" style="enable-background:new 0 0 268.8 268.8;" xml:space="preserve">
<style type="text/css">
	.st0{fill:#FFFFFF;}
</style>
<g>
	<path class="st0" d="M3.7,143.4l80,80c4.9,4.9,12.8,4.9,17.7,0c4.9-4.9,4.9-12.8,0-17.7L42.7,147h213.7c6.9,0,12.5-5.6,12.5-12.5
		c0-6.9-5.6-12.5-12.5-12.5H42.7l58.7-58.7c4.9-4.9,4.9-12.8,0-17.7c-2.4-2.4-5.6-3.7-8.8-3.7s-6.4,1.2-8.8,3.7l-80,80
		C-1.2,130.6-1.2,138.5,3.7,143.4z"/>
</g>
</svg>
