<?xml version="1.0" encoding="utf-8"?>
<!-- Generator: Adobe Illustrator 21.1.0, SVG Export Plug-In . SVG Version: 6.00 Build 0)  -->
<svg version="1.1" id="Layer_1" xmlns="http://www.w3.org/2000/svg" xmlns:xlink="http://www.w3.org/1999/xlink" x="0px" y="0px"
	 viewBox="0 0 719 574" style="enable-background:new 0 0 719 574;" xml:space="preserve">
<style type="text/css">
	.st0{fill:#828FA2;}
</style>
<path class="st0" d="M606,190.7H333.4c-32.2,0-58,25.8-58,58v178.2c0,32.2,25.8,58,58,58h225.4L664,532V248.7
	C664,216.5,638.2,190.7,606,190.7z"/>
<path class="st0" d="M410.7,149.9V89.8c0-32.2-25.8-58-58-58H78c-32.2,0-58,25.8-58,58v285.5l105.2-47.2h107.3v-77.3
	c0-53.7,45.1-98.7,98.7-98.7h79.4C410.7,152.1,410.7,149.9,410.7,149.9z"/>
</svg>
