<?xml version="1.0" encoding="utf-8"?>
<!-- Generator: Adobe Illustrator 21.1.0, SVG Export Plug-In . SVG Version: 6.00 Build 0)  -->
<svg version="1.1" id="_x2014_ÎÓÈ_x5F_1" xmlns="http://www.w3.org/2000/svg" xmlns:xlink="http://www.w3.org/1999/xlink"
	 x="0px" y="0px" viewBox="0 0 1800 1557.3" style="enable-background:new 0 0 1800 1557.3;" xml:space="preserve">
<style type="text/css">
	.st0{fill:#F2F2F2;}
	.st1{fill:#32526E;}
	.st2{fill:#5B758B;}
	.st3{opacity:0.16;fill:#FFFFFF;}
	.st4{opacity:0.48;fill:#FFFFFF;}
	.st5{opacity:0.27;}
	.st6{fill:#FFFFFF;}
	.st7{opacity:5.000000e-02;fill:#FFFFFF;}
	.st8{fill:#92D3D9;}
	.st9{fill:#2C3D4F;}
	.st10{fill:#2D3E50;}
	.st11{fill:#4D4D4D;}
	.st12{fill:#666666;}
	.st13{fill:#808080;}
	.st14{fill:#BA5A50;}
	.st15{fill:#F0AE74;}
	.st16{fill:#263E53;}
	.st17{fill:#F6E2CA;}
	.st18{fill:#DC9964;}
	.st19{fill:#F8786B;}
	.st20{opacity:0.52;fill:#BA5A50;}
	.st21{opacity:0.72;fill:#263E53;}
	.st22{opacity:0.38;}
	.st23{fill:#CCCCCC;}
	.st24{fill:#E6E6E6;}
	.st25{fill:#94BA65;}
	.st26{opacity:0.14;}
	.st27{opacity:0.63;fill:#DC9964;}
	.st28{fill:#D1D3D4;}
	.st29{fill:#8C6239;}
	.st30{fill:#D4A477;}
	.st31{fill:#FFB643;}
</style>
<rect class="st0" width="1800" height="1557.3"/>
<g>
	<path class="st1" d="M343.5,661.3c-5,6.1-13.3,8.8-34.8,17.5c-1.4-2-2.9-3.7-4.4-5.3c-3.1-3.4-9.1-8.7-15.6-14.2
		c1.7-0.9,3.4-1.8,5-2.6c23.4-12,38.3-12.9,44.2-11.2C343.8,647.1,349.8,653.7,343.5,661.3z"/>
	<path class="st1" d="M145.2,975.6c3.4-7.1,2.2-15.8,0.8-38.9c-2.4-0.4-4.6-1-6.6-1.7c-4.4-1.3-11.8-4.5-19.6-8
		c-0.1,2-0.2,3.8-0.2,5.7c-0.8,26.3,4.9,40.1,8.9,44.7C132.6,982,141,984.6,145.2,975.6z"/>
	<path class="st2" d="M288.7,659.3c6.5,5.5,12.5,10.8,15.6,14.2c1.4,1.6,2.9,3.2,4.4,5.3c-3.7,1.5-7.9,3.2-12.6,5.2
		c-2.3,1-4.7,2-7.3,3.1C252.1,703,230,731.6,230,731.6l-20.7,27.4l-8.3,11l-21.3,28.2l-8,10.6l-70.9,94l-4.9,6.5l-13.7-18l20.9-28.5
		l36.9-50.4c0,0,2.2-2.9,6-7.7c9.4-12.1,28.3-36.5,45.8-59c18.8-24.2,36.1-46.2,38.1-48.5c3.6-4.1,26-18.9,46.7-31
		C280.7,663.7,284.8,661.4,288.7,659.3z"/>
	<path class="st2" d="M260,645c0,0-1.2,2.5-3.3,6.9c-9,18.7-34.2,71.1-51.4,105.6c-2.1,4.3-4.1,8.3-5.9,11.9
		c-4.5,8.8-7.9,15.5-9.7,18.5c-1.9,3.1-4.4,7.7-7.3,12.9c-2.1,3.7-4.4,7.8-6.7,12C164.5,833,152,857,151.3,862
		c-0.9,7.7-8.1,35.3-8.3,50.9c-0.1,3,0.1,6.2,0.3,9.5c0.3,4.7,0.9,9.4,1.5,14c-2-0.4-3.8-0.9-5.5-1.4c-4.9-1.5-13.5-5.2-22.1-9.1
		c0.3-4.5,0.7-9.2,1.2-13.9c3-27,9.9-57.2,21.9-77.4c4.4-7.3,10.5-18.6,17.5-32.2c9.6-18.3,20.9-40.7,31.9-63
		c11.8-23.8,23.4-47.4,32.3-65.7c0,0,0,0,0-0.1c9.8-20.3,16.4-33.9,16.4-33.9L260,645z"/>
	<path class="st3" d="M183.7,815.3c9.5,12,15.6,27.1,15,42.4c-0.5,11.4-4.7,22.4-10.5,32.3c-4.2,7.2-9.3,13.9-14.6,20.5
		c-3.7,4.6-7.3,9.1-12,12.4c-0.8,0.6-1.6,1.1-2.5,1.6c-0.7,0.4-1.5,0.8-2.3,1.2c-1,0.4-2,0.8-2.9,1c-4.5,1.1-8.4-0.2-13.2-1.6
		c-1.4-0.4-2.8-0.9-4.2-1.3c-2.5-0.8-4.9-1.7-7.4-2.6c-4.4-1.7-8.7-3.5-13-5.6c-0.1,0-0.2-0.1-0.3-0.1c-10.3-4.9-21.6-9.8-25-21.7
		c-1.7-5.9-1.1-12.1,1.6-17.6c1-2.1,2-4.2,3-6.3c1.9-3.8,3.7-7.6,5.6-11.5c1.1-2.2,2.2-4.3,3.3-6.5c2.1-4,4.2-8,6.4-12
		c0.8-1.4,1.6-2.8,2.4-4.2c1.2-1.9,2.4-3.9,3.6-5.8c0.6-1,1.3-2,1.9-3c2.4-3.6,4.9-7,7.6-10.4c7.1-8.7,16.3-17.1,27.5-17.8
		C165.7,798,176.4,806,183.7,815.3z"/>
	<path class="st3" d="M268,654.1c6,4.3,11.1,9.8,16.7,14.5c5.7,4.8,12.4,9,15.8,15.6c4.3,8.3,2.5,18.4-1.3,26.9
		c-2.7,6-6.3,11.4-9.6,17c-3,5.1-5.7,10.1-9.4,14.7c-7.4,9.4-16.8,17.4-28.2,21.3c-1.2,0.4-2.3,0.8-3.6,1.1c-2.1,0.6-4.3,1-6.5,1.3
		c-2.1,0.3-4.2,0.5-6.4,0.5c-1.1,0-2.1,0-3.2,0c-1.8,0-3.6-0.1-5.3-0.3c-1.6-0.1-3.1-0.3-4.7-0.5c-2.8-0.4-5.6-1-8.4-1.6
		c-11.5-2.8-23.5-8.9-26.9-21.1c-1.7-5.8-1.5-12.5,0.6-19.9c1.1-4.1,2.5-8.6,4.1-12.6c0.8-2,2-3.9,3.4-5.8c0.9-1.3,1.9-2.5,2.8-3.7
		c1.1-1.4,2.1-2.7,3-4.1c0.1-0.1,0.1-0.2,0.2-0.3c0.7-1,1.3-1.9,2-2.8c1.3-1.9,2.7-3.9,4-5.8c1.4-2.1,2.9-4.2,4.3-6.3
		c3-4.3,6-8.7,9-13c3.4-4.9,6.9-9.9,11.3-14c1.9-1.8,4-3.4,6.3-4.7c2.9-1.7,6.1-2.8,9.5-3.2C254.7,646.6,262,649.8,268,654.1z"/>
	<path class="st4" d="M101.1,858.3l28,62.6c-4.4-1.7-8.7-3.5-13-5.6c-0.1,0-0.2-0.1-0.3-0.1l-20.3-45.5
		C97.3,866,99.2,862.2,101.1,858.3z"/>
	<path class="st4" d="M118.8,826.9l42.8,95.9c-0.8,0.6-1.6,1.1-2.5,1.6l-42.2-94.6C117.5,828.8,118.1,827.9,118.8,826.9z"/>
	<path class="st4" d="M203,694.3l32.5,72.8c-1.1,0-2.1,0-3.2,0L201,697.1C201.7,696.2,202.3,695.2,203,694.3z"/>
	<path class="st4" d="M197.8,701.5l29.1,65.3c-1.6-0.1-3.1-0.3-4.7-0.5l-27.3-61C195.9,703.9,196.8,702.7,197.8,701.5z"/>
	<path class="st4" d="M211.3,682.2l37.1,83c-2.1,0.6-4.3,1-6.5,1.3L207,688.5C208.5,686.4,209.9,684.3,211.3,682.2z"/>
	<path class="st4" d="M113.3,835.6l40.6,91c-4.5,1.1-8.4-0.2-13.2-1.6c-1.4-0.4-2.8-0.9-4.2-1.3l-32-71.8c2.1-4,4.2-8,6.4-12
		C111.6,838.4,112.4,837,113.3,835.6z"/>
	<path class="st1" d="M247,621.1c0,0-36,45.1-45.7,58.2c-7.4,10.1-19.8,35-25.2,46c-1.5,3.1-2.5,6.3-3.2,9.7
		c-1.7,8.4-6.2,19.4-13.1,30.3c-6.9,10.9-14.8,19.7-21.7,24.9c-2.8,2-5.2,4.3-7.3,7c-7.6,9.6-24.7,31.5-30.6,42.5
		c-7.7,14.3-32.9,66.3-32.9,66.3s10.5,7.1,12.2,7.7c1.7,0.6,7.3-1.3,9.8-0.7c1.5,0.4,14.8,7,27.9,12.9c8.7,4,17.2,7.6,22.1,9.1
		c1.7,0.5,3.5,1.1,5.5,1.4c10.4,2.1,25.2-0.4,49.4-38.6c8.2-12.9,14.1-27.7,14.2-43.2c0.1-10.8-2.9-21.3-8.1-30.7
		c-6-10.8-14.5-20.3-23.5-28.6c-2-1.9-3.9-4-6.1-5.8c-1.1-0.8-1.3-2.3-0.6-3.5l13-20.6c0.7-1.1,2.2-1.6,3.4-0.9
		c3.7,2,8.3,3.2,12.3,4.7c10.5,3.7,21.3,6.8,32.5,7.3c10.9,0.5,21.7-1.6,31.4-6.6c13.4-6.8,23.8-18.3,31.7-30.9
		c23.2-36.8,20.2-51.6,14.3-60.3c-1.4-2-2.9-3.7-4.4-5.3c-3.1-3.4-9.1-8.7-15.6-14.2c-11.6-9.8-24.7-20.1-25.8-21.4
		c-1.7-2-2.3-7.9-3.6-9.1C258,627.5,247,621.1,247,621.1z M176,812.4c4,4.3,7.4,9.3,10.2,13.6c6.2,9.5,9.7,20.4,8.9,31.7
		c-0.8,11.9-5.7,23.1-12,33c-23.1,36.6-32.7,33.8-39.8,31.7c-13-3.9-25.3-10-37.1-16.5c-5.3-3-9.3-6-11.4-12
		c-2.5-6.9-0.5-12.5,2.3-18.8c2.9-6.6,6.1-13.2,9.4-19.6c5.4-10.4,11.3-20.5,17.8-30.3c5.4-8.3,12.4-16.4,21.6-20.6
		c4.5-2.1,8.5-2.6,12-2.3C165.1,802.9,171,807.1,176,812.4z M292.4,680.1c1.5,1.4,2.9,2.9,4.1,4.4c5.3,7,2.8,16.7-0.3,24.1
		c-3.5,8.2-8.2,16-12.9,23.4c-9.9,15.8-24.4,29.2-43.6,31c-9.2,0.9-18.5-0.4-27.2-3.1c-8.4-2.6-16.7-5.8-20.7-14.2
		c-0.8-1.8-1.5-3.9-1.9-6.3c-0.6-4-0.3-8.9,1.2-14.8c2.3-8.5,6.6-16.5,11.4-23.9c6.4-10,13.6-19.7,21-29c2.6-3.2,5.2-6.4,7.9-9.6
		c2.5-2.9,4.9-6.6,8.3-8.4c5.1-3,11.3-3.6,16.9-1.8c3.7,1.2,6.6,3.7,9.7,6.1c3.5,2.7,6.9,5.4,10.2,8.2c3.6,3,7.2,6.2,10.7,9.4
		C288.9,677,290.7,678.5,292.4,680.1z"/>
</g>
<g>
	<path class="st5" d="M231,1460l-123.8-21.3c-8.5-1.5-14.2-9.6-12.8-18.1l44.3-256.9c1.5-8.5,9.5-14.2,18.1-12.8l123.8,21.3
		c8.5,1.5,14.2,9.6,12.7,18.1l-44.3,256.9C247.6,1455.7,239.5,1461.4,231,1460z"/>
	<g>
		<path class="st6" d="M272,1164.1l-123.8-21.3c-8.5-1.5-16.6,4.3-18.1,12.8l-44.3,256.9c-1.5,8.5,4.2,16.6,12.7,18.1l123.8,21.3
			c8.5,1.5,16.6-4.2,18.1-12.7l44.3-256.9C286.2,1173.7,280.5,1165.6,272,1164.1z M191.8,1155l35,6l-0.6,3.2l-35-6L191.8,1155z"/>
		<path class="st1" d="M224.6,1164l-31.7-5.5c-0.9-0.2-1.5-1-1.3-1.9l0,0c0.2-0.9,1-1.5,1.9-1.3l31.7,5.5c0.9,0.2,1.5,1,1.3,1.9l0,0
			C226.4,1163.6,225.5,1164.2,224.6,1164z"/>
		<path class="st1" d="M226.5,1431.7l-125.3-21.6c-2.9-0.5-4.9-3.3-4.4-6.2l42.2-244.1c0.5-2.9,3.3-4.9,6.2-4.4l125.3,21.6
			c2.9,0.5,4.9,3.3,4.4,6.2l-42.2,244.1C232.2,1430.2,229.4,1432.2,226.5,1431.7z"/>
		<path class="st7" d="M262.4,1175.6c-40.1,56.9-120,172-162.9,233.9c-1.9-1.1-3.1-3.3-2.7-5.6l42.2-244.1c0.5-2.9,3.3-4.9,6.2-4.4
			L262.4,1175.6z"/>
	</g>
</g>
<g>
	<path class="st5" d="M1268.9,630.7c0,6.5-5.2,11.7-11.7,11.7l-1.8,0v0.2c0,7.1-5.8,12.8-12.8,12.8h-1.4c-7.1,0-12.8-5.7-12.8-12.8
		l0.1-131.6c0-7.1,5.8-12.8,12.8-12.8h1.4c7.1,0,12.8,5.7,12.8,12.8v0.2h1.8c5.1,0,9.4,3.2,11,7.7c0.3,0.8,0.5,1.5,0.6,2.4v-0.1
		c5-6,5.9-15.2,6.6-25c1.7-25.8-13.9-57.9-28.6-75.4l-0.4,0.5l-15.8-9.1c-0.7-0.6-1.4-1.1-2.2-1.7c-21.4-16.1-49-27.1-79.7-30.5
		c-6.4-0.7-20.5-1.1-20.9-1.1h-0.1c-0.5,0-14.5,0.3-20.9,1c-15.3,1.6-29.9,5.2-43.3,10.4c-13.4,5.2-25.7,11.9-36.4,20
		c-0.7,0.6-1.5,1.1-2.2,1.7l-15.8,9.1L998.3,409l10.4,11.7c-14.7,17.6-30.3,49.6-28.7,75.4c0.6,9.7,1.6,19,6.5,25v0.1
		c0.1-0.8,0.3-1.6,0.6-2.4c1.6-4.5,5.9-7.7,11-7.7h1.8v-0.2c0-7.1,5.8-12.8,12.8-12.8h1.4c7.1,0,12.8,5.8,12.8,12.8l-0.1,131.6
		c0,7.1-5.7,12.8-12.8,12.8h-0.7l-0.7,0c-7.1,0-12.8-5.7-12.8-12.8v-0.2H998c-6.5,0-11.7-5.2-11.7-11.7
		c-10.6-15.8-34.5-119.4-26.8-147.4c0,0,1.9-36.8,36.8-76.4l-0.6-0.7l11.3-16.4c0.3-0.3,0.5-0.5,0.8-0.8
		c26.9-24.5,62.2-42.5,98.9-47.4c0.8-0.1,14.7-1.2,20.9-1.3h0.1c6.3,0,20.1,1.2,20.9,1.3c36.7,4.9,72.1,23,98.9,47.5
		c0.3,0.3,0.6,0.5,0.8,0.8l11.3,16.4l-0.6,0.7c34.9,39.6,36.8,76.4,36.8,76.4C1303.6,511.3,1279.6,615,1268.9,630.7z"/>
	<g>
		<path class="st1" d="M1205.9,995.5l-182.7-0.1l0-6.2l182.7,0.1c23.3,0,42.3-18.9,42.3-42.3c0-23.3-18.9-42.3-42.3-42.3l-336.8-0.2
			l0-36.7l330.7,0.2c25,0,45.4-20.3,45.4-45.3l0-201.8l6.2,0l0,201.8c0,28.4-23.1,51.5-51.6,51.5L875.3,874l0,24.4l330.6,0.2
			c26.7,0,48.4,21.8,48.4,48.5C1254.4,973.8,1232.6,995.5,1205.9,995.5z"/>
	</g>
	<g>
		<path class="st8" d="M1000.2,484.3l-0.7,0l-0.7,0c-7.1,0-12.8,5.7-12.8,12.8l-0.1,131.6c0,7.1,5.7,12.8,12.8,12.8l0.7,0l0.7,0
			c7.1,0,12.8-5.7,12.8-12.8l0.1-131.6C1013,490,1007.3,484.3,1000.2,484.3z"/>
		<path class="st9" d="M986,497.3l-0.1,131.1l-1.8,0c-6.5,0-11.7-5.3-11.7-11.7l0.1-107.7c0-1.4,0.2-2.8,0.7-4c1.6-4.5,6-7.7,11-7.7
			L986,497.3z"/>
		<path class="st9" d="M995.2,407.4l15.8-9.1c0.7-0.6,1.4-1.1,2.2-1.7L994,375.2c-0.3,0.3-0.6,0.5-0.8,0.8l-11.3,16.4L995.2,407.4z"
			/>
		<path class="st6" d="M982.5,393l12.3,13.9c-14.7,17.5-30.3,49.6-28.7,75.4c0.6,9.7,1.6,19,6.5,25c-0.1,1.5-0.1,3.2-0.1,4.6
			l-0.1,104.9c-10.6-15.8-34.5-119.4-26.8-147.4C945.6,469.4,947.5,432.5,982.5,393z"/>
		<path class="st8" d="M1228.8,484.4l-0.7,0l-0.7,0c-7.1,0-12.8,5.7-12.8,12.8l-0.1,131.6c0,7.1,5.7,12.8,12.8,12.8l0.7,0l0.7,0
			c7.1,0,12.8-5.7,12.8-12.8l0.1-131.6C1241.6,490.2,1235.9,484.4,1228.8,484.4z"/>
		<path class="st9" d="M1241.6,497.5l-0.1,131.1l1.8,0c6.5,0,11.7-5.2,11.7-11.7l0.1-107.7c0-1.4-0.2-2.8-0.7-4
			c-1.6-4.5-5.9-7.7-11-7.7L1241.6,497.5z"/>
		<path class="st9" d="M1232.5,407.5l-15.8-9.1c-0.7-0.6-1.4-1.1-2.2-1.7l19.2-21.4c0.3,0.3,0.6,0.5,0.8,0.8l11.3,16.4L1232.5,407.5
			z"/>
		<path class="st6" d="M1245.3,393.1l-12.3,13.9c14.7,17.6,30.3,49.6,28.6,75.4c-0.6,9.7-1.6,19-6.6,25c0.1,1.5,0.1,3.2,0.1,4.6
			l-0.1,104.9c10.6-15.7,34.6-119.4,27-147.3C1282,469.6,1280.2,432.7,1245.3,393.1z"/>
		<path class="st8" d="M1134.9,327.8c-0.8-0.1-14.7-1.3-20.9-1.3h-0.1c-6.3,0-20.1,1.2-20.9,1.3c-36.7,4.9-72.1,22.9-98.9,47.4
			l19.2,21.4c21.4-16.1,49-27.1,79.7-30.4c6.4-0.7,20.5-1,20.9-1c0,0,0.1,0,0.1,0c0.4,0,14.5,0.4,20.9,1.1
			c30.7,3.3,58.3,14.3,79.7,30.5l19.2-21.4C1206.9,350.8,1171.6,332.7,1134.9,327.8z"/>
	</g>
</g>
<g>
	<path class="st5" d="M1463.3,1220.6c2.3-9-2.8-47.3-3.4-49.1c0,0,0-0.1,0-0.2c-3.3-9.7-6.5-17.2-9.4-22.9
		c-5.7-10.9-10.6-15-14.8-15.4c-5.8-0.6-11,5.9-12.4,11.5c-0.2,0.7-0.2,2.5-0.3,4.2c0,2-0.1,3.8-0.2,4c-0.6,0.6-1.4-0.6-2.2-2.3
		c0,0,0,0,0,0c-0.6-1.1-1.1-2.4-1.6-3.5c0,0,0,0,0-0.1c-0.3-0.8-0.6-1.4-0.9-1.9c0,0,0,0,0-0.1c0,0,0,0,0,0v0l-21.1-37.2
		c0-0.1-0.1-0.2-0.1-0.3c-0.3-0.7-2.1-4.6-4.6-9.4c-4.4-8.1-11.2-18.9-17.5-20.9c-0.8-0.2-1.5-0.4-2.2-0.6c-8.8-2.1-12,1.6-12.8,6.9
		c-1,7.2,2.7,17.3,3.8,20c0,0.1,0.1,0.2,0.1,0.2c-0.7-1.5-3.6-8.1-16.2-36.7c-1.2-2.7-2.4-5.1-3.7-7.2c-1.1-1.8-2.1-3.3-3.3-4.7
		c-8.5-10.7-18.3-11.7-24.9-6.8c-0.7,0.5-1.4,1.1-2,1.7c-2.8,2.8-4.7,6.9-5.4,11.8c-0.4,0-0.8,0-1.1,0l-14.6,0.7l0-0.2l-1.7,0.1
		l0,0.2l-14.6,0.7c-8.7,0.4-16.7,2.9-23.8,7c-3.8-5.6-9.5-9.3-18-8.2h0c-4.1,0.8-7.8,3.1-10.4,6.5c-0.1,0.1-0.2,0.2-0.2,0.3
		c-1.7,2.3-2.8,4.9-3.3,7.6c0,0-1.5,8.6-0.3,17.3c1,7.1,1.7,13.1,2,14.8c1,4.6,4.4,34.6,5.3,41.1l1.4,28.3c0-0.2-0.1-0.3-0.1-0.5
		c0-0.1,0-0.1,0-0.1c-0.1-0.4-0.2-0.9-0.3-1.3c0,0,0-0.1,0-0.2c-0.2-0.9-0.4-1.8-0.7-2.6c0-0.1,0-0.1-0.1-0.1
		c-0.1-0.4-0.2-0.7-0.3-1.1c0-0.1-0.1-0.2-0.1-0.2c-0.1-0.3-0.2-0.7-0.4-1c0-0.1-0.1-0.1-0.1-0.2c-0.3-0.8-0.7-1.5-1.1-2.1
		c0,0,0,0,0-0.1c-2.1-3.3-5.5-5.7-11.3-7.1c-2.4-0.6-4.3,0-5.8,1.6c-4.5,4.7-5.7,18-9.3,32.3c0,0.2-0.1,0.4-0.2,0.6
		c-3.1,12.1-13.6,25.5-13.2,33.6c0.9,20.2,4,30.1,5.6,61.7c1.6,31.8,14.2,49.8,26.1,67.6c8.5,12.7,33.8,45.2,41.7,56.3
		c1.2,1.6,2.5,4.4,3.9,8c-7.7,1.7-12,3.4-12,5l1,19.5c-6.1,2-9.4,4.1-9.3,6.1l5.1,103.5H1456l-5.6-113.7v-0.1
		c-0.1-1.9-3.2-3.5-8.6-4.8l-1-19.9c-0.1-1-1.9-1.9-5.3-2.7c-3.4-0.8-8.3-1.3-14.5-1.8c-0.6-5.4-1-8.7-1-8.7
		c0.2-2.9,0.2-32.5,2.4-39.2C1424.6,1359.5,1458.8,1238.5,1463.3,1220.6z M1247.5,1266.9C1247.5,1266.9,1247.5,1266.9,1247.5,1266.9
		c0,0.2-0.1,0.3-0.1,0.4c-0.1,0.2-0.1,0.3-0.1,0.2c-2.1-3.1-5.6-18.3-8.5-28.3c2.6,6.9,5.8,13.5,9.5,19.8
		C1248,1262.9,1247.7,1265.7,1247.5,1266.9z"/>
	<g>
		<g>
			<path class="st1" d="M1357.5,1096.6c0,0-10.2,99.3-20.1,161.8H1249c-17.7-23-28.2-51.8-28.2-83.1v-78.7
				c0-29.2,23.7-52.9,52.9-52.9h30.9C1333.9,1043.7,1357.5,1067.4,1357.5,1096.6z"/>
			<rect x="1288.4" y="1043.5" class="st10" width="1.7" height="9"/>
			<ellipse class="st10" cx="1289.2" cy="1116.3" rx="18" ry="65"/>
			<g>
				<path class="st11" d="M1294.8,1060h-11.1c-1.5,0-2.7,1.2-2.7,2.7v42.8c0,1.5,1.2,2.7,2.7,2.7h11.1c1.5,0,2.7-1.2,2.7-2.7v-42.8
					C1297.4,1061.2,1296.2,1060,1294.8,1060z"/>
				<rect x="1283.8" y="1060" class="st12" width="10.7" height="48.1"/>
				<circle class="st1" cx="1289.6" cy="1126" r="7.7"/>
				<rect x="1283.8" y="1062" class="st13" width="10.7" height="5.7"/>
				<rect x="1283.8" y="1071.6" class="st13" width="10.7" height="5.7"/>
				<rect x="1283.8" y="1081.2" class="st13" width="10.7" height="5.7"/>
				<rect x="1283.8" y="1090.8" class="st13" width="10.7" height="5.7"/>
				<rect x="1283.8" y="1100.4" class="st13" width="10.7" height="5.7"/>
			</g>
		</g>
		<g>
			<g>
				<ellipse class="st14" cx="1325.6" cy="1406.9" rx="94.8" ry="8.9"/>
				<path class="st15" d="M1452.8,1210.1c-5.5,17.7-45.6,136.8-48.2,143.6c-2.5,6.7-4,36.2-4.3,39.1c0,0.2,6.9,105.2,5.2,105.1
					l-140.1-3.3c-1.5,0-2.7-1.2-2.8-2.7c-0.5-6.7-15-84.8-23.1-97.5c-7.3-11.4-31-45.2-38.8-58.3c-11-18.5-22.7-37-22.7-68.9
					c0-31.6-2.6-41.7-2.5-61.9c0-8.1,11.2-21,14.9-32.9c0.1-0.2,0.1-0.4,0.2-0.6c4.4-14.2,6.2-27.3,10.9-31.8
					c1.6-1.5,3.5-2.1,5.9-1.3c15.7,4.7,12.7,15.7,15.4,32.4c2.6,16,2.2,37.4,2.7,38.6c2.6,6.3,6.6,32.2,9.3,36.5
					c0.6,1,5.7-35-1.5-60.4c-4.7-16.8-11.9-53.9-12.3-58.2c-0.6-6.5-2.5-36.6-3.3-41.3c-0.3-1.7-0.6-7.7-1.3-14.8
					c-0.8-8.8,1.1-17.3,1.1-17.3c0.6-2.7,1.9-5.3,3.6-7.5c0.1-0.1,0.2-0.2,0.3-0.3c2.8-3.3,6.6-5.5,10.7-6c0,0,0,0,0,0
					c8.6-0.6,14.1,3.4,17.7,9.3c0,0,0,0,0,0c4.8,7.9,6.2,19.1,7.4,26.3c2.1,12.5,15.7,41.3,18.5,58.9c2.8,17.4,12.2,51.2,22,56
					c0.2,0.1,0.4,0.2,0.7,0.2c1.9,0.4,10.7,1.8,13.5-3.2c1.8-3.2,6.4-41.5,5-73.7c-1.1-25.9-7.8-45.4-10.7-58.1
					c-2.4-10.4,0.4-19.1,5.5-23.9c0.7-0.6,1.3-1.1,2.1-1.6c6.8-4.5,16.6-3.1,24.6,8c1,1.5,2.1,3.1,3,4.9c1.2,2.2,2.3,4.6,3.4,7.4
					c11.2,29.2,13.8,35.9,14.4,37.4c0-0.1,0-0.2-0.1-0.2c-0.9-2.8-4.1-13-2.8-20.1c1-5.3,4.4-8.8,13.1-6.2c0.7,0.2,1.4,0.4,2.1,0.7
					c6.2,2.3,12.5,13.4,16.5,21.7c2.3,4.9,3.9,8.9,4.2,9.6c0,0.1,0.1,0.2,0.1,0.3l19.2,38.2c0,0,0,0,0,0c0,0,0,0,0,0c0,0,0,0,0,0.1
					c0.2,0.4,0.5,1.1,0.8,1.9c0,0,0,0,0,0.1c0.4,1.1,0.9,2.5,1.4,3.6c0,0,0,0,0,0.1c0.7,1.7,1.5,3,2.1,2.4c0.1-0.1,0.2-2,0.4-4
					c0.1-1.7,0.3-3.4,0.5-4.1c1.6-5.5,7.1-11.7,12.9-10.9c4.1,0.6,8.8,4.9,14,16.1c2.7,5.8,5.4,13.4,8.3,23.3c0,0.1,0,0.1,0,0.2
					C1452.3,1162.7,1455.5,1201.2,1452.8,1210.1z"/>
				<g>
					<ellipse class="st16" cx="1325" cy="1432" rx="103.8" ry="13.3"/>
				</g>
				<path class="st17" d="M1244.1,1068.3c2.7-0.2,4.6-2.9,4.4-6.1l-0.3-4.3c-0.7-9-7.4-15.8-14.9-15.2l0,0
					c-7.5,0.6-13.1,8.3-12.4,17.3l0.3,4.3c0.2,3.2,2.6,5.6,5.3,5.4L1244.1,1068.3z"/>
				<path class="st17" d="M1210.5,1148.8c-3.7,14-13.6,20.4-20,23.1c4.4-14.2,6.2-27.3,10.9-31.8
					C1208,1141,1211.9,1143.6,1210.5,1148.8z"/>
				<path class="st18" d="M1368.3,1201c0,0,0,0-0.8-2.5c-0.8-2.5-1.3-14.7-1.3-17.3c0-2.5,3-54.3,3-65.3s-10-27.3-10-27.3s0,0,0-0.1
					c0,0,0,0,0,0c0,0,0,0,0,0c0-0.1-0.1-0.2-0.1-0.4c-0.9-2.8-4.1-13-2.8-20.1c2.4,7.7,7.7,22.2,7.7,22.2s6.9,17.6,8.2,20.2
					C1373.4,1112.7,1368.3,1201,1368.3,1201z"/>
				<path class="st18" d="M1421.4,1159.1c-0.2,2.1-3.9,27.6-5.1,32c-0.7,2.6-5.6,35.6-6.3,33.9c-0.6-1.7-1.7-10.7-1.5-15.6
					c0.2-4.8,10.3-53.5,9.9-57.1c-0.3-2.2-2.8-9.4-4.8-14.5c0.7,1.7,1.5,3,2.1,2.4c0.1-0.1,0.2-2,0.4-4c1.5,2.6,3.1,5.3,3.8,7.1
					C1422.4,1149.5,1421.5,1157,1421.4,1159.1z"/>
				<path class="st17" d="M1387.9,1084.1c-20.4-6.6-25.1-13.3-23.8-18.2c0.5-2.1,2.7-3.4,5.2-4.2c0.7,0.2,1.4,0.4,2.1,0.7
					C1377.6,1064.7,1383.9,1075.7,1387.9,1084.1z"/>
				<path class="st17" d="M1341.4,1043.5c-5.9-0.4-11.7-1.6-16.9-2.6c-9.5-1.7-12-4.7-12.8-6.5c-0.4-0.9,0.6-2.1,2-3.8
					c6.8-4.5,16.6-3.1,24.6,8C1339.4,1040.1,1340.4,1041.7,1341.4,1043.5z"/>
				<path class="st17" d="M1443.6,1137.4c-4.3-0.2-8.4-2.9-12-4.4c-4-1.7-6.4-5.2-5.5-8.2c0.4-1.4,1.7-2.6,3.5-3.5
					C1433.7,1121.9,1438.4,1126.2,1443.6,1137.4z"/>
				<path class="st18" d="M1237,1259.3c0,0-16.9-43.3-18.2-61.9c-0.8-11.3-1.9-38.6-0.7-51.1c3.3,5.9,2.8,14.2,4.5,24.8
					c2.6,16,2.2,37.4,2.7,38.6c2.6,6.3,6.6,32.2,9.3,36.5c0.3,0.5,1.7-8.3,2.2-20.5C1239.1,1243.5,1237,1259.3,1237,1259.3z"/>
				<path class="st18" d="M1278.7,1161.8c-3.6-10.8-6.3-18.7-7.6-26.9c-2.8-17.6-14.2-45.1-16.3-57.6c-1-5.8-6-29.3-5-27.6
					c0,0,0,0,0,0c4.8,7.9,6.2,19.1,7.4,26.3c2.1,12.5,15.7,41.3,18.5,58.9c2.1,13,7.8,35.2,14.7,47.6
					C1292.7,1186.7,1282.7,1173.8,1278.7,1161.8z"/>
				<path class="st18" d="M1385.9,1431.8c-0.2,28.5,0.3,62.6-0.4,65.8l20,0.2c1.7,0-5.2-105-5.2-105.1c0.3-2.9,1.8-32.4,4.3-39.1
					c2.6-6.8,42.7-125.9,48.2-143.6c2-6.6-30.1,69.8-47.6,111.8C1405.2,1321.9,1386.3,1366,1385.9,1431.8z"/>
				<path class="st19" d="M1420.4,1406.9v46.6h-189.7v-46.6c0,4.9,42.5,8.9,94.8,8.9C1378,1415.8,1420.4,1411.8,1420.4,1406.9z"/>
				<path class="st20" d="M1420.4,1406.9v46.6h-56.4V1415C1397.3,1413.7,1420.4,1410.5,1420.4,1406.9z"/>
				<path class="st1" d="M1428.8,1432v125.2h-207.6V1432c0,7.3,46.5,13.3,103.8,13.3S1428.8,1439.4,1428.8,1432z"/>
				<g>
					<path class="st21" d="M1428.8,1432v125.2h-64.7v-112.9C1402,1442.4,1428.8,1437.6,1428.8,1432z"/>
				</g>
			</g>
			<path class="st22" d="M1300.1,1191.5c-0.8-0.1-1.4-0.2-1.8-0.3c-0.2,0-0.5-0.1-0.7-0.2c-9.9-4.8-19.2-38.6-22-56
				c-2.8-17.6-16.4-46.4-18.5-58.9c-0.6-3.6-1.3-8.2-2.3-12.9c-0.9-3.8-2.1-7.6-3.8-11c4.1,1.5,7.1,4.5,9.3,8.2c0,0,0,0,0,0
				c4.8,7.9,6.2,19.1,7.4,26.3c2.1,12.5,15.7,41.3,18.5,58.9C1288.3,1158,1293.6,1178.8,1300.1,1191.5z"/>
		</g>
	</g>
</g>
<g>
	<g>
		<path class="st5" d="M1143.2,986.2v308.7c0,16.9-13.7,30.6-30.6,30.6H421c-15.3,0-28-11.2-30.3-25.9c-0.2-1.5-0.4-3.1-0.4-4.7
			V986.2c0-16.9,13.7-30.6,30.6-30.6h691.6c0.7,0,1.3,0,2,0.1C1130.6,956.7,1143.2,969.9,1143.2,986.2z"/>
		<g>
			<path class="st0" d="M372.5,1277V968.4c0-16.9,13.7-30.6,30.6-30.6h691.6c16.9,0,30.6,13.7,30.6,30.6V1277
				c0,16.9-13.7,30.6-30.6,30.6H403.2C386.3,1307.6,372.5,1293.9,372.5,1277z"/>
			<path class="st6" d="M1094.3,1303.7H403.6c-12.1,0-22-9.8-22-22V964.2c0-12.1,9.8-22,22-22h690.8c12.1,0,22,9.8,22,22v317.5
				C1116.3,1293.9,1106.5,1303.7,1094.3,1303.7z"/>
			<g>
				<rect x="405.1" y="991.4" class="st23" width="36.2" height="19.1"/>
				<rect x="405.1" y="1014.3" class="st23" width="38" height="26.8"/>
				<rect x="405.1" y="1044.9" class="st23" width="49.8" height="26.8"/>
				<rect x="405.1" y="1075.5" class="st23" width="65.2" height="26.8"/>
				<rect x="405.1" y="1106.1" class="st23" width="83.2" height="26.8"/>
				<rect x="405.1" y="1136.7" class="st23" width="49.5" height="26.8"/>
				<rect x="447.6" y="1014.3" class="st23" width="38" height="26.8"/>
				<rect x="459.4" y="1044.9" class="st23" width="38" height="26.8"/>
				<rect x="474.8" y="1075.5" class="st23" width="38" height="26.8"/>
				<rect x="459.2" y="1136.7" class="st23" width="38" height="26.8"/>
				<rect x="501.7" y="1136.7" class="st23" width="38" height="26.8"/>
				<rect x="544.2" y="1136.7" class="st23" width="38" height="26.8"/>
				<rect x="586.8" y="1136.7" class="st23" width="250.6" height="26.8"/>
				<rect x="841.9" y="1136.7" class="st23" width="38" height="26.8"/>
				<rect x="884.5" y="1136.7" class="st23" width="38" height="26.8"/>
				<rect x="927" y="1136.7" class="st23" width="38" height="26.8"/>
				<rect x="969.5" y="1136.7" class="st23" width="38" height="26.8"/>
				<rect x="1012" y="1136.7" class="st23" width="38" height="26.8"/>
				<rect x="1054.6" y="1106.1" class="st23" width="38" height="57.4"/>
				<rect x="492.9" y="1106.1" class="st23" width="38" height="26.8"/>
				<rect x="535.4" y="1106.1" class="st23" width="38" height="26.8"/>
				<rect x="577.9" y="1106.1" class="st23" width="38" height="26.8"/>
				<rect x="620.5" y="1106.1" class="st23" width="38" height="26.8"/>
				<rect x="663" y="1106.1" class="st23" width="38" height="26.8"/>
				<rect x="705.5" y="1106.1" class="st23" width="38" height="26.8"/>
				<rect x="748.1" y="1106.1" class="st23" width="38" height="26.8"/>
				<rect x="790.6" y="1106.1" class="st23" width="38" height="26.8"/>
				<rect x="833.1" y="1106.1" class="st23" width="38" height="26.8"/>
				<rect x="875.6" y="1106.1" class="st23" width="47.1" height="26.8"/>
				<rect x="927.2" y="1106.1" class="st23" width="38" height="26.8"/>
				<rect x="969.7" y="1106.1" class="st23" width="38" height="26.8"/>
				<rect x="1012.3" y="1106.1" class="st23" width="38" height="26.8"/>
				<rect x="517.3" y="1075.5" class="st23" width="38" height="26.8"/>
				<rect x="559.8" y="1075.5" class="st23" width="38" height="26.8"/>
				<rect x="602.4" y="1075.5" class="st23" width="38" height="26.8"/>
				<rect x="644.9" y="1075.5" class="st23" width="38" height="26.8"/>
				<rect x="687.4" y="1075.5" class="st23" width="38" height="26.8"/>
				<rect x="730" y="1075.5" class="st23" width="38" height="26.8"/>
				<rect x="772.5" y="1075.5" class="st23" width="38" height="26.8"/>
				<rect x="815" y="1075.5" class="st23" width="38" height="26.8"/>
				<rect x="857.5" y="1075.5" class="st23" width="38" height="26.8"/>
				<rect x="900.1" y="1075.5" class="st23" width="65.2" height="26.8"/>
				<rect x="969.7" y="1075.5" class="st23" width="38" height="26.8"/>
				<rect x="1012.3" y="1075.5" class="st23" width="38" height="26.8"/>
				<rect x="501.9" y="1044.9" class="st23" width="38" height="26.8"/>
				<rect x="544.5" y="1044.9" class="st23" width="38" height="26.8"/>
				<rect x="587" y="1044.9" class="st23" width="38" height="26.8"/>
				<rect x="629.5" y="1044.9" class="st23" width="38" height="26.8"/>
				<rect x="672" y="1044.9" class="st23" width="38" height="26.8"/>
				<rect x="714.6" y="1044.9" class="st23" width="38" height="26.8"/>
				<rect x="757.1" y="1044.9" class="st23" width="38" height="26.8"/>
				<rect x="799.6" y="1044.9" class="st23" width="38" height="26.8"/>
				<rect x="842.2" y="1044.9" class="st23" width="38" height="26.8"/>
				<rect x="884.7" y="1044.9" class="st23" width="38" height="26.8"/>
				<rect x="927.2" y="1044.9" class="st23" width="38" height="26.8"/>
				<rect x="969.7" y="1044.9" class="st23" width="38" height="26.8"/>
				<rect x="1012.3" y="1044.9" class="st23" width="38" height="26.8"/>
				<rect x="1054.8" y="1044.9" class="st23" width="38" height="57.4"/>
				<rect x="490.2" y="1014.3" class="st23" width="38" height="26.8"/>
				<rect x="532.7" y="1014.3" class="st23" width="38" height="26.8"/>
				<rect x="575.2" y="1014.3" class="st23" width="38" height="26.8"/>
				<rect x="617.8" y="1014.3" class="st23" width="38" height="26.8"/>
				<rect x="660.3" y="1014.3" class="st23" width="38" height="26.8"/>
				<rect x="702.8" y="1014.3" class="st23" width="38" height="26.8"/>
				<rect x="745.3" y="1014.3" class="st23" width="38" height="26.8"/>
				<rect x="787.9" y="1014.3" class="st23" width="38" height="26.8"/>
				<rect x="830.4" y="1014.3" class="st23" width="38" height="26.8"/>
				<rect x="872.9" y="1014.3" class="st23" width="38" height="26.8"/>
				<rect x="915.5" y="1014.3" class="st23" width="49.8" height="26.8"/>
				<g>
					<rect x="969.7" y="1014.3" class="st23" width="38" height="26.8"/>
					<rect x="1012.3" y="1014.3" class="st23" width="38" height="26.8"/>
					<rect x="1054.8" y="1014.3" class="st23" width="38" height="26.8"/>
				</g>
				<rect x="445.8" y="991.4" class="st23" width="36.2" height="19.1"/>
				<rect x="486.5" y="991.4" class="st23" width="36.2" height="19.1"/>
				<rect x="527.3" y="991.4" class="st23" width="36.2" height="19.1"/>
				<rect x="568" y="991.4" class="st23" width="36.2" height="19.1"/>
				<rect x="608.7" y="991.4" class="st23" width="36.2" height="19.1"/>
				<rect x="649.4" y="991.4" class="st23" width="36.2" height="19.1"/>
				<rect x="690.1" y="991.4" class="st23" width="36.2" height="19.1"/>
				<rect x="730.9" y="991.4" class="st23" width="36.2" height="19.1"/>
				<rect x="771.6" y="991.4" class="st23" width="36.2" height="19.1"/>
				<rect x="812.3" y="991.4" class="st23" width="36.2" height="19.1"/>
				<rect x="853" y="991.4" class="st23" width="36.2" height="19.1"/>
				<rect x="893.7" y="991.4" class="st23" width="36.2" height="19.1"/>
				<rect x="934.5" y="991.4" class="st23" width="36.2" height="19.1"/>
				<rect x="975.2" y="991.4" class="st23" width="36.2" height="19.1"/>
				<rect x="1015.9" y="991.4" class="st23" width="36.2" height="19.1"/>
				<rect x="1056.6" y="991.4" class="st23" width="36.2" height="19.1"/>
			</g>
			<path class="st24" d="M834.9,1281.9H663c-2.8,0-5-2.2-5-5v-89.5c0-2.8,2.2-5,5-5h171.9c2.8,0,5,2.2,5,5v89.5
				C839.9,1279.7,837.7,1281.9,834.9,1281.9z"/>
			<path class="st23" d="M1088.5,980.9h-67.9c-2.4,0-4.3-1.9-4.3-4.3v-6c0-2.4,1.9-4.3,4.3-4.3h67.9c2.4,0,4.3,1.9,4.3,4.3v6
				C1092.8,979,1090.9,980.9,1088.5,980.9z"/>
			<g>
				<rect x="427.4" y="937.7" class="st23" width="41.3" height="17.2"/>
				<rect x="1029.2" y="937.7" class="st23" width="41.3" height="17.2"/>
			</g>
			<path class="st0" d="M1152.3,766.1H346.1c-12.8,0-22.4,7.7-20,15.9l41.8,144.7c1.8,6.3,10.2,10.9,20,10.9h722.7
				c9.8,0,18.2-4.6,20-10.9l41.8-144.7C1174.7,773.8,1165.1,766.1,1152.3,766.1z"/>
			<path class="st6" d="M1153.3,783.3L1111.5,928c-0.1,0.3-0.5,0.5-0.9,0.5H387.9c-0.4,0-0.8-0.2-0.9-0.5l-41.7-144.7
				c0-0.1-0.1-0.3,0.2-0.5c0.3-0.2,0.6-0.2,0.7-0.2h806.2c0.2,0,0.4,0,0.7,0.2C1153.4,783,1153.3,783.2,1153.3,783.3z"/>
			<polygon class="st6" points="1111.4,928.5 386.7,928.5 385,922.4 1113.1,922.4 			"/>
			<path class="st6" d="M1172.4,782.1c-0.1,0.4-0.2,0.8-0.4,1.2L1172.4,782.1c2.4-8.3-7.2-16-20-16H346.1c-12.2,0-21.6,7-20.2,14.9
				l-0.8-2.9c-2.6-9,1.7-18.8,10.4-22.4c5.5-2.3,10.7-2.6,10.7-2.6H1150C1150,753.1,1180.1,755,1172.4,782.1z"/>
		</g>
		<path class="st5" d="M1116.3,964.2v58.7H473.1l-78.7-78.7c2.8-1.3,5.9-2,9.2-2h690.8C1106.5,942.2,1116.3,952.1,1116.3,964.2z"/>
		<g>
			<path class="st10" d="M1153.2,783.3L1111.4,928c-0.1,0.3-0.5,0.5-0.9,0.5H388c-0.4,0-0.8-0.2-0.9-0.5l-41.7-144.7
				c0-0.1-0.1-0.3,0.2-0.5c0.3-0.2,0.6-0.2,0.7-0.2h806c0.2,0,0.4,0,0.7,0.2C1153.3,783,1153.2,783.2,1153.2,783.3z"/>
			<g>
				<polygon class="st25" points="727.5,793.4 395.6,793.4 394.2,789.1 727.9,789.1 				"/>
				<polygon class="st25" points="847,804.2 399.1,804.2 397.7,799.9 848,799.9 				"/>
				<polygon class="st25" points="641.9,814.7 402.5,814.7 401.1,810.5 641.8,810.5 				"/>
				<polygon class="st25" points="725,824.9 469.9,824.9 468.9,820.8 725.3,820.8 				"/>
				<polygon class="st25" points="660.9,834.8 472.4,834.8 471.4,830.9 660.9,830.9 				"/>
				<polygon class="st25" points="697.8,844.5 474.7,844.5 473.8,840.7 698,840.7 				"/>
				<polygon class="st25" points="755,854 477,854 476.1,850.2 755.5,850.2 				"/>
				<polygon class="st25" points="721.2,872.2 495.7,872.2 494.9,868.6 721.5,868.6 				"/>
				<polygon class="st25" points="720.5,881 461.3,881 460.4,877.5 720.8,877.5 				"/>
				<polygon class="st25" points="685.1,889.6 426.8,889.6 425.7,886.2 685.2,886.2 				"/>
				<polygon class="st25" points="771.1,898 429.6,898 428.5,894.7 771.6,894.7 				"/>
				<polygon class="st25" points="877.9,898 811.4,898 812.1,894.7 878.9,894.7 				"/>
				<polygon class="st25" points="604.1,906.2 432.2,906.2 431.2,902.9 603.9,902.9 				"/>
				<polygon class="st25" points="717.9,914.2 564.8,914.2 564.3,911 718.1,911 				"/>
				<polygon class="st25" points="717.2,922 565.9,922 565.4,918.9 717.5,918.9 				"/>
			</g>
		</g>
	</g>
	<g>
		<path class="st5" d="M669.4,1390.6c-0.8,1.3-1.7,3.2-2.7,5.7h8v30.7h3.9l7.1,130.2H489.4v-130.2h3.9v-30.7h13.3
			c0.4-5.2,0.6-8.4,0.6-8.4c-0.3-2.9-1.6-32.7-4.1-39.5c-0.6-1.7-3.6-10.5-7.7-23H713c-1.3,2.2-2.7,4.5-4,6.7
			C701,1345.3,676.9,1379.2,669.4,1390.6z"/>
		<path class="st26" d="M711.3,1200.4c0,20.4-2.7,30.5-2.9,62.4c-0.1,16.6-3.4,29.6-8.1,40.9H464.1c-12.7-38.5-29.3-89.4-32.7-100.5
			c-2.7-9,0.8-47.8,1.3-49.6c0,0,0-0.1,0-0.1c2.9-10,5.8-17.6,8.5-23.4c5.3-11.3,10.1-15.6,14.2-16.2c5.9-0.8,11.4,5.5,12.9,11
			c0.2,0.7,0.3,2.5,0.5,4.2c0.1,2,0.2,3.9,0.4,4c0.6,0.6,1.4-0.7,2.2-2.4c0,0,0,0,0,0c0.5-1.2,1-2.5,1.4-3.6c0,0,0,0,0,0
			c0.3-0.8,0.6-1.5,0.8-1.9c0,0,0,0,0-0.1c0,0,19.7-38.4,19.7-38.4c0-0.1,0.1-0.2,0.1-0.3c0.3-0.8,1.9-4.7,4.3-9.7
			c4.1-8.4,10.5-19.5,16.8-21.8c0.7-0.3,1.5-0.5,2.2-0.7c8.8-2.5,12.2,1.1,13.2,6.4c1.3,7.2-2,17.5-3,20.3c0,0.1-0.1,0.2-0.1,0.2
			c0.6-1.5,3.2-8.3,14.8-37.7c1.1-2.7,2.2-5.2,3.4-7.4c1-1.8,2-3.4,3.1-4.9c8.1-11.1,18-12.5,24.8-7.9c0.7,0.5,1.4,1,2.1,1.6
			c5.1,4.9,7.8,13.6,5.4,24.1c-3,12.9-9.9,32.4-11.2,58.6c-0.9,18.1,0.3,25.4,0.3,20.3c0.1-11,10.2-27.5,10.2-27.5s0,0,0-0.1
			c0-0.1,0.1-0.2,0.1-0.3c0.7-1.7,3.4-8.7,14.7-37.6c1.1-2.7,2.2-5.2,3.4-7.4c1-1.8,2-3.4,3.1-4.9c8.1-11.1,18-12.5,24.9-7.9
			c0.7,0.5,1.4,1,2.1,1.7c5.1,4.8,7.9,13.6,5.4,24.1c-3,12.9-9.9,32.4-11.2,58.6c-1.1,21.9,0.5,46.7,2.3,61.4
			c0.8,7.1,5.1,26.4,7.9,31.7c0.8,1.5,1.6,2.9,2.5,4.2c0.2,0.3,0.4,0.6,0.6,0.9c0.3,0.4,0.6,0.9,0.9,1.3c0.1,0.2,0.2,0.3,0.3,0.5
			c6.4,8.9,14.1,15,14.5,14.7c2.7-4.3,7-30.4,9.6-36.8c1.5-3.5,0.5-9.6,0.7-13.4c0.4-8.4,1.5-16.7,2.3-25c0.7-7.7,0.7-16.1,4.2-23.2
			c2.7-5.6,12.5-14.7,18.4-7.8c1.6,1.9,2.3,4.3,3,6.7c2.4,8.3,4.2,17.1,7.1,25.4c1,2.8,2.1,5.6,3.4,8.2
			C703.6,1182.8,711.4,1191.7,711.3,1200.4z"/>
		<g>
			<g>
				<ellipse class="st14" cx="553.1" cy="1384.3" rx="92.8" ry="8.7"/>
				<path class="st15" d="M700.4,1188c0,20.4-2.7,30.6-2.9,62.4c-0.2,32.1-12.2,50.8-23.4,69.3c-8,13.2-32.1,47.1-39.6,58.5
					c-3.3,5-7.6,20.4-11.7,37.5H469.4c1.4-21.5,2.8-40.1,2.8-40.3c-0.3-2.9-1.6-32.7-4.1-39.5c-2.5-6.9-42.2-127.3-47.6-145.2
					c-2.7-9,0.8-47.8,1.3-49.6c0,0,0-0.1,0-0.1c2.9-10,5.8-17.6,8.5-23.4c5.3-11.3,10.1-15.6,14.2-16.2c5.9-0.8,11.4,5.5,13,11
					c0.2,0.7,0.3,2.5,0.5,4.2c0.1,2,0.2,3.9,0.4,4c0.6,0.6,1.4-0.7,2.2-2.4c0,0,0,0,0,0c0.5-1.2,1-2.5,1.4-3.6c0,0,0,0,0-0.1
					c0.3-0.8,0.6-1.5,0.8-1.9c0,0,0,0,0-0.1c0,0,0,0,0,0c0,0,0,0,0,0l19.7-38.4c0-0.1,0.1-0.2,0.1-0.3c0.3-0.8,1.9-4.8,4.3-9.7
					c4.1-8.4,10.5-19.5,16.8-21.8c0.8-0.3,1.5-0.5,2.2-0.7c8.8-2.5,12.2,1.1,13.1,6.4c1.3,7.2-2,17.5-3,20.3c0,0.1-0.1,0.2-0.1,0.2
					c0.6-1.6,3.2-8.3,14.8-37.7c1.1-2.7,2.2-5.2,3.4-7.4c1-1.8,2-3.4,3.1-4.9c8.1-11.1,18-12.5,24.9-7.9c0.7,0.5,1.4,1,2.1,1.6
					c5.1,4.9,7.8,13.6,5.4,24.1c-3,12.9-9.9,32.4-11.2,58.6c-0.9,18.1,0.3,25.4,0.3,20.3c0.1-11,10.2-27.5,10.2-27.5s0,0,0-0.1
					c0,0,0,0,0,0c0,0,0,0,0,0c0,0,0-0.1,0.1-0.2c0.7-1.7,3.4-8.7,14.7-37.6c1.1-2.8,2.2-5.2,3.4-7.4c1-1.8,2-3.4,3.1-4.9
					c8.1-11.1,18-12.5,24.9-7.9c0.7,0.5,1.4,1,2.1,1.7c5.1,4.8,7.9,13.6,5.4,24.1c-3,12.9-9.8,32.5-11.2,58.6
					c-1.1,21.9,0.5,46.7,2.3,61.4c0.8,7.1,5.1,26.4,7.9,31.7c6.7,12.6,18.5,22.2,18.9,21.7c2.7-4.3,6.9-30.4,9.6-36.8
					c0.5-1.2,0.3-22.9,3-39c2.8-16.8-0.1-28,15.7-32.6c2.4-0.7,4.3-0.1,5.9,1.4c4.7,4.6,6.5,17.9,10.8,32.2c0.1,0.2,0.1,0.4,0.2,0.6
					C689.3,1166.8,700.5,1179.9,700.4,1188z"/>
				<path class="st27" d="M700.4,1188c0,20.4-2.7,30.6-2.9,62.4c-0.2,32.1-12.2,50.8-23.4,69.3c-8,13.2-32.1,47.1-39.6,58.5
					c-3.3,5-7.6,20.4-11.7,37.5H469.4c0.2-3.2,0.4-6.3,0.6-9.3h73.1c35.9,0,69.3-18.1,89.1-48c0,0,0.1-0.1,0.1-0.1
					c10.3-15,26.2-37.7,32.4-47.9c11.2-18.6,23.2-37.2,23.4-69.3c0.2-31.9,2.9-42.1,2.9-62.4c0-8.1-11.1-21.2-14.8-33.2
					c-0.1-0.2-0.1-0.4-0.2-0.6c-2.8-9.3-4.5-18.2-6.7-24.5c2.1-0.4,3.8,0.2,5.2,1.6c4.7,4.6,6.5,17.9,10.8,32.2
					c0.1,0.2,0.1,0.4,0.2,0.6C689.3,1166.8,700.5,1179.9,700.4,1188z"/>
				<path class="st27" d="M641.2,1227.1c-0.2,5-0.6,8.8-1.4,9.9c-0.3,0.5-18.3-21-25-36.5c-2.4-5.6-7.1-24.6-7.9-31.7
					c-1.7-14.8-3.4-39.5-2.3-61.4c1.3-26.1,8.2-45.7,11.2-58.6c1.9-7.9,0.8-14.9-2.1-19.9c0.4,0.2,0.9,0.5,1.3,0.8
					c0.7,0.5,1.4,1,2.1,1.7c5.1,4.9,7.9,13.6,5.4,24.1c-3,12.9-9.9,32.5-11.2,58.6c-1.1,21.9,0.6,46.7,2.3,61.4
					c0.8,7.1,5.1,26.4,7.9,31.7c6.7,12.6,18.5,22.2,18.8,21.7C640.6,1228.5,640.9,1227.9,641.2,1227.1z"/>
				<path class="st17" d="M665.4,1130.7c3.6,14.2,13.6,20.6,20,23.4c-4.3-14.3-6.1-27.6-10.8-32.2
					C668,1122.9,664.1,1125.5,665.4,1130.7z"/>
				<path class="st27" d="M516,1068.4C515.9,1068.5,515.9,1068.5,516,1068.4c-0.1,0.1-0.1,0.2-0.1,0.2c0,0.1,0,0.1-0.1,0.2
					c0,0,0,0,0,0c0,0,0,0,0,0c0,0.1,0,0.1,0,0.1s-10.2,16.5-10.2,27.5c-0.1,11,2.5,63.3,2.5,65.9c0,2.6-0.5,14.9-1.4,17.4
					c-0.9,2.6-0.9,2.6-0.9,2.6s0,0,0,0c-0.4-0.7-5.9-10.5-6.5-23.5c-1.2-26.6-2.9-66.4-2.1-68.1c1.3-2.5,8.4-20.3,8.4-20.3
					s6.3-16.4,10.5-27.8c0.7,0.6,1.3,1.4,1.7,2.3c0.5,1,0.8,2.1,1,3.2C520.2,1055.3,516.9,1065.6,516,1068.4z"/>
				<path class="st27" d="M463.5,1206.3c0,0.1-0.1,0.1-0.1,0c-1.2-0.8-10.2-36.6-10.8-39.1c-1.1-4.4-4.7-30.1-4.9-32.3
					c-0.1-2.2-1-9.7,1.5-15.8c0.4-1.1,3.6-6.1,6.4-10.7c0.3,0.5,0.6,1,0.8,1.5c0.4,0.9,0.8,1.7,1,2.6c0.2,0.7,0.3,2.5,0.5,4.2
					c0.1,2,0.2,3.9,0.4,4c0.6,0.6,1.4-0.7,2.2-2.4c-2,5.2-4.7,12.4-5,14.6c-0.4,3.6,9.4,52.8,9.6,57.7
					C465.3,1195.4,464.2,1204.6,463.5,1206.3z"/>
				<path class="st27" d="M558.6,1091.1L558.6,1091.1c1.8-24.2,8.1-42.4,10.9-54.5c2.4-10.5-0.3-19.3-5.4-24.1
					c-0.7-0.6-1.3-1.2-2.1-1.7c-0.2-0.1-0.4-0.3-0.7-0.4c3.2,5.1,4.5,12.3,2.5,20.6c-3,12.9-9.9,32.4-11.2,58.6
					c-0.8,15.8,0,23.3,0.2,21.6c-0.2,6.9-1,38.8,4.1,63.3l2-55.6l-0.1-7.1c-0.2,1.3-0.3,2.5-0.3,3.7c0,5.1-1.2-2.1-0.3-20.3
					C558.4,1093.8,558.5,1092.4,558.6,1091.1z M553,1111c0-0.8,0-1.2,0-1.2C553,1110.3,553,1110.7,553,1111z"/>
				<path class="st17" d="M486.8,1064.2c20.6-6.5,25.4-13.2,24.1-18.2c-0.5-2.1-2.7-3.4-5.2-4.3c-0.7,0.2-1.4,0.4-2.2,0.7
					C497.4,1044.7,490.9,1055.8,486.8,1064.2z"/>
				<path class="st17" d="M534.1,1023.6c5.9-0.3,11.8-1.6,17-2.5c9.6-1.7,12.1-4.7,13-6.4c0.4-0.9-0.6-2.1-2-3.8
					c-6.9-4.6-16.7-3.2-24.9,7.9C536.1,1020.2,535.1,1021.8,534.1,1023.6z"/>
				<path class="st17" d="M430.3,1117.6c4.3-0.2,8.5-2.8,12.1-4.4c4.1-1.7,6.5-5.2,5.6-8.2c-0.4-1.4-1.7-2.6-3.5-3.5
					C440.4,1102,435.6,1106.4,430.3,1117.6z"/>
				<path class="st17" d="M587.2,1042.5c5.9-0.3,11.8-1.6,17-2.5c9.6-1.7,12.1-4.7,13-6.4c0.4-0.9-0.6-2.1-2-3.8
					c-6.9-4.6-16.7-3.2-24.9,7.9C589.2,1039.1,588.1,1040.7,587.2,1042.5z"/>
				<path class="st18" d="M505.8,1182.3c0,0,0,0,0.9-2.5c0.9-2.5,1.4-14.9,1.4-17.4c0-2.5-2.6-54.8-2.5-65.9
					c0.1-11,10.2-27.5,10.2-27.5s0,0,0-0.1c0,0,0,0,0,0c0,0,0,0,0,0c0-0.1,0.1-0.2,0.1-0.4c1-2.8,4.2-13.1,3-20.3
					c-2.5,7.8-7.9,22.3-7.9,22.3s-7.1,17.7-8.4,20.3C501.3,1093.3,505.8,1182.3,505.8,1182.3z"/>
				<path class="st18" d="M452.6,1139.7c0.1,2.1,3.8,27.9,4.9,32.3c0.7,2.6,5.4,35.9,6.1,34.3c0.6-1.7,1.8-10.8,1.6-15.7
					c-0.2-4.9-10-54-9.6-57.7c0.3-2.2,2.9-9.4,5-14.6c-0.8,1.7-1.5,3-2.2,2.4c-0.1-0.1-0.2-2-0.4-4c-1.5,2.6-3.2,5.3-3.9,7.2
					C451.6,1130,452.4,1137.6,452.6,1139.7z"/>
				<path class="st18" d="M653,1153.2c-2.7,16.1-2.5,37.8-3,39c-2.7,6.4-6.9,32.5-9.6,36.8c-0.3,0.5-9.7-7-16.6-17.8
					c4.5,16.7,16,25.9,16,25.9s15.4-38.6,16.8-57.4c0.9-11.4,2.2-38.9,1-51.5C654.3,1134.1,654.8,1142.5,653,1153.2z"/>
				<path class="st18" d="M558.6,1115.4c0,2.6-0.3,2-0.5-1.7l-0.4,2.4c-0.5,26.2-0.6,58.3-0.6,58.3s0,0,1-2.5
					c1-2.5,2.2-14.8,2.4-17.3c0.1-1.9,0.3-31.3,0.7-50.8C559.7,1107.8,558.6,1111.9,558.6,1115.4z"/>
			</g>
			<g>
				<ellipse class="st16" cx="552.5" cy="1408.9" rx="101.5" ry="13"/>
				<path class="st19" d="M645.8,1384.3v45.6H460.3v-45.6c0,4.8,41.5,8.7,92.7,8.7C604.3,1393,645.8,1389.1,645.8,1384.3z"/>
				<path class="st20" d="M645.8,1384.3v45.6h-55.1v-37.6C623.2,1390.9,645.8,1387.8,645.8,1384.3z"/>
				<path class="st1" d="M654,1408.9c0,7.2-45.5,13-101.5,13s-101.5-5.8-101.5-13l0,148.4H654L654,1408.9z"/>
				<path class="st21" d="M654,1408.9v148.4h-63.3v-136.3C627.8,1419,654,1414.3,654,1408.9z"/>
			</g>
		</g>
	</g>
</g>
<g>
	
		<ellipse transform="matrix(0.8997 -0.4366 0.4366 0.8997 -205.9094 761.9429)" class="st5" cx="1554.7" cy="828.9" rx="182" ry="182"/>
	
		<ellipse transform="matrix(0.8997 -0.4366 0.4366 0.8997 -197.2075 748.0476)" class="st6" cx="1528.8" cy="803.1" rx="182" ry="182"/>
	<path class="st28" d="M1470.1,682c-66.9,32.4-94.8,112.9-62.3,179.8c32.4,66.9,112.9,94.8,179.8,62.3
		c66.8-32.4,94.7-112.9,62.3-179.8C1617.4,677.5,1536.9,649.6,1470.1,682z M1583.6,916c-62.4,30.3-137.5,4.2-167.8-58.1
		c-30.3-62.4-4.2-137.5,58.2-167.8c62.4-30.3,137.5-4.2,167.7,58.1C1672,810.6,1646,885.7,1583.6,916z"/>
	<path class="st5" d="M1660.3,865.6c-16.8,49.4-67.3,77.9-117.1,68.6l-9.7,28.4c-1.8,5.4-6.9,8.8-12.3,8.8c-1.4,0-2.8-0.2-4.2-0.7
		c-6.8-2.3-10.4-9.7-8.1-16.4l9.5-27.9c-47.6-22-71.9-76.8-54.7-127.6c18.4-54.2,77.4-83.3,131.6-64.8
		C1649.7,752.4,1678.8,811.3,1660.3,865.6z"/>
	<g>
		
			<ellipse transform="matrix(0.3991 -0.9169 0.9169 0.3991 185.2489 1886.0961)" class="st29" cx="1531.6" cy="801.7" rx="97.6" ry="97.6"/>
		<g>
			<path class="st30" d="M1488.2,731.3c5.1-1.4,23.1-12.4,35.2-10.7c2.8,0.4,6.6,2.2,10.4,4.5c5.6,3.3,10.6,7.6,14.9,12.5
				c17,19.6,40.1,38,70.7,48.7c-6.5-36.7-35.7-66.9-74.5-72.8c-4.8-0.7-9.5-1-14.2-1c-0.1,0-0.1,0-0.2,0c-0.2,0-0.4,0-0.5,0
				c0,0,0,0,0,0c-13.2,0.2-26.5,3.3-39,9.6c-5.2,2.6-10,5.7-14.4,9.1C1480.5,731.9,1484.9,732.2,1488.2,731.3z"/>
			
				<ellipse transform="matrix(0.9666 -0.2562 0.2562 0.9666 -132.5206 418.7707)" class="st29" cx="1540.8" cy="717.9" rx="4.5" ry="4.5"/>
			
				<ellipse transform="matrix(0.9666 -0.2563 0.2563 0.9666 -135.8938 422.5525)" class="st29" cx="1553.5" cy="732.7" rx="4.5" ry="4.5"/>
			
				<ellipse transform="matrix(0.9666 -0.2563 0.2563 0.9666 -138.386 425.1124)" class="st29" cx="1562.1" cy="743.6" rx="4.5" ry="4.5"/>
			
				<ellipse transform="matrix(0.9666 -0.2563 0.2563 0.9666 -140.1615 427.6049)" class="st29" cx="1570.7" cy="751.6" rx="4.5" ry="4.5"/>
			
				<ellipse transform="matrix(0.9666 -0.2562 0.2562 0.9666 -142.4572 431.8144)" class="st29" cx="1585.8" cy="762.6" rx="4.5" ry="4.5"/>
			
				<ellipse transform="matrix(0.9666 -0.2563 0.2563 0.9666 -144.2189 436.0526)" class="st29" cx="1601.1" cy="771.4" rx="4.5" ry="4.5"/>
			
				<ellipse transform="matrix(0.9666 -0.2563 0.2563 0.9666 -140.2786 436.6)" class="st29" cx="1605.2" cy="756.6" rx="2.3" ry="2.3"/>
			
				<ellipse transform="matrix(0.9666 -0.2563 0.2563 0.9666 -141.8581 437.2469)" class="st29" cx="1606.9" cy="763" rx="2.3" ry="2.3"/>
			
				<ellipse transform="matrix(0.9666 -0.2563 0.2563 0.9666 -142.2506 434.2404)" class="st29" cx="1595.2" cy="763" rx="2.3" ry="2.3"/>
			
				<ellipse transform="matrix(0.9666 -0.2562 0.2562 0.9666 -139.2912 429.6803)" class="st29" cx="1579.3" cy="749.4" rx="2.3" ry="2.3"/>
			
				<ellipse transform="matrix(0.9666 -0.2563 0.2563 0.9666 -136.7051 428.8789)" class="st29" cx="1577.4" cy="739" rx="2.3" ry="2.3"/>
			
				<ellipse transform="matrix(0.9666 -0.2562 0.2562 0.9666 -136.9328 433.0456)" class="st29" cx="1593.3" cy="742" rx="2.3" ry="2.3"/>
			
				<ellipse transform="matrix(0.9666 -0.2562 0.2562 0.9666 -142.9256 437.9915)" class="st29" cx="1609.3" cy="767.5" rx="2.3" ry="2.3"/>
			
				<ellipse transform="matrix(0.9666 -0.2563 0.2563 0.9666 -143.8196 433.4899)" class="st29" cx="1591.5" cy="768.6" rx="2.3" ry="2.3"/>
			
				<ellipse transform="matrix(0.9666 -0.2563 0.2563 0.9666 -141.831 429.2353)" class="st29" cx="1576.2" cy="758.9" rx="2.3" ry="2.3"/>
			
				<ellipse transform="matrix(0.9666 -0.2563 0.2563 0.9666 -135.8597 424.9725)" class="st29" cx="1562.8" cy="733.8" rx="2.3" ry="2.3"/>
			
				<ellipse transform="matrix(0.9666 -0.2562 0.2562 0.9666 -137.4013 427.141)" class="st29" cx="1570.4" cy="740.8" rx="2.3" ry="2.3"/>
			
				<ellipse transform="matrix(0.9666 -0.2563 0.2563 0.9666 -134.6625 429.4901)" class="st29" cx="1580.7" cy="731.5" rx="2.3" ry="2.3"/>
			
				<ellipse transform="matrix(0.9666 -0.2562 0.2562 0.9666 -135.4127 431.4067)" class="st29" cx="1587.8" cy="735.4" rx="2.3" ry="2.3"/>
			
				<ellipse transform="matrix(0.9666 -0.2563 0.2563 0.9666 -133.1039 425.0138)" class="st29" cx="1564.3" cy="723.3" rx="2.3" ry="2.3"/>
			
				<ellipse transform="matrix(0.9666 -0.2563 0.2563 0.9666 -133.6614 420.9749)" class="st29" cx="1548.6" cy="723.4" rx="2.3" ry="2.3"/>
			
				<ellipse transform="matrix(0.9666 -0.2563 0.2563 0.9666 -135.6865 406.5378)" class="st29" cx="1492.1" cy="723.9" rx="1.6" ry="1.6"/>
			
				<ellipse transform="matrix(0.9666 -0.2563 0.2563 0.9666 -136.3133 407.2155)" class="st29" cx="1494.4" cy="726.7" rx="1.6" ry="1.6"/>
			
				<ellipse transform="matrix(0.9666 -0.2563 0.2563 0.9666 -132.3567 416.8418)" class="st29" cx="1533.3" cy="716.3" rx="2.3" ry="2.3"/>
			
				<ellipse transform="matrix(0.9666 -0.2563 0.2563 0.9666 -133.1632 415.4715)" class="st29" cx="1527.7" cy="718.7" rx="2.3" ry="2.3"/>
			
				<ellipse transform="matrix(0.9666 -0.2563 0.2563 0.9666 -133.3148 411.5662)" class="st29" cx="1512.6" cy="717.3" rx="2.3" ry="2.3"/>
			
				<ellipse transform="matrix(0.9666 -0.2563 0.2563 0.9666 -134.2977 409.5334)" class="st29" cx="1504.3" cy="720.1" rx="2.3" ry="2.3"/>
			
				<ellipse transform="matrix(0.9666 -0.2562 0.2562 0.9666 -137.7695 423.0625)" class="st29" cx="1554.6" cy="740.2" rx="1.5" ry="1.5"/>
			
				<ellipse transform="matrix(0.9666 -0.2562 0.2562 0.9666 -134.5583 424.0481)" class="st29" cx="1560" cy="728.4" rx="1.5" ry="1.5"/>
			
				<ellipse transform="matrix(0.9666 -0.2562 0.2562 0.9666 -137.425 404.9629)" class="st29" cx="1485.3" cy="729.8" rx="1.5" ry="1.5"/>
			
				<ellipse transform="matrix(0.9666 -0.2562 0.2562 0.9666 -137.5491 404.0054)" class="st29" cx="1481.6" cy="729.8" rx="1.5" ry="1.5"/>
			
				<ellipse transform="matrix(0.9666 -0.2562 0.2562 0.9666 -138.4215 428.3882)" class="st29" cx="1574.7" cy="745.4" rx="1.5" ry="1.5"/>
			
				<ellipse transform="matrix(0.9666 -0.2563 0.2563 0.9666 -140.8556 430.3869)" class="st29" cx="1580.9" cy="755.6" rx="1.5" ry="1.5"/>
			
				<ellipse transform="matrix(0.9666 -0.2563 0.2563 0.9666 -142.4215 435.864)" class="st29" cx="1601.3" cy="764.4" rx="1.5" ry="1.5"/>
			
				<ellipse transform="matrix(0.9666 -0.2563 0.2563 0.9666 -135.4186 420.5888)" class="st29" cx="1546.2" cy="729.9" rx="2.3" ry="2.3"/>
			
				<ellipse transform="matrix(0.9666 -0.2563 0.2563 0.9666 -132.161 420.9094)" class="st29" cx="1549.1" cy="717.6" rx="2.3" ry="2.3"/>
			
				<ellipse transform="matrix(0.9666 -0.2563 0.2563 0.9666 -136.795 406.087)" class="st29" cx="1489.9" cy="728" rx="2.3" ry="2.3"/>
			
				<ellipse transform="matrix(0.9666 -0.2563 0.2563 0.9666 -135.1515 407.5817)" class="st29" cx="1496.4" cy="722.4" rx="2.3" ry="2.3"/>
			
				<ellipse transform="matrix(0.9666 -0.2562 0.2562 0.9666 -135.3441 408.6175)" class="st29" cx="1500.3" cy="723.7" rx="1.5" ry="1.5"/>
			
				<ellipse transform="matrix(0.9666 -0.2562 0.2562 0.9666 -133.3985 412.8165)" class="st29" cx="1517.4" cy="718.3" rx="1.5" ry="1.5"/>
			
				<ellipse transform="matrix(0.9666 -0.2562 0.2562 0.9666 -134.2967 410.8035)" class="st29" cx="1509.3" cy="720.7" rx="1.5" ry="1.5"/>
			
				<ellipse transform="matrix(0.9666 -0.2562 0.2562 0.9666 -133.4754 410.3616)" class="st29" cx="1508.1" cy="717.4" rx="0.9" ry="0.9"/>
			
				<ellipse transform="matrix(0.9666 -0.2562 0.2562 0.9666 -132.6105 414.2392)" class="st29" cx="1523.3" cy="716" rx="1.5" ry="1.5"/>
			
				<ellipse transform="matrix(0.9666 -0.2562 0.2562 0.9666 -133.895 417.0217)" class="st29" cx="1533.3" cy="722.3" rx="1.5" ry="1.5"/>
			
				<ellipse transform="matrix(0.9666 -0.2562 0.2562 0.9666 -134.5493 418.4064)" class="st29" cx="1538.3" cy="725.5" rx="1.5" ry="1.5"/>
			
				<ellipse transform="matrix(0.9666 -0.2562 0.2562 0.9666 -145.2721 438.9711)" class="st29" cx="1611.8" cy="776.9" rx="4.5" ry="4.5"/>
			
				<ellipse transform="matrix(0.9666 -0.2562 0.2562 0.9666 -137.504 431.0444)" class="st29" cx="1585.3" cy="743.2" rx="4.5" ry="4.5"/>
			
				<ellipse transform="matrix(0.9666 -0.2562 0.2562 0.9666 -133.2168 422.9784)" class="st29" cx="1556.5" cy="722.7" rx="4.5" ry="4.5"/>
			
				<ellipse transform="matrix(0.9666 -0.2562 0.2562 0.9666 -134.874 427.37)" class="st29" cx="1572.5" cy="731.2" rx="4.5" ry="4.5"/>
			
				<ellipse transform="matrix(0.9666 -0.2562 0.2562 0.9666 -139.519 433.9372)" class="st29" cx="1595.4" cy="752.4" rx="7.4" ry="7.4"/>
		</g>
		<path class="st5" d="M1580,716c-44.4-9.3-90.7,13.4-109.5,56.6c-20.9,48-0.2,103.6,46.3,126.5c-6.4-1.3-12.8-3.3-19-6.1
			c-49.4-21.5-72.1-79-50.5-128.5c21.5-49.4,79-72.1,128.4-50.5C1577.2,714.6,1578.6,715.3,1580,716z"/>
		<path class="st31" d="M1503.1,932.1l9.7-28.4c49.9,9.3,100.3-19.2,117.1-68.6c18.4-54.2-10.6-113.2-64.8-131.6
			c-54.2-18.4-113.2,10.6-131.6,64.8c-17.3,50.7,7,105.6,54.7,127.6l-9.5,27.9c-2.3,6.8,1.3,14.1,8.1,16.4h0
			C1493.4,942.5,1500.8,938.9,1503.1,932.1z M1447.1,773c15.9-46.6,66.7-71.7,113.3-55.8c46.6,15.9,71.7,66.7,55.8,113.3
			c-15.9,46.6-66.7,71.7-113.3,55.8C1456.2,870.4,1431.2,819.6,1447.1,773z"/>
	</g>
</g>
</svg>
