<?xml version="1.0" encoding="utf-8"?>
<!-- Generator: Adobe Illustrator 21.1.0, SVG Export Plug-In . SVG Version: 6.00 Build 0)  -->
<svg version="1.1" id="Layer_1" xmlns="http://www.w3.org/2000/svg" xmlns:xlink="http://www.w3.org/1999/xlink" x="0px" y="0px"
	 viewBox="0 0 795.8 795.8" style="enable-background:new 0 0 795.8 795.8;" xml:space="preserve">
<style type="text/css">
	.st0{fill:#F7FAFB;}
	.st1{display:none;fill:none;stroke:#556080;stroke-width:8;stroke-linecap:round;stroke-miterlimit:10;}
	.st2{display:none;}
	.st3{display:inline;fill:#B1B7BC;}
	.st4{display:inline;fill:#E7ECED;}
	.st5{display:inline;fill:#424A60;}
	.st6{display:inline;fill:#57ABC1;}
	.st7{display:inline;fill:#FFFFFF;}
	.st8{display:inline;}
	.st9{fill:#C7CAC7;}
	.st10{display:inline;fill:#D7D7E2;}
	.st11{display:inline;fill:#7383BF;}
	.st12{display:inline;fill:none;stroke:#556080;stroke-width:8;stroke-linecap:round;stroke-miterlimit:10;}
	.st13{display:none;fill:none;stroke:#556080;stroke-width:2;stroke-miterlimit:10;}
	.st14{display:none;fill:none;stroke:#7383BF;stroke-width:8;stroke-miterlimit:10;}
	.st15{display:none;fill:#7383BF;}
	.st16{display:none;fill:#3083C9;}
	.st17{fill:#424A60;}
	.st18{fill:#E7ECED;}
	.st19{fill:#556080;}
	.st20{fill:#FFFFFF;}
	.st21{fill:#5592D7;}
	.st22{opacity:0.1;enable-background:new    ;}
	.st23{fill:#513432;}
	.st24{fill:#F7C1A1;}
	.st25{fill:#F5B090;}
	.st26{fill:#ED5E51;}
	.st27{fill:#D94A3D;}
</style>
<circle class="st0" cx="397.9" cy="397.9" r="397.9"/>
<circle class="st1" cx="353.1" cy="485.2" r="170.5"/>
<g class="st2">
	<path class="st3" d="M617.6,540.4h-200v-48.2c0-3.9,3.2-7.1,7.1-7.1h185.9c3.9,0,7.1,3.2,7.1,7.1L617.6,540.4L617.6,540.4z"/>
	<rect x="427.9" y="540.4" class="st4" width="179.3" height="137.9"/>
	<path class="st5" d="M548.6,526.6h-62c-7.6,0-13.8-6.2-13.8-13.8l0,0c0-7.6,6.2-13.8,13.8-13.8h62c7.6,0,13.8,6.2,13.8,13.8l0,0
		C562.4,520.5,556.3,526.6,548.6,526.6z"/>
	<rect x="427.9" y="661.1" class="st6" width="179.3" height="17.2"/>
	<rect x="469.3" y="568" class="st7" width="96.6" height="48.3"/>
	<g class="st8">
		<path class="st9" d="M483.1,588.7h20.7c1.9,0,3.4-1.5,3.4-3.4s-1.5-3.4-3.4-3.4h-20.7c-1.9,0-3.4,1.5-3.4,3.4
			C479.7,587.1,481.2,588.7,483.1,588.7z"/>
		<path class="st9" d="M517.6,588.7c0.9,0,1.8-0.4,2.4-1c0.6-0.7,1-1.6,1-2.4c0-0.9-0.4-1.8-1-2.4c-1.3-1.3-3.6-1.3-4.9,0
			c-0.6,0.7-1,1.5-1,2.4s0.4,1.8,1,2.4C515.8,588.3,516.7,588.7,517.6,588.7z"/>
		<path class="st9" d="M552.1,595.6h-55.2c-1.9,0-3.4,1.5-3.4,3.4s1.5,3.4,3.4,3.4h55.2c1.9,0,3.4-1.5,3.4-3.4
			S554,595.6,552.1,595.6z"/>
		<path class="st9" d="M480.7,596.6c-0.6,0.7-1,1.5-1,2.4s0.4,1.8,1,2.4c0.7,0.6,1.5,1,2.4,1s1.8-0.4,2.4-1c0.6-0.7,1-1.6,1-2.4
			c0-0.9-0.4-1.8-1-2.4C484.3,595.3,482,595.3,480.7,596.6z"/>
	</g>
	<rect x="427.9" y="540.4" class="st10" width="179.3" height="17.2"/>
</g>
<g class="st2">
	<circle class="st11" cx="409.3" cy="328.8" r="7.1"/>
	<circle class="st11" cx="446.6" cy="338.8" r="7.1"/>
	<circle class="st11" cx="507" cy="402.7" r="7.1"/>
	<line class="st12" x1="366.1" y1="329.8" x2="399.2" y2="296.7"/>
	<line class="st12" x1="366.1" y1="329.8" x2="399.2" y2="362.8"/>
	<line class="st12" x1="507" y1="446.9" x2="473.9" y2="413.8"/>
	<line class="st12" x1="507" y1="446.9" x2="540.1" y2="413.8"/>
	<circle class="st11" cx="472.3" cy="363.6" r="10"/>
	<circle class="st11" cx="486.7" cy="394.6" r="7.1"/>
</g>
<path class="st13" d="M413.6,403.7c0-45.9-37.1-83-83-83"/>
<path class="st13" d="M413.6,441.7c0,45.9,37.1,83,83,83"/>
<path class="st14" d="M505.6,399.3c-4.6-44-43.9-75.8-87.9-71.2"/>
<circle class="st15" cx="506" cy="395.7" r="7.1"/>
<circle class="st15" cx="417" cy="329.7" r="7.1"/>
<circle class="st15" cx="493" cy="361.7" r="7.1"/>
<circle class="st15" cx="458" cy="333.7" r="7.1"/>
<path class="st16" d="M458.6,509.7c-0.3-12.6-7.5-24.1-18.8-29.7l-39.2-20c-2.7-1.4-4.4-4.1-4.4-7.1v-12
	c20.1-8.7,31.6-25.5,37.3-46.5c8.5-2.6,14.7-10.5,14.7-19.8v-10.4c0-8-4.6-14.8-11.2-18.3c-4.6-39.1-30.4-54.9-72-54.9
	c-2,0-3.9,0.1-5.8,0.2c-14.1,1.1-28.4-1.5-40.1-9.4c-4.9-3.3-9-6.8-11.9-10.5c-1.3-1.7-3.9-0.6-3.7,1.5c0.4,3.6,1,7.9,2,12.5
	c3.4,17.3,1.4,14.7-5.3,31c-3.7,9-6.1,19-7.2,29.6c-6.6,3.5-11.1,10.4-11.1,18.3v10.4c0,9.3,6.2,17.1,14.7,19.8
	c5.6,21,17.2,37.9,37.3,46.5v11.9c0,3-1.7,5.8-4.5,7.2l-40.1,19.7c-11,6-17.8,17.5-17.8,29.9v0.1H458.6z"/>
<g>
	<path class="st17" d="M429.5,153.7c-2.2,0-4.4-0.7-6.2-2.1c-4.6-3.4-5.5-10-2.1-14.5l31.2-41.6c3.4-4.6,10-5.5,14.5-2.1
		c4.6,3.4,5.5,10,2.1,14.5l-31.2,41.7C435.8,152.3,432.6,153.7,429.5,153.7z"/>
	<path class="st18" d="M574.2,143.3H220.8c-11.4,0-20.8,9.4-20.8,20.8v519.7c0,11.4,9.4,20.8,20.8,20.8h353.4
		c11.4,0,20.8-9.4,20.8-20.8V164.1C595,152.7,585.6,143.3,574.2,143.3z M397.5,236.9c-17.2,0-31.2-14-31.2-31.2s14-31.2,31.2-31.2
		c17.2,0,31.2,14,31.2,31.2S414.7,236.9,397.5,236.9z"/>
	<path class="st19" d="M200.8,517.5v166.3c0,11.4,9.4,20.8,20.8,20.8H575c11.4,0,20.8-9.4,20.8-20.8V517.5H200.8z"/>
	<g>
		<path class="st20" d="M304.7,621.5h187.1c5.7,0,10.4-4.6,10.4-10.4c0-5.7-4.6-10.4-10.4-10.4H304.7c-5.7,0-10.4,4.6-10.4,10.4
			C294.4,616.8,299,621.5,304.7,621.5z"/>
		<path class="st20" d="M346.3,579.9h103.9c5.7,0,10.4-4.6,10.4-10.4c0-5.8-4.6-10.4-10.4-10.4H346.3c-5.7,0-10.4,4.6-10.4,10.4
			S340.6,579.9,346.3,579.9z"/>
		<path class="st20" d="M315.1,642.3h-10.4c-5.7,0-10.4,4.6-10.4,10.4s4.6,10.4,10.4,10.4h10.4c5.7,0,10.4-4.6,10.4-10.4
			S320.9,642.3,315.1,642.3z"/>
		<path class="st20" d="M377.5,642.3h-20.8c-5.7,0-10.4,4.6-10.4,10.4s4.6,10.4,10.4,10.4h20.8c5.7,0,10.4-4.6,10.4-10.4
			S383.3,642.3,377.5,642.3z"/>
		<path class="st20" d="M429.5,642.3h-10.4c-5.7,0-10.4,4.6-10.4,10.4s4.6,10.4,10.4,10.4h10.4c5.7,0,10.4-4.6,10.4-10.4
			S435.2,642.3,429.5,642.3z"/>
		<path class="st20" d="M491.9,642.3h-20.8c-5.7,0-10.4,4.6-10.4,10.4s4.6,10.4,10.4,10.4h20.8c5.7,0,10.4-4.6,10.4-10.4
			S497.6,642.3,491.9,642.3z"/>
	</g>
	<g>
		<path class="st21" d="M337.3,517.8c0-39.7,27.1-72.2,60-72.2c33.4,0,60,32.5,60,72.2H337.3z"/>
		<path class="st22" d="M397.4,445.5v72.2h60.4C457.8,477.6,430.8,445.5,397.4,445.5z"/>
		<path class="st21" d="M357.2,464.5l40.6,31.1v-50.1C382,445.5,367.6,452.8,357.2,464.5z"/>
		<path class="st23" d="M325.6,339.5c0.9,6.3,2.7,11.7,4.5,15.8c4.1,8.6,7.2,15.8,7.2,15.8h120.5l7.2-15.8c1.8-3.6,3.6-9.5,4.5-15.8
			H325.6L325.6,339.5z"/>
		<path class="st24" d="M420.8,451c-7.2-3.6-14.9-5.9-23.5-5.9c-8.1,0-16.2,1.8-23.5,5.9c2.7,10.4,12.2,18.5,23.5,18.5
			C409.1,469.5,418.6,461.8,420.8,451z M385.6,407.2h23.9v46.5h-23.9V407.2L385.6,407.2z"/>
		<path class="st25" d="M409.6,446.9v-39.7h-12.2v62.3c11.3,0,20.8-7.7,23.5-18.5C417.2,449.2,413.6,447.8,409.6,446.9z"/>
		<ellipse class="st24" cx="457.8" cy="357.5" rx="9.5" ry="18.1"/>
		<ellipse class="st24" cx="337.3" cy="357.5" rx="9.5" ry="18.1"/>
		<path class="st24" d="M397.4,276.7c-33.4,0-60,28-60,62.7v31.1c0,34.8,27.1,62.7,60,62.7c33.4,0,60-28,60-62.7v-31
			C457.8,304.7,430.8,276.7,397.4,276.7z"/>
		<path class="st25" d="M397.4,276.7c26.6,0,48.3,28,48.3,62.7v31.1c0,34.8-21.7,62.7-48.3,62.7c33.4,0,60-28,60-62.7v-31
			C457.8,304.7,430.8,276.7,397.4,276.7z"/>
		<path class="st23" d="M468.7,315.6c-3.2-9.9-8.1-19-14.9-27.1c1.4-3.6,1.8-7.2,2.3-11.3v-3.6c0-9.9-3.2-19.4-8.6-27.1
			c-5,10.4-14.9,18.1-26.6,19.4c-7.2-2.7-15.3-4.1-23.5-4.1c-13.1,0-25.3,3.6-36.1,9.5c-16.2,9.5-28.9,24.8-34.8,43.8
			c-2.3,7.2-2.3,15.8-0.9,23.9h11.7c0,0,11.7-27.1,32.9-37.9c8.6,12.2,22.6,19.9,38.4,19.9c9.9,0,19-2.7,26.2-8.1
			c7.2,4.5,17.2,13.1,22.6,26.2h11.7C470.5,331.8,470.9,322.8,468.7,315.6L468.7,315.6z"/>
		<path class="st26" d="M459.7,335.4h-36.1c-4.5,0-11.3,0.9-14.9,3.6c-0.9,0.9-2.3,1.8-2.7,2.7h-16.2l-2.7-2.7
			c-3.6-2.7-10.8-3.6-14.9-3.6h-36.1c-1.4,0-2.7,1.4-2.7,2.7s1.4,2.7,2.7,2.7h6.8c-0.9,2.7-1.8,5.4-1.8,8.6c0,12.6,11.3,23,24.8,23
			c12.6,0,23.5-9,24.8-20.8c1.4,0,2.3-1.4,2.3-2.7v-1.8h11.7v1.8c0,1.4,0.9,2.3,2.3,2.7c1.4,11.7,11.7,20.8,24.8,20.8
			c13.5,0,24.8-10.4,24.8-23c0-3.2-0.5-5.9-1.8-8.6h6.8c1.4,0,2.7-1.4,2.7-2.7C462.4,336.8,461,335.4,459.7,335.4z M364.9,369.3
			c-12.2,0-22.1-9-22.1-20.3c0-3.2,0.9-5.9,1.8-8.6h25.2c4.5,0,10.8,0.9,13.5,2.7c1.8,1.4,3.2,3.2,3.2,5c0,0.5,0,0.9,0.5,1.4
			C386.5,360.7,377.1,369.3,364.9,369.3L364.9,369.3z M429.9,369.3c-11.7,0-21.7-8.6-22.1-19.4c0.5-0.5,0.5-0.9,0.5-1.4
			c0-2.3,1.4-3.6,3.2-5c2.7-2.3,9-2.7,13.5-2.7h25.3c1.4,2.7,1.8,5.4,1.8,8.6C452,360.2,442.1,369.3,429.9,369.3L429.9,369.3z"/>
		<path class="st27" d="M459.7,335.4h-36.1c-4.5,0-11.3,0.9-14.9,3.6c-0.9,0.9-2.3,1.8-2.7,2.7h-8.2v5.4h5.9v1.8
			c0,1.4,0.9,2.3,2.3,2.7c1.4,11.7,11.7,20.8,24.8,20.8c13.5,0,24.8-10.4,24.8-23c0-3.2-0.5-5.9-1.8-8.6h6.8c1.4,0,2.7-1.4,2.7-2.7
			C462.4,336.8,461,335.4,459.7,335.4z M429.9,369.3c-11.7,0-21.7-8.6-22.1-19.4c0.5-0.5,0.5-0.9,0.5-1.4c0-2.3,1.4-3.6,3.2-5
			c2.7-2.3,9-2.7,13.5-2.7h25.3c1.4,2.7,1.8,5.4,1.8,8.6C452,360.2,442.1,369.3,429.9,369.3L429.9,369.3z"/>
		<polygon class="st24" points="397.5,453.9 385.6,453.9 385.6,446.2 397.5,444.4 		"/>
	</g>
	<path class="st17" d="M398.3,216.1c-3.8,0-7.5-2.1-9.3-5.7l-52-103.9c-2.6-5.1-0.5-11.4,4.6-13.9c5.1-2.5,11.4-0.5,13.9,4.6
		l52,103.9c2.6,5.1,0.5,11.4-4.6,13.9C401.5,215.7,399.9,216.1,398.3,216.1z"/>
</g>
</svg>
