<?xml version="1.0" encoding="utf-8"?>
<!-- Generator: Adobe Illustrator 21.1.0, SVG Export Plug-In . SVG Version: 6.00 Build 0)  -->
<svg version="1.1" id="Layer_1" xmlns="http://www.w3.org/2000/svg" xmlns:xlink="http://www.w3.org/1999/xlink" x="0px" y="0px"
	 viewBox="0 0 500 690" style="enable-background:new 0 0 500 690;" xml:space="preserve">
<style type="text/css">
	.st0{display:none;fill:none;stroke:#556080;stroke-width:8;stroke-linecap:round;stroke-miterlimit:10;}
	.st1{display:none;}
	.st2{display:inline;fill:#B1B7BC;}
	.st3{display:inline;fill:#E7ECED;}
	.st4{display:inline;fill:#424A60;}
	.st5{display:inline;fill:#57ABC1;}
	.st6{display:inline;fill:#FFFFFF;}
	.st7{display:inline;}
	.st8{fill:#C7CAC7;}
	.st9{display:inline;fill:#D7D7E2;}
	.st10{fill:#7383BF;}
	.st11{display:inline;fill:none;stroke:#556080;stroke-width:8;stroke-linecap:round;stroke-miterlimit:10;}
	.st12{display:none;fill:none;stroke:#556080;stroke-width:2;stroke-miterlimit:10;}
	.st13{display:none;fill:none;stroke:#7383BF;stroke-width:8;stroke-miterlimit:10;}
	.st14{display:none;fill:#7383BF;}
	.st15{fill:#424A60;}
	.st16{fill:#E7ECED;}
	.st17{fill:#556080;}
	.st18{fill:#FFFFFF;}
	.st19{display:none;fill:#3083C9;}
	.st20{fill:#5592D7;}
	.st21{opacity:0.1;enable-background:new    ;}
	.st22{fill:#513432;}
	.st23{fill:#F7C1A1;}
	.st24{fill:#F5B090;}
	.st25{fill:#ED5E51;}
	.st26{fill:#D94A3D;}
</style>
<circle class="st0" cx="208.5" cy="431.5" r="170.5"/>
<g class="st1">
	<path class="st2" d="M473,486.7H273v-48.2c0-3.9,3.2-7.1,7.1-7.1h185.9c3.9,0,7.1,3.2,7.1,7.1V486.7z"/>
	<rect x="283.3" y="486.7" class="st3" width="179.3" height="137.9"/>
	<path class="st4" d="M404,472.9H342c-7.6,0-13.8-6.2-13.8-13.8l0,0c0-7.6,6.2-13.8,13.8-13.8H404c7.6,0,13.8,6.2,13.8,13.8l0,0
		C417.8,466.8,411.7,472.9,404,472.9z"/>
	<rect x="283.3" y="607.4" class="st5" width="179.3" height="17.2"/>
	<rect x="324.7" y="514.3" class="st6" width="96.6" height="48.3"/>
	<g class="st7">
		<path class="st8" d="M338.5,535h20.7c1.9,0,3.4-1.5,3.4-3.4c0-1.9-1.5-3.4-3.4-3.4h-20.7c-1.9,0-3.4,1.5-3.4,3.4
			C335.1,533.4,336.6,535,338.5,535z"/>
		<path class="st8" d="M373,535c0.9,0,1.8-0.4,2.4-1c0.6-0.7,1-1.6,1-2.4c0-0.9-0.4-1.8-1-2.4c-1.3-1.3-3.6-1.3-4.9,0
			c-0.6,0.7-1,1.5-1,2.4c0,0.9,0.4,1.8,1,2.4C371.2,534.6,372.1,535,373,535z"/>
		<path class="st8" d="M407.5,541.9h-55.2c-1.9,0-3.4,1.5-3.4,3.4s1.5,3.4,3.4,3.4h55.2c1.9,0,3.4-1.5,3.4-3.4
			S409.4,541.9,407.5,541.9z"/>
		<path class="st8" d="M336.1,542.9c-0.6,0.7-1,1.5-1,2.4c0,0.9,0.4,1.8,1,2.4c0.7,0.6,1.5,1,2.4,1c0.9,0,1.8-0.4,2.4-1
			c0.6-0.7,1-1.6,1-2.4c0-0.9-0.4-1.8-1-2.4C339.7,541.6,337.4,541.6,336.1,542.9z"/>
	</g>
	<rect x="283.3" y="486.7" class="st9" width="179.3" height="17.2"/>
</g>
<g class="st1">
	<circle class="st10" cx="264.7" cy="275.1" r="7.1"/>
	<circle class="st10" cx="302" cy="285.1" r="7.1"/>
	<circle class="st10" cx="362.4" cy="349" r="7.1"/>
	<line class="st11" x1="221.5" y1="276.1" x2="254.6" y2="243"/>
	<line class="st11" x1="221.5" y1="276.1" x2="254.6" y2="309.1"/>
	<line class="st11" x1="362.4" y1="393.2" x2="329.3" y2="360.1"/>
	<line class="st11" x1="362.4" y1="393.2" x2="395.5" y2="360.1"/>
	<circle class="st10" cx="327.7" cy="309.9" r="10"/>
	<circle class="st10" cx="342.1" cy="340.9" r="7.1"/>
</g>
<path class="st12" d="M269,350c0-45.9-37.1-83-83-83"/>
<path class="st12" d="M269,388c0,45.9,37.1,83,83,83"/>
<path class="st13" d="M361,345.6c-4.6-44-43.9-75.8-87.9-71.2"/>
<circle class="st14" cx="361.4" cy="342" r="7.1"/>
<circle class="st14" cx="272.4" cy="276" r="7.1"/>
<circle class="st14" cx="348.4" cy="308" r="7.1"/>
<circle class="st14" cx="313.4" cy="280" r="7.1"/>
<path class="st15" d="M281.7,92.2c-2.2,0-4.4-0.7-6.2-2.1c-4.6-3.4-5.5-10-2.1-14.5L304.6,34c3.4-4.6,10-5.5,14.5-2.1
	c4.6,3.4,5.5,10,2.1,14.5L290,88.1C288,90.8,284.8,92.2,281.7,92.2z"/>
<path class="st16" d="M426.4,81.8H73c-11.4,0-20.8,9.4-20.8,20.8v519.7c0,11.4,9.4,20.8,20.8,20.8h353.4c11.4,0,20.8-9.4,20.8-20.8
	V102.6C447.2,91.2,437.8,81.8,426.4,81.8z M249.7,175.4c-17.2,0-31.2-14-31.2-31.2s14-31.2,31.2-31.2s31.2,14,31.2,31.2
	S266.9,175.4,249.7,175.4z"/>
<path class="st17" d="M53,456v166.3c0,11.4,9.4,20.8,20.8,20.8h353.4c11.4,0,20.8-9.4,20.8-20.8V456H53z"/>
<g>
	<path class="st18" d="M156.9,560h187.1c5.7,0,10.4-4.6,10.4-10.4c0-5.7-4.6-10.4-10.4-10.4H156.9c-5.7,0-10.4,4.6-10.4,10.4
		C146.6,555.3,151.2,560,156.9,560z"/>
	<path class="st18" d="M198.5,518.4h103.9c5.7,0,10.4-4.6,10.4-10.4s-4.6-10.4-10.4-10.4H198.5c-5.7,0-10.4,4.6-10.4,10.4
		S192.8,518.4,198.5,518.4z"/>
	<path class="st18" d="M167.3,580.8h-10.4c-5.7,0-10.4,4.6-10.4,10.4s4.6,10.4,10.4,10.4h10.4c5.7,0,10.4-4.6,10.4-10.4
		S173.1,580.8,167.3,580.8z"/>
	<path class="st18" d="M229.7,580.8h-20.8c-5.7,0-10.4,4.6-10.4,10.4s4.6,10.4,10.4,10.4h20.8c5.7,0,10.4-4.6,10.4-10.4
		S235.5,580.8,229.7,580.8z"/>
	<path class="st18" d="M281.7,580.8h-10.4c-5.7,0-10.4,4.6-10.4,10.4s4.6,10.4,10.4,10.4h10.4c5.7,0,10.4-4.6,10.4-10.4
		S287.4,580.8,281.7,580.8z"/>
	<path class="st18" d="M344.1,580.8h-20.8c-5.7,0-10.4,4.6-10.4,10.4s4.6,10.4,10.4,10.4h20.8c5.7,0,10.4-4.6,10.4-10.4
		S349.8,580.8,344.1,580.8z"/>
</g>
<path class="st19" d="M314,456c-0.3-12.6-7.5-24.1-18.8-29.7l-39.2-20c-2.7-1.4-4.4-4.1-4.4-7.1v-12c20.1-8.7,31.6-25.5,37.3-46.5
	c8.5-2.6,14.7-10.5,14.7-19.8v-10.4c0-8-4.6-14.8-11.2-18.3c-4.6-39.1-30.4-54.9-72-54.9c-2,0-3.9,0.1-5.8,0.2
	c-14.1,1.1-28.4-1.5-40.1-9.4c-4.9-3.3-9-6.8-11.9-10.5c-1.3-1.7-3.9-0.6-3.7,1.5c0.4,3.6,1,7.9,2,12.5c3.4,17.3,1.4,14.7-5.3,31
	c-3.7,9-6.1,19-7.2,29.6c-6.6,3.5-11.1,10.4-11.1,18.3v10.4c0,9.3,6.2,17.1,14.7,19.8c5.6,21,17.2,37.9,37.3,46.5v11.9
	c0,3-1.7,5.8-4.5,7.2L144.7,426c-11,6-17.8,17.5-17.8,29.9v0.1H314z"/>
<g>
	<path class="st20" d="M189.5,456.3c0-39.7,27.1-72.2,60-72.2c33.4,0,60,32.5,60,72.2H189.5z"/>
	<path class="st21" d="M249.6,384v72.2H310C310,416.1,283,384,249.6,384z"/>
	<path class="st20" d="M209.4,403l40.6,31.1V384C234.2,384,219.8,391.3,209.4,403z"/>
	<path class="st22" d="M177.8,278c0.9,6.3,2.7,11.7,4.5,15.8c4.1,8.6,7.2,15.8,7.2,15.8H310l7.2-15.8c1.8-3.6,3.6-9.5,4.5-15.8
		H177.8L177.8,278z"/>
	<path class="st23" d="M273,389.5c-7.2-3.6-14.9-5.9-23.5-5.9c-8.1,0-16.2,1.8-23.5,5.9c2.7,10.4,12.2,18.5,23.5,18.5
		C261.3,408,270.8,400.3,273,389.5z M237.8,345.7h23.9v46.5h-23.9V345.7z"/>
	<path class="st24" d="M261.8,385.4v-39.7h-12.2V408c11.3,0,20.8-7.7,23.5-18.5C269.4,387.7,265.8,386.3,261.8,385.4z"/>
	<ellipse class="st23" cx="310" cy="296" rx="9.5" ry="18.1"/>
	<ellipse class="st23" cx="189.5" cy="296" rx="9.5" ry="18.1"/>
	<path class="st23" d="M249.6,215.2c-33.4,0-60,28-60,62.7v31.1c0,34.8,27.1,62.7,60,62.7c33.4,0,60-28,60-62.7V278
		C310,243.2,283,215.2,249.6,215.2z"/>
	<path class="st24" d="M249.6,215.2c26.6,0,48.3,28,48.3,62.7v31.1c0,34.8-21.7,62.7-48.3,62.7c33.4,0,60-28,60-62.7V278
		C310,243.2,283,215.2,249.6,215.2z"/>
	<path class="st22" d="M320.9,254.1c-3.2-9.9-8.1-19-14.9-27.1c1.4-3.6,1.8-7.2,2.3-11.3v-3.6c0-9.9-3.2-19.4-8.6-27.1
		c-5,10.4-14.9,18.1-26.6,19.4c-7.2-2.7-15.3-4.1-23.5-4.1c-13.1,0-25.3,3.6-36.1,9.5c-16.2,9.5-28.9,24.8-34.8,43.8
		c-2.3,7.2-2.3,15.8-0.9,23.9h11.7c0,0,11.7-27.1,32.9-37.9c8.6,12.2,22.6,19.9,38.4,19.9c9.9,0,19-2.7,26.2-8.1
		c7.2,4.5,17.2,13.1,22.6,26.2h11.7C322.7,270.3,323.1,261.3,320.9,254.1L320.9,254.1z"/>
	<path class="st25" d="M311.9,273.9h-36.1c-4.5,0-11.3,0.9-14.9,3.6c-0.9,0.9-2.3,1.8-2.7,2.7h-16.2l-2.7-2.7
		c-3.6-2.7-10.8-3.6-14.9-3.6h-36.1c-1.4,0-2.7,1.4-2.7,2.7s1.4,2.7,2.7,2.7h6.8c-0.9,2.7-1.8,5.4-1.8,8.6c0,12.6,11.3,23,24.8,23
		c12.6,0,23.5-9,24.8-20.8c1.4,0,2.3-1.4,2.3-2.7v-1.8h11.7v1.8c0,1.4,0.9,2.3,2.3,2.7c1.4,11.7,11.7,20.8,24.8,20.8
		c13.5,0,24.8-10.4,24.8-23c0-3.2-0.5-5.9-1.8-8.6h6.8c1.4,0,2.7-1.4,2.7-2.7C314.6,275.3,313.2,273.9,311.9,273.9z M217.1,307.8
		c-12.2,0-22.1-9-22.1-20.3c0-3.2,0.9-5.9,1.8-8.6H222c4.5,0,10.8,0.9,13.5,2.7c1.8,1.4,3.2,3.2,3.2,5c0,0.5,0,0.9,0.5,1.4
		C238.7,299.2,229.3,307.8,217.1,307.8L217.1,307.8z M282.1,307.8c-11.7,0-21.7-8.6-22.1-19.4c0.5-0.5,0.5-0.9,0.5-1.4
		c0-2.3,1.4-3.6,3.2-5c2.7-2.3,9-2.7,13.5-2.7h25.3c1.4,2.7,1.8,5.4,1.8,8.6C304.2,298.7,294.3,307.8,282.1,307.8L282.1,307.8z"/>
	<path class="st26" d="M311.9,273.9h-36.1c-4.5,0-11.3,0.9-14.9,3.6c-0.9,0.9-2.3,1.8-2.7,2.7H250v5.4h5.9v1.8
		c0,1.4,0.9,2.3,2.3,2.7c1.4,11.7,11.7,20.8,24.8,20.8c13.5,0,24.8-10.4,24.8-23c0-3.2-0.5-5.9-1.8-8.6h6.8c1.4,0,2.7-1.4,2.7-2.7
		C314.6,275.3,313.2,273.9,311.9,273.9z M282.1,307.8c-11.7,0-21.7-8.6-22.1-19.4c0.5-0.5,0.5-0.9,0.5-1.4c0-2.3,1.4-3.6,3.2-5
		c2.7-2.3,9-2.7,13.5-2.7h25.3c1.4,2.7,1.8,5.4,1.8,8.6C304.2,298.7,294.3,307.8,282.1,307.8L282.1,307.8z"/>
	<polygon class="st23" points="249.7,392.4 237.8,392.4 237.8,384.7 249.7,382.9 	"/>
</g>
<path class="st15" d="M250.5,154.6c-3.8,0-7.5-2.1-9.3-5.7l-52-103.9c-2.6-5.1-0.5-11.4,4.6-13.9c5.1-2.5,11.4-0.5,13.9,4.6
	l52,103.9c2.6,5.1,0.5,11.4-4.6,13.9C253.7,154.2,252.1,154.6,250.5,154.6z"/>
</svg>
