<?xml version="1.0" encoding="utf-8"?>
<!-- Generator: Adobe Illustrator 21.1.0, SVG Export Plug-In . SVG Version: 6.00 Build 0)  -->
<svg version="1.1" id="Capa_1" xmlns="http://www.w3.org/2000/svg" xmlns:xlink="http://www.w3.org/1999/xlink" x="0px" y="0px"
	 viewBox="0 0 475.1 475.1" style="enable-background:new 0 0 475.1 475.1;" xml:space="preserve">
<style type="text/css">
	.st0{fill:url(#SVGID_1_);}
	.st1{fill:url(#SVGID_2_);}
</style>
<g>
	<g>
		<linearGradient id="SVGID_1_" gradientUnits="userSpaceOnUse" x1="237.55" y1="2" x2="237.55" y2="474.1059">
			<stop  offset="0" style="stop-color:#622774"/>
			<stop  offset="1" style="stop-color:#C53364"/>
		</linearGradient>
		<path class="st0" d="M467.1,318.6c-5.3-5.3-11.8-8-19.4-8H315.2l-38.8,38.8c-11,10.7-24,16-38.8,16s-27.8-5.3-38.8-16l-38.5-38.8
			H27.4c-7.6,0-14.1,2.7-19.4,8C2.7,324,0,330.4,0,338v91.4c0,7.6,2.7,14.1,8,19.4s11.8,8,19.4,8h420.3c7.6,0,14.1-2.7,19.4-8
			s8-11.8,8-19.4V338C475.1,330.4,472.4,324,467.1,318.6z M360,414.8c-3.6,3.6-7.9,5.4-12.9,5.4s-9.2-1.8-12.8-5.4
			c-3.6-3.6-5.4-7.9-5.4-12.8s1.8-9.2,5.4-12.8c3.6-3.6,7.9-5.4,12.8-5.4s9.2,1.8,12.9,5.4c3.6,3.6,5.4,7.9,5.4,12.8
			S363.6,411.2,360,414.8z M433.1,414.8c-3.6,3.6-7.9,5.4-12.8,5.4s-9.2-1.8-12.8-5.4c-3.6-3.6-5.4-7.9-5.4-12.8s1.8-9.2,5.4-12.8
			c3.6-3.6,7.9-5.4,12.8-5.4s9.2,1.8,12.8,5.4c3.6,3.6,5.4,7.9,5.4,12.8S436.7,411.2,433.1,414.8z"/>
		<linearGradient id="SVGID_2_" gradientUnits="userSpaceOnUse" x1="237.55" y1="2" x2="237.55" y2="474.1059">
			<stop  offset="0" style="stop-color:#622774"/>
			<stop  offset="1" style="stop-color:#C53364"/>
		</linearGradient>
		<path class="st1" d="M224.7,323.5c3.4,3.6,7.7,5.4,12.8,5.4s9.4-1.8,12.8-5.4l127.9-127.9c5.9-5.5,7.2-12.2,4-20
			c-3.2-7.4-8.8-11.1-16.8-11.1h-73.1v-128c0-4.9-1.8-9.2-5.4-12.8s-7.9-5.4-12.8-5.4H201c-4.9,0-9.2,1.8-12.8,5.4
			s-5.4,7.9-5.4,12.8v127.9h-73.1c-8,0-13.6,3.7-16.8,11.1c-3.2,7.8-1.9,14.5,4,20L224.7,323.5z"/>
	</g>
</g>
</svg>
