<svg xmlns="http://www.w3.org/2000/svg" viewBox="0 0 548.01 548.01"><defs><style>.cls-1{fill:#dedfe0;}.cls-2{fill:#89bce6;}.cls-3{fill:#2b588a;}</style></defs><title>Asset 1</title><g id="Layer_2" data-name="Layer 2"><g id="Layer_1-2" data-name="Layer 1"><path class="cls-1" d="M274,0C122.68,0,0,122.68,0,274A272.72,272.72,0,0,0,47.81,428.67L.07,546l128-40.1A272.7,272.7,0,0,0,274,548c151.33,0,274-122.68,274-274S425.34,0,274,0Z"/><path class="cls-2" d="M300.43,453.12l37.07-21.4A26.43,26.43,0,1,0,326.07,410c0,.72,0,1.42.11,2.12l-37.05,21.39A26.57,26.57,0,0,1,300.43,453.12Z"/><path class="cls-2" d="M337.25,206.79l-36.92-21.31c.06-.7.11-1.4.11-2.12a26.42,26.42,0,0,0-15.1-23.86V116.57a26.44,26.44,0,1,0-22.66,0V159.5A26.42,26.42,0,1,0,289,205.11l36.84,21.27A26.57,26.57,0,0,1,337.25,206.79Z"/><path class="cls-2" d="M415.66,161.42l-36.82-21.27c.06-.7.11-1.4.11-2.12a26.46,26.46,0,1,0-11.42,21.75L404.2,181A26.57,26.57,0,0,1,415.66,161.42Z"/><path class="cls-2" d="M206.84,204.62V161.89a26.44,26.44,0,1,0-22.66,0v42.73a26.62,26.62,0,0,1,22.66,0Z"/><path class="cls-2" d="M184.17,252.75v42.72a26.42,26.42,0,0,0-15.11,23.86c0,.72.05,1.42.11,2.12l-37.09,21.41a26.56,26.56,0,0,1,11.27,19.66l37.14-21.44a26.42,26.42,0,1,0,26.34-45.61V252.75a26.62,26.62,0,0,1-22.66,0Z"/><path class="cls-2" d="M247.58,366.82l-37.07,21.4A26.43,26.43,0,1,0,221.94,410c0-.72,0-1.42-.11-2.12l37-21.39A26.56,26.56,0,0,1,247.58,366.82Z"/><path class="cls-2" d="M415.75,252.11l-36.9-21.3a26.56,26.56,0,0,1-11.26,19.66l36.77,21.23A26.57,26.57,0,0,1,415.75,252.11Z"/><path class="cls-2" d="M300.58,362.39l36.91-21.31a26.39,26.39,0,0,0,30,0l36.68,21.18a26.57,26.57,0,0,1,11.46-19.55l-36.83-21.26c.06-.7.11-1.4.11-2.12a26.44,26.44,0,1,0-52.87,0c0,.72,0,1.42.11,2.12l-37,21.34A26.57,26.57,0,0,1,300.58,362.39Z"/><path class="cls-3" d="M457.41,272.64a26.45,26.45,0,0,0-15.18-22.59V207.3q.7-.33,1.37-.69A26.44,26.44,0,0,0,431,156.92a26.3,26.3,0,0,0-15,4.69l-.34-.19A26.57,26.57,0,0,0,404.2,181l.48.27c-.06.71-.11,1.41-.11,2.12s0,1.42.11,2.12l-.48.27-36.61,21.14-.07,0a26.41,26.41,0,0,0-30,0l-.24-.14a26.57,26.57,0,0,0-11.4,19.59l.32.19c-.06.71-.11,1.41-.11,2.12s0,1.42.11,2.12l-.32.19-36.68,21.18-.15.09a26.39,26.39,0,0,0-30,0l-.15-.09L222,230.9l-.17-.1c.06-.7.11-1.4.11-2.12a26.42,26.42,0,0,0-15.11-23.86v-.2a26.62,26.62,0,0,0-22.66,0v.2a26.69,26.69,0,0,0-3.68,2.12l-.16-.09L143.5,185.57l-.17-.1c.06-.7.11-1.4.11-2.12a26.44,26.44,0,1,0-37.77,23.86v42.93a26.42,26.42,0,0,0,0,47.75v42.86A26.44,26.44,0,1,0,143.4,366q0-.68,0-1.36c0-.72,0-1.42-.11-2.12h0a26.56,26.56,0,0,0-11.27-19.66l-.06,0a26.72,26.72,0,0,0-3.68-2.12V297.9a26.42,26.42,0,0,0,0-47.75V207.22a25.9,25.9,0,0,0,3.68-2.11l.16.09L169,226.46l.17.1c-.05.71-.11,1.41-.11,2.12a26.41,26.41,0,0,0,15.11,23.86v.21a26.62,26.62,0,0,0,22.66,0v-.21a25.9,25.9,0,0,0,3.68-2.11l.16.09,36.83,21.26.17.1c-.05.7-.11,1.41-.11,2.12a26.4,26.4,0,0,0,15.11,23.86v42.93a26.41,26.41,0,0,0-15.11,23.86c0,.72.05,1.42.11,2.12l-.09.05a26.56,26.56,0,0,0,11.29,19.65l.11-.07a26.68,26.68,0,0,0,3.68,2.11v42.93a26.43,26.43,0,1,0,37.77,23.86c0-.72,0-1.42-.11-2.12l.09-.05a26.57,26.57,0,0,0-11.3-19.64l-.11.06a26.64,26.64,0,0,0-3.68-2.11V388.51a26.41,26.41,0,0,0,15.1-23.86c0-.72,0-1.42-.11-2.12l.24-.14a26.57,26.57,0,0,0-11.36-19.61l-.2.11a27.49,27.49,0,0,0-3.68-2.11V297.86A26.4,26.4,0,0,0,300.44,274c0-.72,0-1.42-.11-2.12l.17-.1,36.74-21.21.25-.14a26.39,26.39,0,0,0,30,0l.07,0a26.56,26.56,0,0,0,11.26-19.66h0c.06-.7.11-1.4.11-2.12s0-1.42-.11-2.12h0l36.81-21.25.34-.19a26.56,26.56,0,0,0,3.58,2.07v43a26.71,26.71,0,0,0-3.58,2.07l-.24-.14a26.57,26.57,0,0,0-11.4,19.59l.32.19c-.06.7-.11,1.41-.11,2.12a26.43,26.43,0,0,0,15,23.84v43A26.72,26.72,0,0,0,416,342.9l-.33-.19a26.57,26.57,0,0,0-11.46,19.55l.48.27c-.06.7-.11,1.41-.11,2.12a26.36,26.36,0,1,0,38.93-23.31c-.42-.22-.84-.43-1.27-.64V297.95a26.44,26.44,0,0,0,15.18-22.58c0-.42,0-.84,0-1.26,0,0,0-.07,0-.1Q457.45,273.32,457.41,272.64Z"/></g></g></svg>