<?xml version="1.0" encoding="utf-8"?>
<!-- Generator: Adobe Illustrator 21.1.0, SVG Export Plug-In . SVG Version: 6.00 Build 0)  -->
<svg version="1.1" id="Capa_1" xmlns="http://www.w3.org/2000/svg" xmlns:xlink="http://www.w3.org/1999/xlink" x="0px" y="0px"
	 viewBox="0 0 478.4 478.4" style="enable-background:new 0 0 478.4 478.4;" xml:space="preserve">
<style type="text/css">
	.st0{display:none;fill:#EFCE4A;}
	.st1{display:none;fill:#EBBA16;}
	.st2{fill:#F4EFDC;}
	.st3{fill:#CEC9AE;}
	.st4{fill:#D1BF86;}
	.st5{fill:#926E43;}
	.st6{fill:#D9AC80;}
	.st7{fill:#A67E4F;}
	.st8{display:none;fill:#F4EFDC;}
</style>
<g>
	<path class="st0" d="M354.9,318.9H138.1c-5,0-8.6-4.7-7.3-9.6l49.3-135c0.9-3.3,3.9-5.6,7.3-5.6h216.8c5,0,7.3,4.8,7.3,9.6
		l-49.3,135C361.4,316.6,358.4,318.9,354.9,318.9z"/>
	<path class="st1" d="M374,125.1h-11v43.6h19.4v-35.2C382.4,128.9,378.7,125.1,374,125.1z"/>
	<path class="st1" d="M149.9,91.2h-11c-4.6,0-8.4,3.8-8.4,8.4v207c0.3,0,0.7,0,1,0l18.4-50.1V91.2z"/>
	<path class="st2" d="M180,174.3c0.9-3.3,3.9-5.6,7.3-5.6h9.7h166v-58.1V37.9h-72.7H178.9v139.3L180,174.3z"/>
	<g>
		<path class="st3" d="M212.9,115.4h116.3c2.7,0,4.8-2.2,4.8-4.8c0-2.7-2.2-4.8-4.8-4.8H212.9c-2.7,0-4.8,2.2-4.8,4.8
			C208,113.3,210.2,115.4,212.9,115.4z"/>
		<path class="st3" d="M212.9,81.5h48.4c2.7,0,4.8-2.2,4.8-4.8s-2.2-4.8-4.8-4.8h-48.4c-2.7,0-4.8,2.2-4.8,4.8
			S210.2,81.5,212.9,81.5z"/>
		<path class="st3" d="M329.1,139.7H212.9c-2.7,0-4.8,2.2-4.8,4.8s2.2,4.8,4.8,4.8h116.3c2.7,0,4.8-2.2,4.8-4.8
			S331.8,139.7,329.1,139.7z"/>
	</g>
	<polygon class="st3" points="178.9,177.3 178.9,47.6 164.4,47.6 164.4,217.1 	"/>
	<polygon class="st4" points="164.4,217.1 164.4,57.3 149.9,57.3 149.9,257 	"/>
	<polygon class="st3" points="149.9,202.2 149.9,72.6 135.3,72.6 135.3,242.1 	"/>
	<polygon class="st4" points="135.3,242.1 135.3,82.3 120.8,82.3 120.8,281.9 	"/>
	<polygon class="st3" points="120.8,224.8 120.8,95.1 106.3,95.1 106.3,264.6 	"/>
	<polygon class="st4" points="106.3,264.6 106.3,104.8 91.7,104.8 91.7,304.5 	"/>
	<polygon class="st3" points="91.7,240.6 91.7,118.7 78.1,118.7 78.1,278 	"/>
	<polygon class="st4" points="78.1,278 78.1,127.8 64.4,127.8 64.4,315.5 	"/>
</g>
<g>
	<path class="st5" d="M238,130.8v334.8L56,394V278l97.2-1.6L238,130.8z M238,128.8L238,128.8L56,185.2L238,128.8z"/>
	<polygon class="st6" points="153.2,276.8 239.2,128.8 56,185.2 0,279.2 	"/>
	<polygon class="st7" points="238,128.8 238,465.6 420,394 420,278 325.2,276.8 239.6,129.2 	"/>
	<polygon class="st6" points="325.2,276.8 239.2,128.8 422.4,185.2 478.4,279.2 	"/>
</g>
<path class="st8" d="M238,129.2c0,0,0.7-0.2,3.2,0.4l6.5,1.8l158.7,48.9V75V6.6h-68.3H233.3v124L238,129.2z"/>
</svg>
