<?xml version="1.0" encoding="utf-8"?>
<!-- Generator: Adobe Illustrator 21.1.0, SVG Export Plug-In . SVG Version: 6.00 Build 0)  -->
<svg version="1.1" id="Capa_1" xmlns="http://www.w3.org/2000/svg" xmlns:xlink="http://www.w3.org/1999/xlink" x="0px" y="0px"
	 viewBox="0 0 799.8 794.2" style="enable-background:new 0 0 799.8 794.2;" xml:space="preserve">
<style type="text/css">
	.st0{display:none;fill:#FFFFFF;stroke:#000000;stroke-miterlimit:10;}
	.st1{fill:#F7FAFB;}
	.st2{display:none;fill:#EFCE4A;}
	.st3{display:none;fill:#EBBA16;}
	.st4{fill:#F4EFDC;}
	.st5{fill:#CEC9AE;}
	.st6{fill:#D1BF86;}
	.st7{fill:#926E43;}
	.st8{fill:#D9AC80;}
	.st9{fill:#A67E4F;}
	.st10{display:none;fill:#F4EFDC;}
</style>
<circle class="st0" cx="343" cy="357.2" r="316.4"/>
<circle class="st1" cx="401.9" cy="397.9" r="397.9"/>
<g>
	<g>
		<path class="st2" d="M515.6,456.8H298.8c-5,0-8.6-4.7-7.3-9.6l49.3-135c0.9-3.3,3.9-5.6,7.3-5.6h216.8c5,0,7.3,4.8,7.3,9.6
			l-49.3,135C522.1,454.5,519.1,456.8,515.6,456.8z"/>
		<path class="st3" d="M534.7,263h-11v43.6h19.4v-35.2C543.1,266.8,539.4,263,534.7,263z"/>
		<path class="st3" d="M310.6,229.1h-11c-4.6,0-8.4,3.8-8.4,8.4v207c0.3,0,0.7,0,1,0l18.4-50.1V229.1z"/>
		<path class="st4" d="M340.7,312.1c0.9-3.3,3.9-5.6,7.3-5.6h9.7h166v-58.1v-72.7H451H339.6v139.3L340.7,312.1z"/>
		<g>
			<path class="st5" d="M373.6,253.2h116.3c2.7,0,4.8-2.2,4.8-4.8c0-2.7-2.2-4.8-4.8-4.8H373.6c-2.7,0-4.8,2.2-4.8,4.8
				C368.7,251.2,370.9,253.2,373.6,253.2z"/>
			<path class="st5" d="M373.6,219.4H422c2.7,0,4.8-2.2,4.8-4.8s-2.2-4.8-4.8-4.8h-48.4c-2.7,0-4.8,2.2-4.8,4.8
				S370.9,219.4,373.6,219.4z"/>
			<path class="st5" d="M489.8,277.5H373.6c-2.7,0-4.8,2.2-4.8,4.8s2.2,4.8,4.8,4.8h116.3c2.7,0,4.8-2.2,4.8-4.8
				S492.5,277.5,489.8,277.5z"/>
		</g>
		<polygon class="st5" points="339.6,315.1 339.6,185.4 325.1,185.4 325.1,355 		"/>
		<polygon class="st6" points="325.1,355 325.1,195.1 310.6,195.1 310.6,394.9 		"/>
		<polygon class="st5" points="310.6,340 310.6,210.4 296,210.4 296,380 		"/>
		<polygon class="st6" points="296,380 296,220.2 281.5,220.2 281.5,419.8 		"/>
		<polygon class="st5" points="281.5,362.6 281.5,232.9 267,232.9 267,402.5 		"/>
		<polygon class="st6" points="267,402.5 267,242.7 252.4,242.7 252.4,442.4 		"/>
		<polygon class="st5" points="252.4,378.5 252.4,256.5 238.8,256.5 238.8,415.9 		"/>
		<polygon class="st6" points="238.8,415.9 238.8,265.6 225.1,265.6 225.1,453.4 		"/>
	</g>
	<g>
		<path class="st7" d="M398.7,268.6v334.8l-182-71.6v-116l97.2-1.6L398.7,268.6z M398.7,266.6L398.7,266.6l-182,56.4L398.7,266.6z"
			/>
		<polygon class="st8" points="313.9,414.6 399.9,266.6 216.7,323 160.7,417.1 		"/>
		<polygon class="st9" points="398.7,266.6 398.7,603.5 580.7,531.8 580.7,415.9 485.9,414.6 400.3,267 		"/>
		<polygon class="st8" points="485.9,414.6 399.9,266.6 583.1,323 639.1,417.1 		"/>
	</g>
</g>
<path class="st10" d="M349.6,240.8c0,0,0.7-0.2,3.2,0.4l6.5,1.8L518,291.9V186.6v-68.4h-68.3H344.9v124L349.6,240.8z"/>
</svg>
