<svg xmlns="http://www.w3.org/2000/svg" viewBox="0 0 592.81 347.23"><defs><style>.cls-1{isolation:isolate;}.cls-2{mix-blend-mode:multiply;}.cls-3{fill:#545556;}.cls-4{fill:#98bcd8;}.cls-5{fill:#5291c2;}</style></defs><title>Asset 1</title><g class="cls-1"><g id="Layer_2" data-name="Layer 2"><g id="Layer_1-2" data-name="Layer 1"><g class="cls-2"><path class="cls-3" d="M65.67,66.63a27.66,27.66,0,0,1-4.43,15.49A29,29,0,0,1,48.49,92.64a47.32,47.32,0,0,1-19.56,3.75,79.22,79.22,0,0,1-15.71-1.31A58.32,58.32,0,0,1,0,90.49V67.92a75.35,75.35,0,0,0,15.07,5.8,56.12,56.12,0,0,0,14.37,2.08q5.64,0,8.27-2a6,6,0,0,0,2.63-5,5.54,5.54,0,0,0-1.06-3.37,12.34,12.34,0,0,0-3.4-2.92q-2.34-1.47-12.47-6-9.17-4.17-13.76-8.08a24.79,24.79,0,0,1-6.8-9,29.79,29.79,0,0,1-2.21-12q0-13,9.43-20.2T36,0A72.7,72.7,0,0,1,65.67,6.73L57.91,26.29q-13.15-6-22.7-6Q30.27,20.27,28,22a5.24,5.24,0,0,0-2.24,4.3q0,2.76,2.85,4.94t15.49,8Q56.25,44.64,61,50.89T65.67,66.63Z"/><path class="cls-3" d="M135.19,95.11l-4.62-17.57H100.11L95.36,95.11H67.53L98.12,1h33.8l31,94.15Zm-9.88-38.35-4-15.39q-1.41-5.13-3.43-13.28t-2.66-11.67q-.58,3.27-2.28,10.77t-7.54,29.57Z"/><path class="cls-3" d="M198,95.11H173V1.35h55.41V21.68H198V39.57h28.09V59.9H198Z"/><path class="cls-3" d="M294.24,95.11H238.57V1.35h55.67V21.68H263.9V36.43H292V56.76H263.9v17.7h30.33Z"/><path class="cls-4" d="M320.15,137.32a19.12,19.12,0,0,0-16.7,8.77q-6,8.77-6,24.18,0,32,24.36,32a49.91,49.91,0,0,0,14.27-2A142.53,142.53,0,0,0,350,195.31v25.35q-13.89,6.15-31.42,6.15-25.12,0-38.52-14.57t-13.4-42.13q0-17.23,6.49-30.28a46.43,46.43,0,0,1,18.67-20.08q12.18-7,28.65-7a78.94,78.94,0,0,1,34.38,7.82l-9.18,23.61a103.42,103.42,0,0,0-12.29-4.86A43,43,0,0,0,320.15,137.32Z"/><polygon class="cls-4" points="256.03 224.17 221.43 224.17 183 109.72 217.6 109.72 256.03 224.17"/><rect class="cls-4" x="552.11" y="109.72" width="38.04" height="114.65"/><rect class="cls-4" x="467.85" y="109.85" width="38.04" height="114.52"/><polygon class="cls-5" points="505.89 109.85 467.85 109.85 552.11 224.37 590.15 224.37 505.89 109.85"/><path class="cls-4" d="M97.15,164.52q0,28.65-15.77,44.15T37,224.17H0V109.72H39.61q27.55,0,42.55,14.09T97.15,164.52Z"/><path class="cls-4" d="M175.33,224.17H107.38V109.72h67.95v24.82h-37v18h34.29v24.82H138.3V199h37Z"/><path class="cls-4" d="M445.82,127.07q-13.66-14.5-40.15-14.5t-40.26,14.61q-13.85,14.61-13.85,42.31,0,28,13.93,42.66t40,14.65q26.49,0,40.23-14.57t13.74-42.58Q459.49,141.57,445.82,127.07Zm-19.72,33.8c0,.14,0,.28,0,.42l7.29,4.21a5.18,5.18,0,1,1-2.24,4.27c0-.14,0-.28,0-.42l-7.29-4.21a5.18,5.18,0,0,1-5.89,0l-7.29,4.21c0,.14,0,.28,0,.42a5.18,5.18,0,0,1-3,4.68v8.42a5.4,5.4,0,0,1,.72.41l7.29-4.21c0-.14,0-.27,0-.41a5.19,5.19,0,1,1,10.37,0c0,.14,0,.28,0,.41l7.29,4.21a5.18,5.18,0,1,1-2.24,4.27c0-.14,0-.28,0-.42l-7.29-4.21a5.18,5.18,0,0,1-5.89,0l-7.29,4.21c0,.14,0,.28,0,.42a5.18,5.18,0,0,1-3,4.68v8.42a5.23,5.23,0,0,1,.72.41l7.29-4.21c0-.14,0-.27,0-.42A5.19,5.19,0,1,1,418,200.7l-7.29,4.21c0,.14,0,.27,0,.41a5.19,5.19,0,1,1-7.41-4.68v-8.42a5.25,5.25,0,0,1-.72-.41L395.29,196c0,.14,0,.27,0,.41a5.19,5.19,0,1,1-2.24-4.27l7.29-4.21c0-.14,0-.27,0-.41a5.18,5.18,0,0,1,3-4.68v-8.42a5.18,5.18,0,0,1-3-4.68c0-.14,0-.28,0-.42l-7.29-4.21a5.09,5.09,0,0,1-.72.41V174a5.18,5.18,0,1,1-5.17,8.95l-7.29,4.21c0,.14,0,.28,0,.42a5.19,5.19,0,1,1-2.24-4.27l7.29-4.21c0-.14,0-.27,0-.41a5.18,5.18,0,0,1,3-4.68v-8.42a5.18,5.18,0,0,1-3-4.68c0-.14,0-.28,0-.42l-7.29-4.21a5.06,5.06,0,0,1-.72.41v8.42a5.19,5.19,0,1,1-4.44,0v-8.42a5.18,5.18,0,1,1,7.41-4.68c0,.14,0,.28,0,.41l7.29,4.21a5.24,5.24,0,0,1,.72-.41v-8.42a5.19,5.19,0,1,1,4.44,0v8.42a5.18,5.18,0,0,1,3,4.68c0,.14,0,.28,0,.42l7.29,4.21a5.18,5.18,0,0,1,5.89,0l7.29-4.21c0-.14,0-.27,0-.42s0-.28,0-.42l-7.29-4.21a5.18,5.18,0,1,1-5.17-8.95v-8.42a5.19,5.19,0,1,1,4.44,0v8.42a5.18,5.18,0,0,1,3,4.68c0,.14,0,.28,0,.41l7.29,4.21a5.18,5.18,0,0,1,5.89,0l7.29-4.21c0-.14,0-.27,0-.41s0-.28,0-.42l-7.29-4.21a5.18,5.18,0,1,1,2.24-4.27c0,.14,0,.28,0,.41l7.29,4.21a5.19,5.19,0,1,1,0,8.53l-7.29,4.21C426.09,160.6,426.1,160.74,426.1,160.88Z"/><path class="cls-3" d="M295.94,346.46v-14l34.51-37q7.47-8.57,10.62-14.47a23.46,23.46,0,0,0,3.15-10.95,16.48,16.48,0,0,0-3.63-11q-3.63-4.29-10.29-4.28-7.4,0-11.24,5t-3.85,13.37H294.4l-.15-.44a32.25,32.25,0,0,1,9.49-24.44q9.85-10,26.56-10,16.49,0,25.94,8.57t9.45,22.86a32.27,32.27,0,0,1-5.31,17.88q-5.31,8.21-17.62,21.39l-19,20.73.15.37h27.69l.88-10.55h16.26v27Z"/><path class="cls-3" d="M450.48,304.15q0,21.18-9.71,32.13t-26.27,11q-16.7,0-26.45-11t-9.74-32.13V280.64q0-21.1,9.71-32.12t26.34-11q16.55,0,26.34,11t9.78,32.12Zm-21.32-25.71q0-12.67-3.81-18.57a13.21,13.21,0,0,0-22,0q-3.74,5.86-3.74,18.61v27.77q0,12.89,3.77,18.75a12.37,12.37,0,0,0,11.1,5.86A12.15,12.15,0,0,0,425.42,325q3.74-5.86,3.74-18.75Z"/><path class="cls-3" d="M457.06,334.41l18-2.2V260H456.84V247.74l39.56-7.18v91.65l18,2.2v12.82H457.06Z"/><path class="cls-3" d="M590.39,267.3a24.27,24.27,0,0,1-4.25,14.14A28.33,28.33,0,0,1,574.5,291,31.34,31.34,0,0,1,587.9,301.3a25,25,0,0,1,4.91,15.24q0,14.8-10,22.75t-26.23,7.95q-16.26,0-26.34-7.95t-10.07-22.75A25.12,25.12,0,0,1,525,301.26,31.2,31.2,0,0,1,538.38,291a27.7,27.7,0,0,1-11.65-9.6,24.57,24.57,0,0,1-4.18-14.14q0-14.21,9.3-22t24.54-7.8q15.24,0,24.62,7.8T590.39,267.3Zm-18.9,47.77q0-7.18-4.21-11.5a14.52,14.52,0,0,0-10.88-4.32,14.16,14.16,0,0,0-10.77,4.32q-4.1,4.32-4.1,11.5t4.1,11.54q4.1,4.22,10.92,4.21a14.41,14.41,0,0,0,10.81-4.25Q571.49,322.32,571.49,315.07ZM569,268.26q0-6.45-3.41-10.37A11.56,11.56,0,0,0,556.4,254q-5.86,0-9.12,3.84T544,268.26q0,6.67,3.3,10.59t9.23,3.92a11.34,11.34,0,0,0,9.12-3.92Q569,274.92,569,268.26Z"/><polygon class="cls-5" points="256.03 224.17 221.43 224.17 259.64 109.72 294.24 109.72 256.03 224.17"/></g></g></g></g></svg>