<?xml version="1.0" encoding="utf-8"?>
<!-- Generator: Adobe Illustrator 21.1.0, SVG Export Plug-In . SVG Version: 6.00 Build 0)  -->
<svg version="1.1" id="Capa_1" xmlns="http://www.w3.org/2000/svg" xmlns:xlink="http://www.w3.org/1999/xlink" x="0px" y="0px"
	 viewBox="0 0 536 514" style="enable-background:new 0 0 536 514;" xml:space="preserve">
<style type="text/css">
	.st0{fill:#4CAF50;stroke:#009300;stroke-width:5;stroke-miterlimit:10;}
</style>
<path class="st0" d="M268,8.1C126.8,8.1,12,123,12,264.1c0,105.3,66,201.2,164.2,238.6c4.1,1.6,8.7,1.4,12.7-0.5c4-2,7-5.4,8.3-9.6
	l48-153.3c2.3-7.3-0.9-15.1-7.5-18.8c-20.8-11.5-33.7-33.1-33.7-56.4c0-35.3,28.7-64,64-64s64,28.7,64,64
	c0,23.3-12.9,44.9-33.7,56.4c-6.7,3.6-9.8,11.5-7.5,18.8l48,153.3c1.3,4.2,4.3,7.7,8.3,9.6c2.2,1.1,4.6,1.6,7,1.6
	c1.9,0,3.9-0.4,5.7-1.1C458,465.4,524,369.5,524,264.1C524,123,409.2,8.1,268,8.1z"/>
</svg>
