<?xml version="1.0" encoding="utf-8"?>
<!-- Generator: Adobe Illustrator 21.1.0, SVG Export Plug-In . SVG Version: 6.00 Build 0)  -->
<svg version="1.1" id="Capa_1" xmlns="http://www.w3.org/2000/svg" xmlns:xlink="http://www.w3.org/1999/xlink" x="0px" y="0px"
	 viewBox="0 0 123.8 123.8" style="enable-background:new 0 0 123.8 123.8;" xml:space="preserve">
<style type="text/css">
	.st0{fill:#DD352E;}
	.st1{fill:#424A60;}
</style>
<g>
	<path class="st0" d="M76.1,1.6l-10.1,9.3c-2.3,2.1-5.8,2.1-8.1,0L47.6,1.7c-3.1-2.8-8-1.7-9.6,2.1l-8.3,20h64.2L85.6,3.7
		C84.1-0.1,79.1-1.2,76.1,1.6z"/>
	<path class="st0" d="M10.7,42.1c-2.9,1.4-1.8,5.7,1.3,5.7h49.8h49.7c3.2,0,4.2-4.3,1.4-5.7l-12.2-6.3H22.9L10.7,42.1z"/>
	<path class="st1" d="M0.5,90.2L5.8,119c0.5,2.9,3,4.8,5.9,4.8h50.1h50.2c2.9,0,5.4-2,5.9-4.8l5.3-28.8c0.5-2.8-1-5.6-3.7-6.7
		c-12.8-5-26.2-7.7-36.8-9.3c-2.7-0.4-5.3,1.1-6.3,3.5l-10.1,22.9c-1.8,4-7.5,4-9.2-0.1l-9.8-22.7c-1.1-2.5-3.7-4-6.4-3.6
		c-10.6,1.5-24,4.3-36.7,9.3C1.5,84.5-0.1,87.3,0.5,90.2z"/>
</g>
</svg>
