<?xml version="1.0" encoding="utf-8"?>
<!-- Generator: Adobe Illustrator 21.1.0, SVG Export Plug-In . SVG Version: 6.00 Build 0)  -->
<svg version="1.1" id="Capa_1" xmlns="http://www.w3.org/2000/svg" xmlns:xlink="http://www.w3.org/1999/xlink" x="0px" y="0px"
	 viewBox="0 0 59.7 59.7" style="enable-background:new 0 0 59.7 59.7;" xml:space="preserve">
<style type="text/css">
	.st0{fill:#FABA30;}
</style>
<path class="st0" d="M55.9,3.8C53.4,1.4,50.2,0,46.7,0c-3.5,0-6.7,1.3-9.2,3.8l-9.1,9.1C25.1,16.1,24,20.7,25,25
	c-0.9-0.2-1.9-0.3-2.9-0.3c-3.5,0-6.7,1.3-9.2,3.8l-9.1,9.1c-5.1,5.1-5.1,13.3,0,18.4c2.4,2.4,5.7,3.8,9.2,3.8s6.7-1.3,9.2-3.8
	l9.1-9.1c3.3-3.3,4.4-7.9,3.5-12.1c0.9,0.2,1.9,0.3,2.9,0.3c3.5,0,6.7-1.3,9.2-3.8l9.1-9.1C60.9,17.1,60.9,8.9,55.9,3.8z M28.4,44
	L19.4,53c-1.7,1.7-3.9,2.6-6.4,2.6S8.3,54.7,6.6,53c-3.5-3.5-3.5-9.2,0-12.7l9.1-9.1c1.7-1.7,3.9-2.6,6.4-2.6c1.7,0,3.4,0.5,4.8,1.4
	l-7.8,7.8c-0.8,0.8-0.8,2,0,2.8c0.4,0.4,0.9,0.6,1.4,0.6s1-0.2,1.4-0.6l7.8-7.8C31.9,36.3,31.4,40.9,28.4,44z M53,19.4L44,28.4
	C42.3,30.1,40,31,37.6,31c-1.7,0-3.4-0.5-4.8-1.4l7.8-7.8c0.8-0.8,0.8-2,0-2.8c-0.8-0.8-2-0.8-2.8,0L30,26.8
	c-2.2-3.5-1.8-8.1,1.2-11.1l9.1-9.1C42,4.9,44.3,4,46.7,4c2.4,0,4.7,0.9,6.4,2.6s2.6,3.9,2.6,6.4C55.7,15.4,54.7,17.7,53,19.4z"/>
</svg>
