<svg id="Layer_1" data-name="Layer 1" xmlns="http://www.w3.org/2000/svg" xmlns:xlink="http://www.w3.org/1999/xlink" viewBox="0 0 800 800"><defs><style>.cls-1{fill:#2a2e32;}.cls-2{fill:url(#linear-gradient);}.cls-3{fill:#aab3bd;}.cls-4{fill:none;stroke:#6d7987;stroke-miterlimit:10;stroke-width:4px;}.cls-5{fill:url(#linear-gradient-2);}.cls-6{fill:url(#linear-gradient-3);}.cls-7{fill:url(#linear-gradient-4);}.cls-8{fill:url(#linear-gradient-5);}.cls-9{fill:#6ad3ff;}</style><linearGradient id="linear-gradient" x1="400" y1="576.28" x2="400" y2="394.77" gradientUnits="userSpaceOnUse"><stop offset="0" stop-color="#fff"/><stop offset="1" stop-color="#5a90cb"/></linearGradient><linearGradient id="linear-gradient-2" x1="400" y1="263.69" x2="400" y2="336.6" gradientUnits="userSpaceOnUse"><stop offset="0" stop-color="#6ad3ff"/><stop offset="1" stop-color="#5c55ff"/></linearGradient><linearGradient id="linear-gradient-3" x1="498.33" y1="263.69" x2="498.33" y2="336.6" xlink:href="#linear-gradient-2"/><linearGradient id="linear-gradient-4" x1="400" y1="162.57" x2="400" y2="118.02" xlink:href="#linear-gradient-2"/><linearGradient id="linear-gradient-5" x1="301.67" y1="263.69" x2="301.67" y2="336.6" xlink:href="#linear-gradient-2"/></defs><title>mock</title><path class="cls-1" d="M589.18,603.2H210.82A40.87,40.87,0,0,1,170,562.38V370a40.87,40.87,0,0,1,40.82-40.82H589.18A40.87,40.87,0,0,1,630,370V562.38A40.87,40.87,0,0,1,589.18,603.2Zm-378.35-240A6.92,6.92,0,0,0,204,370V562.38a6.92,6.92,0,0,0,6.82,6.82H589.18a6.92,6.92,0,0,0,6.82-6.82V370a6.92,6.92,0,0,0-6.82-6.82Z"/><path class="cls-1" d="M613.82,630H460.17v4a11.75,11.75,0,0,1-11.75,11.75H351.58A11.75,11.75,0,0,1,339.83,634v-4H186.18A16.18,16.18,0,0,0,170,646.18v16.36a16.18,16.18,0,0,0,16.18,16.18H613.82A16.18,16.18,0,0,0,630,662.54V646.18A16.18,16.18,0,0,0,613.82,630Z"/><path class="cls-2" d="M451.56,474.88a8.68,8.68,0,1,0-4.93-15.83l-12.2-7c0-.23,0-.46,0-.69s0-.46,0-.7l12.2-7a8.68,8.68,0,1,0,0-14.28l-12.2-7c0-.23,0-.46,0-.69a8.69,8.69,0,1,0-3.75,7.14l12.2,7c0,.23,0,.46,0,.7s0,.46,0,.69l-12.2,7a8.67,8.67,0,0,0-9.86,0l-12.2-7c0-.23,0-.46,0-.69a8.67,8.67,0,0,0-5-7.84V414.5a8.68,8.68,0,1,0-7.44,0v14.1a8.68,8.68,0,1,0,8.65,15l12.2,7c0,.23,0,.46,0,.7s0,.46,0,.69l-12.2,7a8.67,8.67,0,0,0-9.86,0l-12.2-7c0-.23,0-.46,0-.69a8.67,8.67,0,0,0-5-7.84v-14.1a8.68,8.68,0,1,0-7.44,0v14.1a8.77,8.77,0,0,0-1.21.69l-12.2-7c0-.23,0-.46,0-.69a8.68,8.68,0,1,0-12.4,7.83v14.1a8.68,8.68,0,1,0,7.44,0v-14.1a8.51,8.51,0,0,0,1.21-.69l12.2,7c0,.23,0,.46,0,.7a8.67,8.67,0,0,0,5,7.83v14.1a8.67,8.67,0,0,0-5,7.84c0,.23,0,.46,0,.69l-12.2,7a8.68,8.68,0,1,0,3.75,7.14c0-.23,0-.47,0-.7l12.2-7a8.68,8.68,0,1,0,8.65-15v-14.1a8.5,8.5,0,0,0,1.21-.69l12.2,7c0,.23,0,.46,0,.7a8.67,8.67,0,0,0,5,7.83v14.1a8.67,8.67,0,0,0-5,7.84c0,.23,0,.46,0,.69l-12.2,7a8.68,8.68,0,1,0,3.75,7.14c0-.23,0-.46,0-.69l12.2-7a8.76,8.76,0,0,0,1.21.69v14.1a8.68,8.68,0,1,0,12.4,7.83c0-.23,0-.46,0-.69l12.2-7a8.68,8.68,0,1,0-3.75-7.14c0,.24,0,.47,0,.7l-12.2,7a8.75,8.75,0,0,0-1.21-.69V503.8a8.67,8.67,0,0,0,5-7.83c0-.23,0-.47,0-.7l12.2-7a8.67,8.67,0,0,0,9.86,0l12.2,7c0,.23,0,.46,0,.7a8.69,8.69,0,1,0,3.75-7.14l-12.2-7c0-.23,0-.46,0-.69a8.68,8.68,0,1,0-17.36,0c0,.23,0,.46,0,.69l-12.2,7a9,9,0,0,0-1.21-.69V474a8.67,8.67,0,0,0,5-7.83c0-.23,0-.47,0-.7l12.2-7a8.67,8.67,0,0,0,9.86,0l12.2,7c0,.23,0,.46,0,.7a8.68,8.68,0,0,0,8.68,8.68"/><rect class="cls-3" x="193" y="169.87" width="116.67" height="78"/><rect class="cls-3" x="341.67" y="169.87" width="116.67" height="78"/><rect class="cls-3" x="490.33" y="169.87" width="116.67" height="78"/><circle class="cls-4" cx="515.87" cy="208.87" r="10.2"/><circle class="cls-4" cx="548.67" cy="208.87" r="10.2"/><circle class="cls-4" cx="581.46" cy="208.87" r="10.2"/><circle class="cls-4" cx="367.21" cy="208.87" r="10.2"/><circle class="cls-4" cx="400" cy="208.87" r="10.2"/><circle class="cls-4" cx="432.79" cy="208.87" r="10.2"/><circle class="cls-4" cx="218.54" cy="208.87" r="10.2"/><circle class="cls-4" cx="251.33" cy="208.87" r="10.2"/><circle class="cls-4" cx="284.13" cy="208.87" r="10.2"/><path class="cls-5" d="M400,260.33a10.19,10.19,0,0,0-3.5,19.77v99.1h7V280.1a10.19,10.19,0,0,0-3.5-19.77Z"/><path class="cls-6" d="M548.67,260.33a10.19,10.19,0,0,0-3.5,19.77V293H437.79V398h7V300H552.17V280.1a10.19,10.19,0,0,0-3.5-19.77Z"/><path class="cls-7" d="M403.5,142.34V128.28H545.17v14.06a10.2,10.2,0,1,0,7,0V121.28H247.83v21.06a10.2,10.2,0,1,0,7,0V128.28H396.5v14.06a10.2,10.2,0,1,0,7,0Z"/><path class="cls-8" d="M254.83,280.1a10.2,10.2,0,1,0-7,0V300H355.21v98h7V293H254.83Z"/><rect class="cls-9" x="315.58" y="205.37" width="20.18" height="7"/><rect class="cls-9" x="464.24" y="205.37" width="20.18" height="7"/></svg>