<?xml version="1.0" encoding="utf-8"?>
<!-- Generator: Adobe Illustrator 21.1.0, SVG Export Plug-In . SVG Version: 6.00 Build 0)  -->
<svg version="1.1" id="Layer_1" xmlns="http://www.w3.org/2000/svg" xmlns:xlink="http://www.w3.org/1999/xlink" x="0px" y="0px"
	 viewBox="0 0 800 800" style="enable-background:new 0 0 800 800;" xml:space="preserve">
<style type="text/css">
	.st0{fill:#2A2E32;}
	.st1{fill:url(#SVGID_1_);}
	.st2{fill:#AAB3BD;}
	.st3{fill:none;stroke:#6D7987;stroke-width:4;stroke-miterlimit:10;}
	.st4{fill:url(#SVGID_2_);}
	.st5{fill:url(#SVGID_3_);}
	.st6{fill:url(#SVGID_4_);}
	.st7{fill:url(#SVGID_5_);}
	.st8{fill:#6AD3FF;}
</style>
<title>mock</title>
<path class="st0" d="M671.5,691.6h-543c-32.3,0-58.5-26.2-58.6-58.6V356.9c0-32.3,26.2-58.5,58.6-58.6h543
	c32.3,0,58.5,26.2,58.6,58.6V633C730,665.4,703.8,691.6,671.5,691.6z M128.5,347.2c-5.4,0.1-9.7,4.4-9.8,9.8V633
	c0.1,5.4,4.4,9.7,9.8,9.8h543c5.4-0.1,9.7-4.4,9.8-9.8V356.9c-0.1-5.4-4.4-9.7-9.8-9.8L128.5,347.2z"/>
<path class="st0" d="M706.9,730.1H486.4v5.7c0,9.3-7.5,16.9-16.9,16.9h-139c-9.3,0-16.9-7.5-16.9-16.9v-5.7H93.1
	c-12.8,0-23.2,10.4-23.2,23.2v23.5c0,12.8,10.4,23.2,23.2,23.2h613.7c12.8,0,23.2-10.4,23.2-23.2v-23.5
	C730.1,740.5,719.7,730.1,706.9,730.1z"/>
<linearGradient id="SVGID_1_" gradientUnits="userSpaceOnUse" x1="399.8598" y1="147.0149" x2="399.8598" y2="407.5057" gradientTransform="matrix(1 0 0 -1 0 800)">
	<stop  offset="0" style="stop-color:#FFFFFF"/>
	<stop  offset="1" style="stop-color:#5A90CB"/>
</linearGradient>
<path class="st1" d="M474,507.5c6.9,0,12.5-5.6,12.4-12.5c0-6.9-5.6-12.5-12.5-12.4c-2.5,0-5,0.8-7.1,2.2l-17.5-10c0-0.3,0-0.7,0-1
	c0-0.3,0-0.7,0-1l17.5-10c5.7,3.9,13.4,2.5,17.3-3.2c3.9-5.7,2.5-13.4-3.2-17.3c-4.3-2.9-9.9-2.9-14.2,0l-17.5-10c0-0.3,0-0.7,0-1
	c0-6.9-5.6-12.5-12.5-12.5c-6.9,0-12.5,5.6-12.5,12.5c0,6.9,5.6,12.5,12.5,12.5c2.5,0,5-0.8,7.1-2.2l17.5,10c0,0.3,0,0.7,0,1
	c0,0.3,0,0.7,0,1l-17.5,10c-4.3-2.9-9.9-2.9-14.2,0l-17.5-10c0-0.3,0-0.7,0-1c0-4.8-2.8-9.2-7.2-11.3v-20.4
	c6.2-2.9,8.9-10.4,5.9-16.6s-10.4-8.9-16.6-5.9s-8.9,10.4-5.9,16.6c1.2,2.6,3.3,4.7,5.9,5.9V441c-6.2,3-8.8,10.5-5.8,16.6
	c3,6.2,10.5,8.8,16.6,5.8c0.5-0.3,1.1-0.6,1.5-0.9l17.5,10c0,0.3,0,0.7,0,1c0,0.3,0,0.7,0,1l-17.5,10c-4.3-2.9-9.9-2.9-14.2,0
	l-17.5-10c0-0.3,0-0.7,0-1c0-4.8-2.8-9.2-7.2-11.3v-20.2c6.2-2.9,8.9-10.4,5.9-16.6s-10.4-8.9-16.6-5.9c-6.2,2.9-8.9,10.4-5.9,16.6
	c1.2,2.6,3.3,4.7,5.9,5.9v20.2c-0.6,0.3-1.2,0.6-1.7,1l-17.5-10c0-0.3,0-0.7,0-1c0-6.9-5.6-12.5-12.4-12.5
	c-6.9,0-12.5,5.6-12.5,12.4c0,4.8,2.8,9.2,7.1,11.3v20.2c-6.2,2.9-8.9,10.4-5.9,16.6s10.4,8.9,16.6,5.9s8.9-10.4,5.9-16.6
	c-1.2-2.6-3.3-4.7-5.9-5.9v-20.2c0.6-0.3,1.2-0.6,1.7-1l17.5,10c0,0.3,0,0.7,0,1c0,4.8,2.8,9.2,7.2,11.2v20.2
	c-4.4,2-7.2,6.4-7.2,11.3c0,0.3,0,0.7,0,1l-17.5,10c-5.7-3.9-13.4-2.5-17.3,3.2c-3.9,5.7-2.5,13.4,3.2,17.3
	c5.7,3.9,13.4,2.5,17.3-3.2c1.4-2.1,2.2-4.6,2.2-7.1c0-0.3,0-0.7,0-1l17.5-10c5.7,3.9,13.4,2.4,17.3-3.3c3.9-5.7,2.4-13.4-3.3-17.3
	c-0.5-0.3-1-0.6-1.5-0.9v-20.2c0.6-0.3,1.2-0.6,1.7-1l17.5,10c0,0.3,0,0.7,0,1c0,4.8,2.8,9.2,7.2,11.2v20.2c-4.4,2-7.2,6.4-7.2,11.3
	c0,0.3,0,0.7,0,1l-17.5,10c-5.7-3.9-13.4-2.5-17.3,3.2c-3.9,5.7-2.5,13.4,3.2,17.3c5.7,3.9,13.4,2.5,17.3-3.2
	c1.4-2.1,2.2-4.6,2.2-7.1c0-0.3,0-0.7,0-1l17.5-10c0.6,0.4,1.1,0.7,1.7,1v20.2c-6.2,2.9-8.9,10.4-5.9,16.6s10.4,8.9,16.6,5.9
	c4.4-2.1,7.1-6.5,7.1-11.3c0-0.3,0-0.7,0-1l17.5-10c5.7,3.9,13.4,2.5,17.3-3.2c3.9-5.7,2.5-13.4-3.2-17.3
	c-5.7-3.9-13.4-2.5-17.3,3.2c-1.4,2.1-2.2,4.6-2.2,7.1c0,0.3,0,0.7,0,1l-17.5,10c-0.6-0.4-1.1-0.7-1.7-1V549c4.4-2,7.2-6.4,7.2-11.2
	c0-0.3,0-0.7,0-1l17.5-10c4.3,2.9,9.9,2.9,14.2,0l17.5,10c0,0.3,0,0.7,0,1c0,6.9,5.6,12.5,12.5,12.5c6.9,0,12.5-5.6,12.5-12.5
	c0-6.9-5.6-12.5-12.5-12.5c-2.5,0-5,0.8-7.1,2.2l-17.5-10c0-0.3,0-0.7,0-1c0-6.9-5.6-12.5-12.5-12.5c-6.9,0-12.5,5.6-12.5,12.5
	c0,0.3,0,0.7,0,1l-17.5,10c-0.6-0.4-1.1-0.7-1.7-1v-20.3c4.4-2,7.2-6.4,7.2-11.2c0-0.3,0-0.7,0-1l17.5-10c4.3,2.9,9.9,2.9,14.2,0
	l17.5,10c0,0.3,0,0.7,0,1C461.5,501.8,467.1,507.4,474,507.5"/>
<rect x="102.9" y="69.7" class="st2" width="167.4" height="111.9"/>
<rect x="316.3" y="69.7" class="st2" width="167.4" height="111.9"/>
<rect x="529.6" y="69.7" class="st2" width="167.4" height="111.9"/>
<circle class="st3" cx="566.3" cy="125.7" r="14.6"/>
<circle class="st3" cx="613.4" cy="125.7" r="14.6"/>
<circle class="st3" cx="660.4" cy="125.7" r="14.6"/>
<circle class="st3" cx="352.9" cy="125.7" r="14.6"/>
<circle class="st3" cx="400" cy="125.7" r="14.6"/>
<circle class="st3" cx="447.1" cy="125.7" r="14.6"/>
<circle class="st3" cx="139.6" cy="125.7" r="14.6"/>
<circle class="st3" cx="186.6" cy="125.7" r="14.6"/>
<circle class="st3" cx="233.7" cy="125.7" r="14.6"/>
<linearGradient id="SVGID_2_" gradientUnits="userSpaceOnUse" x1="400.002" y1="595.6229" x2="400.002" y2="490.9874" gradientTransform="matrix(1 0 0 -1 0 800)">
	<stop  offset="0" style="stop-color:#6AD3FF"/>
	<stop  offset="1" style="stop-color:#5C55FF"/>
</linearGradient>
<path class="st4" d="M400,199.6c-8.1,0-14.6,6.5-14.7,14.6c0,6.2,3.8,11.7,9.6,13.8v142.2h10V227.9c7.6-2.8,11.5-11.1,8.8-18.7
	C411.7,203.4,406.2,199.5,400,199.6L400,199.6z"/>
<linearGradient id="SVGID_3_" gradientUnits="userSpaceOnUse" x1="541.131" y1="595.6229" x2="541.131" y2="490.9874" gradientTransform="matrix(1 0 0 -1 0 800)">
	<stop  offset="0" style="stop-color:#6AD3FF"/>
	<stop  offset="1" style="stop-color:#5C55FF"/>
</linearGradient>
<path class="st5" d="M613.4,199.6c-8.1,0-14.6,6.5-14.7,14.6c0,6.2,3.8,11.7,9.6,13.8v18.5H454.2v150.7h10V256.5h154.1v-28.6
	c7.6-2.8,11.5-11.1,8.8-18.7C625,203.4,619.5,199.5,613.4,199.6L613.4,199.6z"/>
<linearGradient id="SVGID_4_" gradientUnits="userSpaceOnUse" x1="400" y1="740.7434" x2="400" y2="804.6785" gradientTransform="matrix(1 0 0 -1 0 800)">
	<stop  offset="0" style="stop-color:#6AD3FF"/>
	<stop  offset="1" style="stop-color:#5C55FF"/>
</linearGradient>
<path class="st6" d="M405,30.2V10h203.3v20.2c-7.6,2.8-11.5,11.2-8.7,18.8c2.8,7.6,11.2,11.5,18.8,8.7c7.6-2.8,11.5-11.2,8.7-18.8
	c-1.5-4.1-4.7-7.2-8.7-8.7V0H181.6v30.2C174,33,170.1,41.4,172.9,49c2.8,7.6,11.2,11.5,18.8,8.7s11.5-11.2,8.7-18.8
	c-1.5-4.1-4.7-7.2-8.7-8.7V10H395v20.2c-7.6,2.8-11.5,11.2-8.7,18.8c2.8,7.6,11.2,11.5,18.8,8.7c7.6-2.8,11.5-11.2,8.7-18.8
	C412.3,34.9,409.1,31.7,405,30.2z"/>
<linearGradient id="SVGID_5_" gradientUnits="userSpaceOnUse" x1="258.8815" y1="595.6229" x2="258.8815" y2="490.9874" gradientTransform="matrix(1 0 0 -1 0 800)">
	<stop  offset="0" style="stop-color:#6AD3FF"/>
	<stop  offset="1" style="stop-color:#5C55FF"/>
</linearGradient>
<path class="st7" d="M191.7,227.9c7.6-2.8,11.5-11.2,8.7-18.8c-2.8-7.6-11.2-11.5-18.8-8.7c-7.6,2.8-11.5,11.2-8.7,18.8
	c1.5,4.1,4.7,7.2,8.7,8.7v28.6h154.1v140.6h10V246.4H191.7V227.9z"/>
<rect x="278.8" y="120.7" class="st8" width="29" height="10"/>
<rect x="492.2" y="120.7" class="st8" width="29" height="10"/>
</svg>
