<?xml version="1.0" encoding="utf-8"?>
<!-- Generator: Adobe Illustrator 21.1.0, SVG Export Plug-In . SVG Version: 6.00 Build 0)  -->
<svg version="1.1" id="Layer_1" xmlns="http://www.w3.org/2000/svg" xmlns:xlink="http://www.w3.org/1999/xlink" x="0px" y="0px"
	 viewBox="0 0 97.8 110" style="enable-background:new 0 0 97.8 110;" xml:space="preserve">
<style type="text/css">
	.st0{fill:#FFFFFF;}
</style>
<title>safe_network_mark</title>
<desc>
	Mark for the SAFE network (@100 base units) The logo is made up of 5 rows by 5 colomns of circles evenly spaced with circles missing on each corner so as to make a hex shape Each column has circles offset by half the distance There are wide lines joining various circles to make a visual representation of a distributed network. - The vertical height is nominally set at 110.00 - The Radius of the circles is 7.00, the edge circles touch the edges - The Vertical distance between circle centres in a column is ( 110.00 - 7.00 - 7.00 ) / 4 = 24.00 - The offset distance between columns is 24.00 / 2 = 12.00 - The angles of lines between columns is 30 degrees above or below the horizontal - The distance between columns is determined by angle used for the bars joining the circles At 30 degrees this means that the distance between column centres is = 12./tan(30) = 20.460969082652752232935609807 - The Horizontal width is 7.00 + ( 4*20.460969082652752232935609807) + 7.00 = 97.8438763306110089317424392282 - The horz and vert centres are Horizontal 1 - 7.00 2 - 27.46 (27.460969082652752232935609807) 3 - 48.92 (48.921938165305504465871219614) 4 - 69.38 (69.382907247958256698806829421) 5 - 90.84 (90.843876330611008931742439228) Vertical 1a - 7.00 1b - 19.00 2a - 31.00 2b - 43.00 3a - 55.00 3b - 67.00 4a - 79.00 4b - 91.00 5 - 103.00 - When rotation occurs, it is best to have the bar centre line at 0,0 This way the bar only needs to be translated to the circle centre of the starting circle Thus a rectangle is drawn at X=0 and Y=-1/2 the bar width = .00 And the rectangle width is the bar length = 1./sin(30) = 2.00 NOTE: Seems the original designer choose circle centre to circle centre for the closest circles in adjoining columns to be the same as adjoining circles in each column
	</desc>
<circle class="st0" cx="7" cy="31" r="7"/>
<circle class="st0" cx="7" cy="55" r="7"/>
<circle class="st0" cx="7" cy="79" r="7"/>
<circle class="st0" cx="27.5" cy="19" r="7"/>
<circle class="st0" cx="27.5" cy="43" r="7"/>
<circle class="st0" cx="27.5" cy="67" r="7"/>
<circle class="st0" cx="27.5" cy="91" r="7"/>
<circle class="st0" cx="48.9" cy="7" r="7"/>
<circle class="st0" cx="48.9" cy="31" r="7"/>
<circle class="st0" cx="48.9" cy="55" r="7"/>
<circle class="st0" cx="48.9" cy="79" r="7"/>
<circle class="st0" cx="48.9" cy="103" r="7"/>
<circle class="st0" cx="69.4" cy="19" r="7"/>
<circle class="st0" cx="69.4" cy="43" r="7"/>
<circle class="st0" cx="69.4" cy="67" r="7"/>
<circle class="st0" cx="69.4" cy="91" r="7"/>
<circle class="st0" cx="90.8" cy="31" r="7"/>
<circle class="st0" cx="90.8" cy="55" r="7"/>
<circle class="st0" cx="90.8" cy="79" r="7"/>
<path class="st0" d="M10,31v24H4V31H10z M30.5,19v24h-6V19H30.5z M30.5,43v24h-6V43H30.5z M51.9,7v24h-6V7H51.9z M51.9,55v24h-6V55
	H51.9z M51.9,79v24h-6V79H51.9z M8.5,28.4l20.8,12l-3,5.2l-20.8-12L8.5,28.4z M29,40.4l20.8,12l-3,5.2L26,45.6L29,40.4z M50.4,28.4
	l20.8,12l-3,5.2l-20.8-12L50.4,28.4z M70.9,40.4l20.8,12l-3,5.2l-20.8-12L70.9,40.4z M70.9,16.4l20.8,12l-3,5.2l-20.8-12L70.9,16.4z
	 M70.9,64.4l20.8,12l-3,5.2l-20.8-12L70.9,64.4z M5.5,76.4l20.8-12l3,5.2l-20.8,12L5.5,76.4z M47.4,100.4l20.8-12l3,5.2l-20.8,12
	L47.4,100.4z M47.4,52.4l20.8-12l3,5.2l-20.8,12L47.4,52.4z M67.9,40.4l20.8-12l3,5.2l-20.8,12L67.9,40.4z M26,88.4l20.8-12l3,5.2
	L29,93.6L26,88.4z M47.4,76.4l20.8-12l3,5.2l-20.8,12L47.4,76.4z"/>
</svg>
