<svg width="194" height="53" viewBox="0 0 194 53" version="1.1" xmlns="http://www.w3.org/2000/svg" xmlns:xlink="http://www.w3.org/1999/xlink">
<g id="Canvas" fill="none">
<g id="DevHub-logo">
<g id="Vector">
<path d="M 64.9141 20.0156C 64.9141 19.5729 64.7578 19.2344 64.4453 19C 64.1328 18.7604 63.5703 18.5104 62.7578 18.25C 61.9453 17.9844 61.3021 17.724 60.8281 17.4688C 59.5365 16.7708 58.8906 15.8307 58.8906 14.6484C 58.8906 14.0339 59.0625 13.487 59.4062 13.0078C 59.7552 12.5234 60.2526 12.1458 60.8984 11.875C 61.5495 11.6042 62.2786 11.4688 63.0859 11.4688C 63.8984 11.4688 64.6224 11.6172 65.2578 11.9141C 65.8932 12.2057 66.3854 12.6198 66.7344 13.1562C 67.0885 13.6927 67.2656 14.3021 67.2656 14.9844L 64.9219 14.9844C 64.9219 14.4635 64.7578 14.0599 64.4297 13.7734C 64.1016 13.4818 63.6406 13.3359 63.0469 13.3359C 62.474 13.3359 62.0286 13.4583 61.7109 13.7031C 61.3932 13.9427 61.2344 14.2604 61.2344 14.6562C 61.2344 15.026 61.4193 15.3359 61.7891 15.5859C 62.1641 15.8359 62.7135 16.0703 63.4375 16.2891C 64.7708 16.6901 65.7422 17.1875 66.3516 17.7812C 66.9609 18.375 67.2656 19.1146 67.2656 20C 67.2656 20.9844 66.8932 21.7578 66.1484 22.3203C 65.4036 22.8776 64.401 23.1562 63.1406 23.1562C 62.2656 23.1562 61.4688 22.9974 60.75 22.6797C 60.0312 22.3568 59.4818 21.9167 59.1016 21.3594C 58.7266 20.8021 58.5391 20.1562 58.5391 19.4219L 60.8906 19.4219C 60.8906 20.6771 61.6406 21.3047 63.1406 21.3047C 63.6979 21.3047 64.1328 21.1927 64.4453 20.9688C 64.7578 20.7396 64.9141 20.4219 64.9141 20.0156Z" fill="#3A3A3A"/>
<path d="M 76.8812 20.6562L 72.7719 20.6562L 71.9906 23L 69.4984 23L 73.7328 11.625L 75.9047 11.625L 80.1625 23L 77.6703 23L 76.8812 20.6562ZM 73.4047 18.7578L 76.2484 18.7578L 74.8187 14.5L 73.4047 18.7578Z" fill="#3A3A3A"/>
<path d="M 89.6687 18.3516L 85.1687 18.3516L 85.1687 23L 82.825 23L 82.825 11.625L 90.2312 11.625L 90.2312 13.5234L 85.1687 13.5234L 85.1687 16.4609L 89.6687 16.4609L 89.6687 18.3516Z" fill="#3A3A3A"/>
<path d="M 100.034 18.0703L 95.5344 18.0703L 95.5344 21.1172L 100.816 21.1172L 100.816 23L 93.1906 23L 93.1906 11.625L 100.8 11.625L 100.8 13.5234L 95.5344 13.5234L 95.5344 16.2344L 100.034 16.2344L 100.034 18.0703Z" fill="#3A3A3A"/>
<path d="M 118.625 23L 116.281 23L 111.719 15.5156L 111.719 23L 109.375 23L 109.375 11.625L 111.719 11.625L 116.289 19.125L 116.289 11.625L 118.625 11.625L 118.625 23Z" fill="#3A3A3A"/>
<path d="M 129.116 18.0703L 124.616 18.0703L 124.616 21.1172L 129.897 21.1172L 129.897 23L 122.272 23L 122.272 11.625L 129.881 11.625L 129.881 13.5234L 124.616 13.5234L 124.616 16.2344L 129.116 16.2344L 129.116 18.0703Z" fill="#3A3A3A"/>
<path d="M 141.591 13.5234L 138.106 13.5234L 138.106 23L 135.763 23L 135.763 13.5234L 132.325 13.5234L 132.325 11.625L 141.591 11.625L 141.591 13.5234Z" fill="#3A3A3A"/>
<path d="M 153.519 19.7188L 155.05 11.625L 157.386 11.625L 154.863 23L 152.503 23L 150.652 15.3906L 148.8 23L 146.441 23L 143.917 11.625L 146.253 11.625L 147.792 19.7031L 149.667 11.625L 151.652 11.625L 153.519 19.7188Z" fill="#3A3A3A"/>
<path d="M 169.603 17.5703C 169.603 18.6901 169.405 19.6719 169.009 20.5156C 168.614 21.3594 168.046 22.0104 167.306 22.4688C 166.572 22.9271 165.728 23.1562 164.775 23.1562C 163.832 23.1562 162.991 22.9297 162.252 22.4766C 161.512 22.0234 160.939 21.3776 160.533 20.5391C 160.127 19.6953 159.921 18.7266 159.916 17.6328L 159.916 17.0703C 159.916 15.9505 160.116 14.9661 160.517 14.1172C 160.923 13.263 161.494 12.6094 162.228 12.1562C 162.968 11.6979 163.811 11.4688 164.759 11.4688C 165.707 11.4688 166.548 11.6979 167.283 12.1562C 168.022 12.6094 168.593 13.263 168.994 14.1172C 169.4 14.9661 169.603 15.9479 169.603 17.0625L 169.603 17.5703ZM 167.228 17.0547C 167.228 15.862 167.015 14.9557 166.587 14.3359C 166.16 13.7161 165.551 13.4062 164.759 13.4062C 163.973 13.4062 163.366 13.7135 162.939 14.3281C 162.512 14.9375 162.296 15.8333 162.291 17.0156L 162.291 17.5703C 162.291 18.7318 162.504 19.6328 162.931 20.2734C 163.358 20.9141 163.973 21.2344 164.775 21.2344C 165.561 21.2344 166.166 20.9271 166.587 20.3125C 167.009 19.6927 167.223 18.7917 167.228 17.6094L 167.228 17.0547Z" fill="#3A3A3A"/>
<path d="M 177.117 18.8359L 175.25 18.8359L 175.25 23L 172.906 23L 172.906 11.625L 177.133 11.625C 178.477 11.625 179.513 11.9245 180.242 12.5234C 180.971 13.1224 181.336 13.9688 181.336 15.0625C 181.336 15.8385 181.167 16.487 180.828 17.0078C 180.495 17.5234 179.987 17.9349 179.305 18.2422L 181.766 22.8906L 181.766 23L 179.25 23L 177.117 18.8359ZM 175.25 16.9375L 177.141 16.9375C 177.729 16.9375 178.185 16.7891 178.508 16.4922C 178.831 16.1901 178.992 15.776 178.992 15.25C 178.992 14.7135 178.839 14.2917 178.531 13.9844C 178.229 13.6771 177.763 13.5234 177.133 13.5234L 175.25 13.5234L 175.25 16.9375Z" fill="#3A3A3A"/>
<path d="M 188.288 18.4375L 187.069 19.75L 187.069 23L 184.725 23L 184.725 11.625L 187.069 11.625L 187.069 16.7812L 188.1 15.3672L 190.998 11.625L 193.881 11.625L 189.842 16.6797L 193.998 23L 191.209 23L 188.288 18.4375Z" fill="#3A3A3A"/>
<path d="M 59.4375 44L 59.4375 32.625L 62.6172 32.625C 63.5495 32.625 64.3854 32.8385 65.125 33.2656C 65.8646 33.6875 66.4401 34.2943 66.8516 35.0859C 67.2682 35.8776 67.4766 36.7786 67.4766 37.7891L 67.4766 38.8359C 67.4766 39.8516 67.2708 40.7526 66.8594 41.5391C 66.4479 42.3255 65.8672 42.9323 65.1172 43.3594C 64.3724 43.7865 63.5156 44 62.5469 44L 59.4375 44ZM 60.3984 33.4453L 60.3984 43.1875L 62.5547 43.1875C 63.7526 43.1875 64.7135 42.7917 65.4375 42C 66.1615 41.2031 66.5234 40.1276 66.5234 38.7734L 66.5234 37.7734C 66.5234 36.4661 66.1667 35.4193 65.4531 34.6328C 64.7396 33.8464 63.7995 33.4505 62.6328 33.4453L 60.3984 33.4453Z" fill="#3A3A3A"/>
<path d="M 74.5766 44.1562C 73.8578 44.1562 73.2068 43.9792 72.6234 43.625C 72.0453 43.2708 71.5948 42.7786 71.2719 42.1484C 70.949 41.513 70.7875 40.8021 70.7875 40.0156L 70.7875 39.6797C 70.7875 38.8672 70.9437 38.1354 71.2562 37.4844C 71.574 36.8333 72.0141 36.3229 72.5766 35.9531C 73.1391 35.5781 73.7484 35.3906 74.4047 35.3906C 75.4307 35.3906 76.2432 35.7422 76.8422 36.4453C 77.4464 37.1432 77.7484 38.099 77.7484 39.3125L 77.7484 39.8359L 71.7172 39.8359L 71.7172 40.0156C 71.7172 40.974 71.9906 41.7734 72.5375 42.4141C 73.0896 43.0495 73.7823 43.3672 74.6156 43.3672C 75.1156 43.3672 75.5557 43.276 75.9359 43.0938C 76.3214 42.9115 76.6703 42.6198 76.9828 42.2188L 77.5687 42.6641C 76.8812 43.6589 75.8839 44.1562 74.5766 44.1562ZM 74.4047 36.1875C 73.7016 36.1875 73.1078 36.4453 72.6234 36.9609C 72.1443 37.4766 71.8526 38.1693 71.7484 39.0391L 76.8187 39.0391L 76.8187 38.9375C 76.7927 38.125 76.5609 37.4635 76.1234 36.9531C 75.6859 36.4427 75.113 36.1875 74.4047 36.1875Z" fill="#3A3A3A"/>
<path d="M 83.6922 42.7109L 86.2625 35.5469L 87.2234 35.5469L 84.0672 44L 83.3094 44L 80.1375 35.5469L 81.0984 35.5469L 83.6922 42.7109Z" fill="#3A3A3A"/>
<path d="M 99.0109 44L 98.0422 44L 98.0422 38.5469L 91.5422 38.5469L 91.5422 44L 90.5813 44L 90.5813 32.625L 91.5422 32.625L 91.5422 37.7344L 98.0422 37.7344L 98.0422 32.625L 99.0109 32.625L 99.0109 44Z" fill="#3A3A3A"/>
<path d="M 108.728 42.9297C 108.166 43.7474 107.267 44.1562 106.033 44.1562C 105.132 44.1562 104.447 43.8958 103.978 43.375C 103.509 42.849 103.27 42.0729 103.259 41.0469L 103.259 35.5469L 104.189 35.5469L 104.189 40.9297C 104.189 42.5391 104.84 43.3438 106.142 43.3438C 107.496 43.3438 108.353 42.7839 108.713 41.6641L 108.713 35.5469L 109.65 35.5469L 109.65 44L 108.744 44L 108.728 42.9297Z" fill="#3A3A3A"/>
<path d="M 120.492 39.8594C 120.492 41.1771 120.201 42.224 119.617 43C 119.034 43.7708 118.25 44.1562 117.266 44.1562C 116.089 44.1562 115.198 43.7188 114.594 42.8438L 114.555 44L 113.68 44L 113.68 32L 114.609 32L 114.609 36.7734C 115.203 35.8516 116.083 35.3906 117.25 35.3906C 118.25 35.3906 119.039 35.7734 119.617 36.5391C 120.201 37.2995 120.492 38.3594 120.492 39.7188L 120.492 39.8594ZM 119.555 39.6953C 119.555 38.5807 119.339 37.7214 118.906 37.1172C 118.474 36.5078 117.865 36.2031 117.078 36.2031C 116.479 36.2031 115.971 36.3516 115.555 36.6484C 115.138 36.9401 114.823 37.3698 114.609 37.9375L 114.609 41.75C 115.078 42.8125 115.906 43.3438 117.094 43.3438C 117.865 43.3438 118.466 43.0391 118.898 42.4297C 119.336 41.8203 119.555 40.9089 119.555 39.6953Z" fill="#3A3A3A"/>
<path d="M 47 0L 48 0L 48 53L 47 53L 47 0Z" fill="#3A3A3A"/>
<path d="M 35.0481 28.8824C 36.5588 28.8824 37.7673 27.6858 37.7673 26.19C 37.7673 24.6943 36.5588 23.4976 35.0481 23.4976C 34.4941 23.4976 33.9402 23.6971 33.487 23.9962L 29.6599 21.8024C 29.6599 21.7526 29.6599 21.6529 29.6599 21.603C 29.6599 21.5531 29.6599 21.4534 29.6599 21.4036L 33.487 19.2098C 33.9402 19.5089 34.4438 19.7084 35.0481 19.7084C 36.5588 19.7084 37.7673 18.5118 37.7673 17.016C 37.7673 15.5202 36.5588 14.3236 35.0481 14.3236C 34.4941 14.3236 33.9402 14.523 33.487 14.8222L 29.6599 12.6284C 29.6599 12.5786 29.6599 12.4788 29.6599 12.429C 29.6599 10.9332 28.4514 9.7366 26.9407 9.7366C 25.43 9.7366 24.2214 10.9332 24.2214 12.429C 24.2214 13.9247 25.43 15.1214 26.9407 15.1214C 27.4946 15.1214 28.0485 14.9219 28.5017 14.6228L 32.3288 16.8166C 32.3288 16.8664 32.3288 16.9661 32.3288 17.016C 32.3288 17.0659 32.3288 17.1656 32.3288 17.2154L 28.5017 19.4092C 28.0485 19.1101 27.545 18.9106 26.9407 18.9106C 26.3364 18.9106 25.8328 19.1101 25.3796 19.4092L 21.5525 17.2154C 21.5525 17.1656 21.5525 17.0659 21.5525 17.016C 21.5525 15.9191 20.8979 15.0216 19.9915 14.5729L 19.9915 10.1355C 20.8979 9.68674 21.5525 8.78928 21.5525 7.69238C 21.5525 6.19661 20.344 5 18.8333 5C 17.3226 5 16.1141 6.19661 16.1141 7.69238C 16.1141 8.78928 16.7687 9.68674 17.6751 10.1355L 17.6751 14.523C 16.7687 14.9718 16.1141 15.8692 16.1141 16.9661C 16.1141 18.4619 17.3226 19.6585 18.8333 19.6585C 19.3872 19.6585 19.9411 19.4591 20.3943 19.1599L 24.2214 21.3537C 24.2214 21.4036 24.2214 21.5033 24.2214 21.5532C 24.2214 21.603 24.2214 21.7027 24.2214 21.7526L 20.3943 23.9464C 19.9411 23.6472 19.4376 23.4478 18.8333 23.4478C 18.229 23.4478 17.7255 23.6472 17.2722 23.9464L 13.4452 21.7526C 13.4452 21.7027 13.4452 21.603 13.4452 21.5532C 13.4452 20.4563 12.7905 19.5588 11.8841 19.1101L 11.8841 14.7225C 12.7905 14.2738 13.4452 13.3763 13.4452 12.2794C 13.4452 10.7836 12.2366 9.58702 10.7259 9.58702C 9.21522 9.58702 8.05703 10.8335 8.05703 12.3293C 8.05703 13.4262 8.71166 14.3236 9.61808 14.7723L 9.61808 19.1101C 9.46701 19.1599 9.36629 19.2596 9.21522 19.3095L 5.38814 17.1157C 5.38814 17.0659 5.38814 16.9661 5.38814 16.9163C 5.38814 15.4205 4.17958 14.2239 2.66889 14.2239C 1.1582 14.2239 0 15.4205 0 16.9163C 0 18.0132 0.654633 18.9106 1.56105 19.3594L 1.56105 23.7469C 0.654633 24.1957 0 25.0931 0 26.19C 0 27.6858 1.20855 28.8824 2.71925 28.8824C 4.22994 28.8824 5.43849 27.6858 5.43849 26.19C 5.43849 25.0931 4.78386 24.1957 3.87744 23.7469L 3.87744 19.3594C 4.02851 19.3095 4.12923 19.2098 4.2803 19.1599L 8.10738 21.3537C 8.10738 21.4036 8.10738 21.5033 8.10738 21.5532C 8.10738 22.65 8.76202 23.5475 9.66843 23.9962L 9.66843 28.3838C 8.76202 28.8325 8.10738 29.73 8.10738 30.8269C 8.10738 30.8768 8.10738 30.9765 8.10738 31.0263L 4.2803 33.2201C 3.82709 32.921 3.32352 32.7215 2.71925 32.7215C 1.20855 32.7215 0 33.9182 0 35.4139C 0 36.9097 1.20855 38.1063 2.71925 38.1063C 4.22994 38.1063 5.43849 36.9097 5.43849 35.4139C 5.43849 35.3641 5.43849 35.2643 5.43849 35.2145L 9.26558 33.0207C 9.71879 33.3198 10.2224 33.5193 10.8266 33.5193C 12.3373 33.5193 13.5459 32.3227 13.5459 30.8269C 13.5459 29.73 12.8912 28.8325 11.9848 28.3838L 11.9848 23.9962C 12.1359 23.9464 12.2366 23.8467 12.3877 23.7968L 16.2148 25.9906C 16.2148 26.0404 16.2148 26.1402 16.2148 26.19C 16.2148 27.2869 16.8694 28.1844 17.7758 28.6331L 17.7758 33.0207C 16.8694 33.4694 16.2148 34.3669 16.2148 35.4638C 16.2148 35.5136 16.2148 35.6134 16.2148 35.6632L 12.3877 37.857C 11.9345 37.5579 11.4309 37.3584 10.8266 37.3584C 9.31594 37.3584 8.10738 38.555 8.10738 40.0508C 8.10738 41.5466 9.31594 42.7432 10.8266 42.7432C 12.3373 42.7432 13.5459 41.5466 13.5459 40.0508C 13.5459 40.0009 13.5459 39.9012 13.5459 39.8514L 17.373 37.6576C 17.4737 37.7573 17.6247 37.8071 17.7758 37.857L 17.7758 42.2446C 16.8694 42.6933 16.2148 43.5908 16.2148 44.6877C 16.2148 46.1834 17.4233 47.3801 18.934 47.3801C 20.4447 47.3801 21.6533 46.1834 21.6533 44.6877C 21.6533 44.6378 21.6533 44.5381 21.6533 44.4882L 25.4803 42.2944C 25.9336 42.5936 26.4371 42.793 27.0414 42.793C 28.5521 42.793 29.7606 41.5964 29.7606 40.1007C 29.7606 38.6049 28.5521 37.4083 27.0414 37.4083C 25.5307 37.4083 24.2214 38.555 24.2214 40.0508C 24.2214 40.1007 24.2214 40.2004 24.2214 40.2502L 20.3943 42.444C 20.2936 42.3443 20.1426 42.2944 19.9915 42.2446L 19.9915 37.857C 20.8979 37.4083 21.5525 36.5108 21.5525 35.4139C 21.5525 35.3641 21.5525 35.2643 21.5525 35.2145L 25.3796 33.0207C 25.8328 33.3198 26.3364 33.5193 26.9407 33.5193C 27.545 33.5193 28.0485 33.3198 28.5017 33.0207L 32.3288 35.2145C 32.3288 35.2643 32.3288 35.3641 32.3288 35.4139C 32.3288 36.9097 33.5374 38.1063 35.0481 38.1063C 36.5588 38.1063 37.7673 36.9097 37.7673 35.4139C 37.7673 33.9182 36.5588 32.7215 35.0481 32.7215C 34.4941 32.7215 33.9402 32.921 33.487 33.2201L 29.6599 31.0263C 29.6599 30.9765 29.6599 30.8768 29.6599 30.8269C 29.6599 29.3311 28.4514 28.1345 26.9407 28.1345C 25.43 28.1345 24.2214 29.3311 24.2214 30.8269C 24.2214 30.8768 24.2214 30.9765 24.2214 31.0263L 20.3943 33.2201C 20.2936 33.1204 20.1426 33.0706 19.9915 33.0207L 19.9915 28.5833C 20.8979 28.1345 21.5525 27.2371 21.5525 26.1402C 21.5525 26.0903 21.5525 25.9906 21.5525 25.9407L 25.3796 23.7469C 25.8328 24.0461 26.3364 24.2455 26.9407 24.2455C 27.545 24.2455 28.0485 24.0461 28.5017 23.7469L 32.3288 25.9407C 32.3288 25.9906 32.3288 26.0903 32.3288 26.1402C 32.3288 27.6359 33.5374 28.8824 35.0481 28.8824Z" fill="#3A3A3A"/>
</g>
</g>
</g>
</svg>

