<?xml version="1.0" encoding="utf-8"?>
<!-- Generator: Adobe Illustrator 21.1.0, SVG Export Plug-In . SVG Version: 6.00 Build 0)  -->
<svg version="1.1" id="Capa_1" xmlns="http://www.w3.org/2000/svg" xmlns:xlink="http://www.w3.org/1999/xlink" x="0px" y="0px"
	 viewBox="0 0 56 56" style="enable-background:new 0 0 56 56;" xml:space="preserve">
<style type="text/css">
	.st0{fill:#5593D7;}
</style>
<path class="st0" d="M28,0C12.6,0,0,12.6,0,28s12.6,28,28,28s28-12.6,28-28S43.4,0,28,0z M15,15h26c0.6,0,1,0.4,1,1s-0.4,1-1,1H15
	c-0.6,0-1-0.4-1-1S14.4,15,15,15z M41,41H15c-0.6,0-1-0.4-1-1s0.4-1,1-1h26c0.6,0,1,0.4,1,1S41.6,41,41,41z M45,33H11
	c-0.6,0-1-0.4-1-1s0.4-1,1-1h34c0.6,0,1,0.4,1,1C46,32.6,45.6,33,45,33z M45,25H11c-0.6,0-1-0.4-1-1s0.4-1,1-1h34c0.6,0,1,0.4,1,1
	S45.6,25,45,25z"/>
</svg>
