<?xml version="1.0" encoding="utf-8"?>
<!-- Generator: Adobe Illustrator 21.1.0, SVG Export Plug-In . SVG Version: 6.00 Build 0)  -->
<svg version="1.1" id="Layer_1" xmlns="http://www.w3.org/2000/svg" xmlns:xlink="http://www.w3.org/1999/xlink" x="0px" y="0px"
	 viewBox="0 0 800 800" style="enable-background:new 0 0 800 800;" xml:space="preserve">
<style type="text/css">
	.st0{fill:#2A2E32;}
	.st1{fill:url(#SVGID_1_);}
	.st2{fill:url(#SVGID_2_);}
	.st3{fill:url(#SVGID_3_);}
	.st4{fill:url(#SVGID_4_);}
	.st5{fill:#AAB3BD;}
	.st6{fill:none;stroke:#6D7987;stroke-width:4;stroke-miterlimit:10;}
</style>
<title>mock</title>
<path class="st0" d="M697.4,681.3H102.6c-35.4,0-64.1-28.8-64.2-64.2V314.7c0-35.4,28.8-64.1,64.2-64.2h594.8
	c35.4,0,64.1,28.8,64.2,64.2v302.4C761.6,652.5,732.8,681.2,697.4,681.3z M102.6,304c-5.9,0.1-10.6,4.8-10.7,10.7v302.4
	c0.1,5.9,4.8,10.6,10.7,10.7h594.8c5.9-0.1,10.6-4.8,10.7-10.7V314.7c-0.1-5.9-4.8-10.6-10.7-10.7L102.6,304z"/>
<path class="st0" d="M736.2,723.4H494.6v6.3c0,10.2-8.3,18.5-18.5,18.5l0,0H323.9c-10.2,0-18.5-8.3-18.5-18.5l0,0v-6.3H63.8
	c-14,0-25.4,11.4-25.4,25.4v25.7c0,14,11.4,25.4,25.4,25.4h672.3c14,0,25.4-11.4,25.4-25.4v-25.7
	C761.6,734.8,750.2,723.4,736.2,723.4z"/>
<linearGradient id="SVGID_1_" gradientUnits="userSpaceOnUse" x1="399.8464" y1="161.0502" x2="399.8464" y2="446.4254" gradientTransform="matrix(1 0 0 -1 0 800)">
	<stop  offset="0" style="stop-color:#FFFFFF"/>
	<stop  offset="1" style="stop-color:#5A90CB"/>
</linearGradient>
<path class="st1" d="M481.1,479.5c7.5,0,13.6-6.1,13.6-13.7c0-7.5-6.1-13.6-13.7-13.6c-2.8,0-5.5,0.8-7.7,2.4l-19.2-11
	c0-0.4,0-0.7,0-1.1s0-0.7,0-1.1l19.2-11c6.2,4.3,14.7,2.7,19-3.5c4.3-6.2,2.7-14.7-3.5-19c-4.7-3.2-10.9-3.2-15.5,0l-19.2-11
	c0-0.4,0-0.7,0-1.1c0-7.5-6.1-13.7-13.6-13.7c-7.5,0-13.7,6.1-13.7,13.6c0,7.5,6.1,13.7,13.6,13.7c2.8,0,5.5-0.8,7.8-2.4l19.2,11
	c0,0.4,0,0.7,0,1.1s0,0.7,0,1.1l-19.2,11c-4.7-3.2-10.8-3.2-15.5,0l-19.2-11c0-0.4,0-0.7,0-1.1c0-5.3-3.1-10.1-7.9-12.3v-22.2
	c6.8-3.2,9.7-11.4,6.5-18.2c-3.2-6.8-11.4-9.7-18.2-6.5c-6.8,3.2-9.7,11.4-6.5,18.2c1.3,2.8,3.6,5.1,6.5,6.5v22.2
	c-6.8,3.3-9.6,11.5-6.3,18.2c3.3,6.8,11.5,9.6,18.2,6.3c0.6-0.3,1.2-0.6,1.7-1l19.2,11c0,0.4,0,0.7,0,1.1s0,0.7,0,1.1l-19.2,11
	c-4.7-3.2-10.8-3.2-15.5,0l-19.2-11c0-0.4,0-0.7,0-1.1c0-5.3-3.1-10.1-7.9-12.3v-22.2c6.8-3.2,9.7-11.4,6.5-18.2
	c-3.2-6.8-11.4-9.7-18.2-6.5c-6.8,3.2-9.7,11.4-6.5,18.2c1.3,2.8,3.6,5.1,6.5,6.5v22.2c-0.7,0.3-1.3,0.7-1.9,1.1l-19.2-11
	c0-0.4,0-0.7,0-1.1c0-7.5-6.1-13.7-13.6-13.7c-7.5,0-13.7,6.1-13.7,13.6c0,5.3,3,10.1,7.8,12.3v22.2c-6.8,3.2-9.7,11.4-6.5,18.2
	c3.2,6.8,11.4,9.7,18.2,6.5c6.8-3.2,9.7-11.4,6.5-18.2c-1.3-2.8-3.6-5.1-6.5-6.5v-22.3c0.7-0.3,1.3-0.7,1.9-1.1l19.2,11
	c0,0.4,0,0.7,0,1.1c0,5.3,3.1,10.1,7.9,12.3V477c-4.8,2.2-7.9,7-7.9,12.3c0,0.4,0,0.7,0,1.1l-19.2,11c-6.2-4.3-14.7-2.7-19,3.5
	c-4.3,6.2-2.7,14.7,3.5,19c6.2,4.3,14.7,2.7,19-3.5c1.6-2.3,2.4-5,2.4-7.8c0-0.4,0-0.7,0-1.1l19.2-11c6.2,4.2,14.7,2.6,18.9-3.7
	c4.2-6.2,2.6-14.7-3.7-18.9c-0.5-0.4-1.1-0.7-1.7-1v-22.2c0.7-0.3,1.3-0.7,1.9-1.1l19.2,11c0,0.4,0,0.7,0,1.1
	c0,5.3,3.1,10.1,7.9,12.3v22.2c-4.8,2.2-7.9,7-7.9,12.3c0,0.4,0,0.7,0,1.1l-19.2,11c-6.2-4.3-14.7-2.7-19,3.5
	c-4.3,6.2-2.7,14.7,3.5,19c6.2,4.3,14.7,2.7,19-3.5c1.6-2.3,2.4-5,2.4-7.8c0-0.4,0-0.7,0-1.1l19.2-11c0.6,0.4,1.2,0.8,1.9,1.1v22.2
	c-6.8,3.2-9.7,11.4-6.5,18.2c3.2,6.8,11.4,9.7,18.2,6.5c4.8-2.3,7.8-7.1,7.8-12.3c0-0.4,0-0.7,0-1.1l19.2-11
	c6.2,4.3,14.7,2.7,19-3.5c4.3-6.2,2.7-14.7-3.5-19c-6.2-4.3-14.7-2.7-19,3.5c-1.6,2.3-2.4,5-2.4,7.8c0,0.4,0,0.7,0,1.1l-19.2,11
	c-0.6-0.4-1.2-0.8-1.9-1.1V525c4.8-2.2,7.8-7,7.9-12.3c0-0.4,0-0.7,0-1.1l19.2-11c4.7,3.2,10.8,3.2,15.5,0l19.2,11
	c0,0.4,0,0.7,0,1.1c0,7.5,6.1,13.7,13.6,13.7c7.5,0,13.7-6.1,13.7-13.6c0-7.5-6.1-13.7-13.6-13.7c-2.8,0-5.5,0.8-7.8,2.4l-19.2-11
	c0-0.4,0-0.7,0-1.1c0-7.5-6.1-13.6-13.6-13.6c-7.5,0-13.6,6.1-13.6,13.6c0,0.4,0,0.7,0,1.1l-19.2,11c-0.6-0.4-1.2-0.8-1.9-1.1v-22.2
	c4.8-2.2,7.8-7,7.9-12.3c0-0.4,0-0.7,0-1.1l19.2-11c4.7,3.2,10.8,3.2,15.5,0l19.2,11c0,0.4,0,0.7,0,1.1
	C467.4,473.4,473.5,479.5,481.1,479.5"/>
<linearGradient id="SVGID_2_" gradientUnits="userSpaceOnUse" x1="400.0021" y1="472.3185" x2="400.0021" y2="661.1956" gradientTransform="matrix(1 0 0 -1 0 800)">
	<stop  offset="0" style="stop-color:#F01383"/>
	<stop  offset="1" style="stop-color:#FFA53F"/>
</linearGradient>
<path class="st2" d="M400,142.2c-8.8,0-16,7.1-16.1,16c0,6.8,4.2,12.8,10.6,15.1V329h11V173.2c8.3-3,12.6-12.2,9.6-20.5
	C412.8,146.4,406.8,142.2,400,142.2z"/>
<linearGradient id="SVGID_3_" gradientUnits="userSpaceOnUse" x1="648.2119" y1="624.0761" x2="458.5016" y2="520.3148" gradientTransform="matrix(1 0 0 -1 0 800)">
	<stop  offset="0" style="stop-color:#FFA53F"/>
	<stop  offset="1" style="stop-color:#F01383"/>
</linearGradient>
<path class="st3" d="M649.8,158.3c0-8.9-7.2-16-16-16.1c-8.9,0-16,7.2-16.1,16c0,6.7,4.2,12.8,10.5,15.1v20.3H459.4v165.1h11V204.6
	h168.8v-31.3C645.6,171,649.8,165,649.8,158.3z"/>
<linearGradient id="SVGID_4_" gradientUnits="userSpaceOnUse" x1="130.0162" y1="657.2256" x2="372.8964" y2="499.2253" gradientTransform="matrix(1 0 0 -1 0 800)">
	<stop  offset="0" style="stop-color:#FFA53F"/>
	<stop  offset="1" style="stop-color:#F01383"/>
</linearGradient>
<path class="st4" d="M171.8,173.3c8.3-3,12.6-12.2,9.6-20.6c-3-8.3-12.2-12.6-20.6-9.6c-8.3,3-12.6,12.2-9.6,20.6
	c1.6,4.4,5.1,7.9,9.6,9.6v31.3h168.8v154.1h11V193.6H171.8V173.3z"/>
<rect x="74.6" class="st5" width="183.4" height="122.6"/>
<rect x="308.3" class="st5" width="183.4" height="122.6"/>
<rect x="542" class="st5" width="183.4" height="122.6"/>
<circle class="st6" cx="582.2" cy="61.3" r="16"/>
<circle class="st6" cx="633.7" cy="61.3" r="16"/>
<circle class="st6" cx="685.3" cy="61.3" r="16"/>
<circle class="st6" cx="348.4" cy="61.3" r="16"/>
<circle class="st6" cx="400" cy="61.3" r="16"/>
<circle class="st6" cx="451.6" cy="61.3" r="16"/>
<circle class="st6" cx="114.7" cy="61.3" r="16"/>
<circle class="st6" cx="166.3" cy="61.3" r="16"/>
<circle class="st6" cx="217.8" cy="61.3" r="16"/>
</svg>
