<svg id="Layer_1" data-name="Layer 1" xmlns="http://www.w3.org/2000/svg" xmlns:xlink="http://www.w3.org/1999/xlink" viewBox="0 0 800 800"><defs><style>.cls-1{fill:#2a2e32;}.cls-2{fill:url(#linear-gradient);}.cls-3{fill:url(#linear-gradient-2);}.cls-4{fill:url(#linear-gradient-3);}.cls-5{fill:url(#linear-gradient-4);}.cls-6{fill:#aab3bd;}.cls-7{fill:none;stroke:#6d7987;stroke-miterlimit:10;stroke-width:4px;}</style><linearGradient id="linear-gradient" x1="400" y1="551.99" x2="400" y2="370.47" gradientUnits="userSpaceOnUse"><stop offset="0" stop-color="#fff"/><stop offset="1" stop-color="#5a90cb"/></linearGradient><linearGradient id="linear-gradient-2" x1="400" y1="354" x2="400" y2="233.86" gradientUnits="userSpaceOnUse"><stop offset="0" stop-color="#f01383"/><stop offset="1" stop-color="#ffa53f"/></linearGradient><linearGradient id="linear-gradient-3" x1="557.87" y1="257.45" x2="437.2" y2="323.45" gradientUnits="userSpaceOnUse"><stop offset="0" stop-color="#ffa53f"/><stop offset="1" stop-color="#f01383"/></linearGradient><linearGradient id="linear-gradient-4" x1="228.28" y1="236.37" x2="382.77" y2="336.87" xlink:href="#linear-gradient-3"/></defs><title>mock</title><path class="cls-1" d="M589.18,578.91H210.82A40.87,40.87,0,0,1,170,538.08V345.73a40.87,40.87,0,0,1,40.82-40.82H589.18A40.87,40.87,0,0,1,630,345.73V538.08A40.87,40.87,0,0,1,589.18,578.91Zm-378.35-240a6.92,6.92,0,0,0-6.82,6.82V538.08a6.92,6.92,0,0,0,6.82,6.82H589.18a6.92,6.92,0,0,0,6.82-6.82V345.73a6.92,6.92,0,0,0-6.82-6.82Z"/><path class="cls-1" d="M613.82,605.71H460.17v4a11.75,11.75,0,0,1-11.75,11.75H351.58a11.75,11.75,0,0,1-11.75-11.75v-4H186.18A16.18,16.18,0,0,0,170,621.89v16.36a16.18,16.18,0,0,0,16.18,16.18H613.82A16.18,16.18,0,0,0,630,638.25V621.89A16.18,16.18,0,0,0,613.82,605.71Z"/><path class="cls-2" d="M451.56,450.59a8.68,8.68,0,1,0-4.93-15.83l-12.2-7c0-.23,0-.46,0-.69s0-.46,0-.7l12.2-7a8.68,8.68,0,1,0,0-14.28l-12.2-7c0-.23,0-.46,0-.69a8.69,8.69,0,1,0-3.75,7.14l12.2,7c0,.23,0,.46,0,.7s0,.46,0,.69l-12.2,7a8.67,8.67,0,0,0-9.86,0l-12.2-7c0-.23,0-.46,0-.69a8.67,8.67,0,0,0-5-7.84v-14.1a8.68,8.68,0,1,0-7.44,0v14.1a8.68,8.68,0,1,0,8.65,15l12.2,7c0,.23,0,.46,0,.7s0,.46,0,.69l-12.2,7a8.67,8.67,0,0,0-9.86,0l-12.2-7c0-.23,0-.46,0-.69a8.67,8.67,0,0,0-5-7.84v-14.1a8.68,8.68,0,1,0-7.44,0v14.1a8.77,8.77,0,0,0-1.21.69l-12.2-7c0-.23,0-.46,0-.69a8.68,8.68,0,1,0-12.4,7.83v14.1a8.68,8.68,0,1,0,7.44,0V420a8.51,8.51,0,0,0,1.21-.69l12.2,7c0,.23,0,.46,0,.7a8.67,8.67,0,0,0,5,7.83V449a8.67,8.67,0,0,0-5,7.84c0,.23,0,.46,0,.69l-12.2,7a8.68,8.68,0,1,0,3.75,7.14c0-.23,0-.47,0-.7l12.2-7a8.68,8.68,0,1,0,8.65-15v-14.1a8.5,8.5,0,0,0,1.21-.69l12.2,7c0,.23,0,.46,0,.7a8.67,8.67,0,0,0,5,7.83v14.1a8.67,8.67,0,0,0-5,7.84c0,.23,0,.46,0,.69l-12.2,7a8.68,8.68,0,1,0,3.75,7.14c0-.23,0-.46,0-.69l12.2-7a8.76,8.76,0,0,0,1.21.69v14.1a8.68,8.68,0,1,0,12.4,7.83c0-.23,0-.46,0-.69l12.2-7a8.68,8.68,0,1,0-3.75-7.14c0,.24,0,.47,0,.7l-12.2,7a8.75,8.75,0,0,0-1.21-.69v-14.1a8.67,8.67,0,0,0,5-7.83c0-.23,0-.47,0-.7l12.2-7a8.67,8.67,0,0,0,9.86,0l12.2,7c0,.23,0,.46,0,.7a8.69,8.69,0,1,0,3.75-7.14l-12.2-7c0-.23,0-.46,0-.69a8.68,8.68,0,1,0-17.36,0c0,.23,0,.46,0,.69l-12.2,7a9,9,0,0,0-1.21-.69v-14.1a8.67,8.67,0,0,0,5-7.83c0-.23,0-.47,0-.7l12.2-7a8.67,8.67,0,0,0,9.86,0l12.2,7c0,.23,0,.46,0,.7a8.68,8.68,0,0,0,8.68,8.68"/><path class="cls-3" d="M400,236a10.19,10.19,0,0,0-3.5,19.77v99.1h7v-99.1A10.19,10.19,0,0,0,400,236Z"/><path class="cls-4" d="M558.87,246.24a10.2,10.2,0,1,0-13.7,9.57v12.93H437.79v105h7v-98H552.17V255.81A10.19,10.19,0,0,0,558.87,246.24Z"/><path class="cls-5" d="M254.83,255.81a10.2,10.2,0,1,0-7,0v19.93H355.21v98h7v-105H254.83Z"/><rect class="cls-6" x="193" y="145.57" width="116.67" height="78"/><rect class="cls-6" x="341.67" y="145.57" width="116.67" height="78"/><rect class="cls-6" x="490.33" y="145.57" width="116.67" height="78"/><circle class="cls-7" cx="515.87" cy="184.57" r="10.2"/><circle class="cls-7" cx="548.67" cy="184.57" r="10.2"/><circle class="cls-7" cx="581.46" cy="184.57" r="10.2"/><circle class="cls-7" cx="367.21" cy="184.57" r="10.2"/><circle class="cls-7" cx="400" cy="184.57" r="10.2"/><circle class="cls-7" cx="432.79" cy="184.57" r="10.2"/><circle class="cls-7" cx="218.54" cy="184.57" r="10.2"/><circle class="cls-7" cx="251.33" cy="184.57" r="10.2"/><circle class="cls-7" cx="284.13" cy="184.57" r="10.2"/></svg>