<?xml version="1.0" encoding="utf-8"?>
<!-- Generator: Adobe Illustrator 21.1.0, SVG Export Plug-In . SVG Version: 6.00 Build 0)  -->
<svg version="1.1" id="Capa_1" xmlns="http://www.w3.org/2000/svg" xmlns:xlink="http://www.w3.org/1999/xlink" x="0px" y="0px"
	 viewBox="0 0 48 48" style="enable-background:new 0 0 48 48;" xml:space="preserve">
<style type="text/css">
	.st0{fill:url(#SVGID_1_);}
</style>
<g>
	<g>
		<linearGradient id="SVGID_1_" gradientUnits="userSpaceOnUse" x1="24.0075" y1="0.5" x2="24.0075" y2="47.0107">
			<stop  offset="0" style="stop-color:#B848DD"/>
			<stop  offset="1" style="stop-color:#FF9DC2"/>
		</linearGradient>
		<path class="st0" d="M15.7,8.4v4.8v5.1v14.2c-1.3-0.8-2.8-1.2-4.3-1.2c-4.6,0-8.4,3.7-8.4,8.4c0,4.6,3.7,8.4,8.4,8.4
			c4.6,0,8.3-3.7,8.4-8.4l0,0V17.2L41,11.1v14.3c-1.3-0.8-2.8-1.2-4.4-1.2c-4.6,0-8.4,3.7-8.4,8.3c0,4.6,3.7,8.4,8.4,8.4
			c4.3,0,7.9-3.3,8.3-7.6h0V9.9V6.3V0L15.7,8.4z"/>
	</g>
</g>
</svg>
