<?xml version="1.0" encoding="utf-8"?>
<!-- Generator: Adobe Illustrator 21.1.0, SVG Export Plug-In . SVG Version: 6.00 Build 0)  -->
<svg version="1.1" id="Capa_1" xmlns="http://www.w3.org/2000/svg" xmlns:xlink="http://www.w3.org/1999/xlink" x="0px" y="0px"
	 viewBox="0 0 380 380" style="enable-background:new 0 0 380 380;" xml:space="preserve">
<style type="text/css">
	.st0{fill:url(#SVGID_1_);}
	.st1{fill:url(#SVGID_2_);}
	.st2{fill:url(#SVGID_3_);}
</style>
<g>
	<g>
		<g>
			<linearGradient id="SVGID_1_" gradientUnits="userSpaceOnUse" x1="190" y1="4" x2="190" y2="379.108">
				<stop  offset="3.538830e-03" style="stop-color:#184E68"/>
				<stop  offset="1" style="stop-color:#6CDF90"/>
			</linearGradient>
			<path class="st0" d="M370,35H10C4.5,35,0,39.5,0,45V335c0,5.5,4.5,10,10,10h360c5.5,0,10-4.5,10-10V45C380,39.5,375.5,35,370,35z
				 M342.3,307.3H37.7V72.7h304.6V307.3z"/>
			<linearGradient id="SVGID_2_" gradientUnits="userSpaceOnUse" x1="189.999" y1="4" x2="189.999" y2="379.108">
				<stop  offset="3.538830e-03" style="stop-color:#184E68"/>
				<stop  offset="1" style="stop-color:#6CDF90"/>
			</linearGradient>
			<path class="st1" d="M75.6,283.3h228.9c5.1,0,9.3-4.2,9.3-9.3v-53.2c0-2.4-0.9-4.7-2.6-6.5l-25.5-26.1c-3.5-3.6-9.1-3.7-12.8-0.4
				l-48,43.1l-82.9-75.3c-3.4-3-8.4-3.2-12-0.4c-11.7,9.2-37.9,29.7-60,47.1c-2.2,1.8-3.6,4.4-3.6,7.3V274
				C66.3,279.1,70.4,283.3,75.6,283.3z"/>
			<linearGradient id="SVGID_3_" gradientUnits="userSpaceOnUse" x1="227.6035" y1="4" x2="227.6035" y2="379.108">
				<stop  offset="3.538830e-03" style="stop-color:#184E68"/>
				<stop  offset="1" style="stop-color:#6CDF90"/>
			</linearGradient>
			<path class="st2" d="M227.6,197.8c11.5,0,20.8-9.3,20.8-20.8c0-11.5-9.3-20.8-20.8-20.8c-11.5,0-20.8,9.3-20.8,20.8
				C206.8,188.5,216.1,197.8,227.6,197.8z"/>
		</g>
	</g>
</g>
</svg>
