<?xml version="1.0" encoding="utf-8"?>
<!-- Generator: Adobe Illustrator 21.1.0, SVG Export Plug-In . SVG Version: 6.00 Build 0)  -->
<svg version="1.1" id="Layer_1" xmlns="http://www.w3.org/2000/svg" xmlns:xlink="http://www.w3.org/1999/xlink" x="0px" y="0px"
	 viewBox="0 0 144 144" style="enable-background:new 0 0 144 144;" xml:space="preserve">
<style type="text/css">
	.st0{fill:#FFFFFF;}
</style>
<path class="st0" d="M66.6,16.7c0-2.3,1.9-4.2,4.2-4.2c2.3,0,4.3,1.9,4.3,4.2s-1.9,4.2-4.2,4.2S66.6,19.1,66.6,16.7 M16.3,55
	c0-2.3,1.9-4.2,4.2-4.2c2.3,0,4.2,1.9,4.2,4.2c0,2.3-1.9,4.2-4.2,4.2C18.2,59.2,16.3,57.3,16.3,55 M117,55.1c0-2.3,1.9-4.2,4.2-4.2
	s4.2,1.9,4.2,4.2c0,2.3-1.9,4.2-4.2,4.2S117,57.4,117,55.1 M28.5,61c1.9-0.8,2.9-3.1,1.9-5l-1.9-4.2h7.3v33.2H21.1
	c-1.9-6.4-2.4-13.2-1.6-19.8L28.5,61z M59.2,61.8V52h17.5c1,0,6.4,1.1,6.4,5.2c0,3.4-4.2,4.6-7.7,4.6H59.2z M35.3,114.5
	c0-2.3,1.9-4.2,4.2-4.2c2.3,0,4.2,1.9,4.2,4.2s-1.9,4.2-4.2,4.2C37.2,118.7,35.3,116.8,35.3,114.5 M98,114.7c0-2.3,1.9-4.2,4.2-4.2
	s4.2,1.9,4.2,4.2s-1.9,4.2-4.2,4.2S98,117,98,114.7 M99.2,105.1c-2-0.4-4.1,0.8-4.6,3l-2.2,9.9c-13.9,6.3-29.6,6.1-43.3-0.3
	l-2.2-9.9c-0.4-2-2.4-3.4-4.6-3l-8.7,1.9c-1.6-1.6-3.1-3.4-4.5-5.3h42.5c0.5,0,0.8-0.1,0.8-0.5V85.8c0-0.4-0.3-0.5-0.8-0.5H59.2
	v-9.5h13.5c1.2,0,6.5,0.4,8.3,7.2c0.5,2,1.8,9,2.4,11.1c0.8,2.4,4.1,7.3,7.5,7.3h21.9c-1.5,1.9-3.1,3.8-4.8,5.6L99.2,105.1z
	 M122.8,65.5c0.3,3,0.3,6,0.1,9h-5.3c-0.5,0-0.8,0.4-0.8,0.8v2.6c0,5.7-3.3,7.1-6.1,7.3c-2.7,0.3-5.7-1.1-6.1-2.9
	c-1.6-9-4.2-10.9-8.4-14.3c5.2-3.3,10.6-8.2,10.6-14.8c0-7.1-4.9-11.6-8.2-13.7c-4.6-3.1-9.8-3.7-11.1-3.7H32.3
	c7.6-8.6,17.8-14.3,29.1-16.4l6.5,6.8c1.5,1.5,3.9,1.6,5.4,0.1l7.3-6.9c14.9,2.9,28,12.1,35.6,25.4l-5,11.3c-0.8,1.9,0,4.2,1.9,5
	L122.8,65.5z M135.2,65.6l-0.1-1.8l5.2-4.8c1.1-1,0.7-3-0.7-3.4l-6.5-2.4l-0.5-1.6l4.1-5.7c0.8-1.1,0.1-3-1.4-3.3l-6.9-1.1l-0.8-1.5
	l2.9-6.4c0.5-1.4-0.5-3-1.9-2.9l-7.1,0.3l-1.1-1.4l1.6-6.8c0.3-1.4-1.1-2.9-2.4-2.4l-6.8,1.6l-1.4-1.1l0.3-7.1
	c0-1.4-1.6-2.6-2.9-1.9l-6.4,2.9l-1.5-0.8l-1.2-7.2c-0.3-1.4-2-2.2-3.3-1.4l-5.7,4.1L89,9.1l-2.4-6.5c-0.5-1.4-2.4-1.8-3.4-0.7
	L78.4,7l-1.9-0.1l-3.7-6c-0.8-1.2-2.7-1.2-3.5,0l-3.7,6L63.9,7l-4.8-5.2c-1-1.1-3-0.7-3.4,0.7l-2.4,6.5l-1.6,0.5l-5.7-4.1
	c-1.1-0.8-3,0-3.3,1.4l-1.1,6.9l-1.5,0.8l-6.4-2.9c-1.4-0.5-3,0.5-2.9,1.9l0.3,7.1l-1.4,1.1L23,20.2c-1.4-0.3-2.9,1.1-2.4,2.4
	l1.6,6.8l-1.1,1.4L14,30.5c-1.4,0-2.6,1.6-1.9,2.9l2.9,6.4l-0.8,1.5l-6.9,1.1c-1.4,0.3-2.2,2-1.4,3.3l4.1,5.7L9.4,53l-6.5,2.4
	c-1.4,0.5-1.8,2.4-0.7,3.4l5.2,4.8l-0.4,2l-6,3.7c-1.2,0.8-1.2,2.7,0,3.5l6,3.7l0.1,1.8L1.9,83c-1.1,1-0.7,3,0.7,3.4l6.5,2.4
	l0.5,1.6l-4.1,5.7c-0.8,1.2,0,3,1.4,3.3l6.9,1.1l0.8,1.5l-2.9,6.4c-0.5,1.4,0.5,3,1.9,2.9l7.1-0.3l1.1,1.4l-1.6,6.8
	c-0.3,1.4,1.1,2.9,2.4,2.4l6.8-1.6l1.4,1.1l-0.3,7.1c0,1.4,1.6,2.6,2.9,1.9l6.4-2.9l1.5,0.8l1.1,6.9c0.3,1.4,2,2.2,3.3,1.4l5.7-4.1
	l1.6,0.5l2.4,6.5c0.5,1.4,2.4,1.8,3.4,0.7l4.8-5.2l1.8,0.1l3.7,6c0.7,1.2,2.7,1.2,3.5,0l3.7-6l1.8-0.1l4.8,5.2c1,1.1,3,0.7,3.4-0.7
	l2.4-6.5l1.6-0.5l5.7,4.1c1.1,0.8,3,0,3.3-1.4l1.1-6.9l1.5-0.8l6.4,2.9c1.4,0.5,3-0.5,2.9-1.9l-0.3-7.1l1.4-1.1l6.8,1.6
	c1.4,0.3,2.9-1.1,2.4-2.4l-1.6-6.8l1.1-1.4l7.1,0.3c1.4,0,2.6-1.6,1.9-2.9l-2.9-6.4l0.8-1.5l6.9-1.1c1.4-0.3,2.2-2,1.4-3.3l-4.1-5.7
	l0.5-1.6l6.5-2.4c1.4-0.5,1.8-2.4,0.7-3.4l-5.2-4.8l0.1-1.8l6-3.7c1.2-0.7,1.2-2.7,0-3.5L135.2,65.6z"/>
</svg>
