<?xml version="1.0"?>
<svg xmlns="http://www.w3.org/2000/svg" xmlns:xlink="http://www.w3.org/1999/xlink" version="1.1" viewBox="0 0 252 252" width="480px" height="480px"><g fill="none" fill-rule="nonzero" stroke="none" stroke-width="1" stroke-linecap="butt" stroke-linejoin="miter" stroke-miterlimit="10" stroke-dasharray="" stroke-dashoffset="0" font-family="none" font-weight="none" font-size="none" text-anchor="none" style="mix-blend-mode: normal"><path d="M0,252v-252h252v252z" fill="none"/><g><g id="surface1"><path d="M172.59375,26.25h-93.1875c-5.96777,0 -11.83301,3.42481 -14.78613,8.6543l-46.65527,82.37988c-2.95312,5.31152 -2.95312,12.12012 0,17.43164l46.65527,82.37989c2.95313,5.25 8.81836,8.65429 14.78613,8.65429h93.1875c5.96777,0 11.83301,-3.42481 14.78613,-8.65429l46.65527,-82.37989c2.95313,-5.31152 2.95313,-12.12011 0,-17.43164l-46.65527,-82.37988c-2.95312,-5.22949 -8.81836,-8.6543 -14.78613,-8.6543z" fill="#5593d7"/><path d="M171.21973,178.5h-16.0166c-0.75879,0 -1.49707,-0.47168 -1.8457,-1.14844l-27.11133,-50.30566c-0.14356,-0.2666 -0.18457,-0.57422 -0.24609,-0.84082c-0.06152,0.2666 -0.10254,0.57422 -0.24609,0.84082l-27.19336,50.30566c-0.30762,0.67676 -1.00489,1.08691 -1.76367,1.14844h-16.0166c-1.43555,0 -2.54297,-1.92773 -1.78418,-3.26074l26.49609,-49.23926l-26.49609,-49.34179c-0.65625,-1.18946 0.14356,-2.89161 1.39453,-3.15821h16.40625c0.69727,0 1.39453,0.47168 1.76367,1.08691l27.19336,50.32617c0.14356,0.2666 0.18457,0.51269 0.24609,0.82031c0.06152,-0.30762 0.10254,-0.55371 0.24609,-0.82031l27.11133,-50.32617c0.38964,-0.67676 1.08691,-1.08691 1.8457,-1.08691h16.0166c1.39453,0 2.44043,1.86621 1.78418,3.15821l-26.49609,49.34179l26.49609,49.23926c0.75879,1.33301 -0.34863,3.26074 -1.78418,3.26074z" fill="#ffffff"/></g></g></g></svg>
