<?xml version="1.0" encoding="utf-8"?>
<!-- Generator: Adobe Illustrator 21.1.0, SVG Export Plug-In . SVG Version: 6.00 Build 0)  -->
<svg version="1.1" id="Layer_1" xmlns="http://www.w3.org/2000/svg" xmlns:xlink="http://www.w3.org/1999/xlink" x="0px" y="0px"
	 viewBox="0 0 533 600" style="enable-background:new 0 0 533 600;" xml:space="preserve">
<style type="text/css">
	.st0{fill:#FFFFFF;}
</style>
<g>
	<path class="st0" d="M266.4,601c-8,0-16.1-2.1-23.1-6.2l-73.5-43.5c-11-6.1-5.6-8.3-2-9.6c14.7-5.1,17.6-6.3,33.2-15.1
		c1.6-0.9,3.8-0.6,5.5,0.4l56.5,33.5c2,1.1,4.9,1.1,6.8,0l220.2-127.1c2-1.2,3.4-3.5,3.4-6V173.3c0-2.5-1.3-4.8-3.4-6.1l-220.2-127
		c-2-1.2-4.7-1.2-6.8,0L43,167.3c-2.1,1.2-3.5,3.6-3.5,6v254.2c0,2.4,1.4,4.7,3.5,5.9l60.3,34.9c32.7,16.4,52.8-2.9,52.8-22.3V195
		c0-3.5,2.9-6.3,6.4-6.3h27.9c3.5,0,6.4,2.8,6.4,6.3v251c0,43.7-23.8,68.7-65.2,68.7c-12.7,0-22.8,0-50.7-13.8l-57.8-33.2
		C8.8,459.4,0,444,0,427.5V173.3c0-16.5,8.8-31.9,23.1-40.1L243.3,5.9c13.9-7.9,32.5-7.9,46.3,0l220.2,127.3
		c14.3,8.2,23.1,23.6,23.1,40.1v254.2c0,16.5-8.9,31.9-23.1,40.2L289.6,594.8C282.6,598.9,274.6,601,266.4,601z"/>
	<path class="st0" d="M334.5,425.9c-96.4,0-116.6-44.2-116.6-81.3c0-3.5,2.8-6.3,6.4-6.3h28.5c3.2,0,5.8,2.3,6.3,5.4
		c4.3,29,17.1,43.6,75.4,43.6c46.4,0,66.2-10.5,66.2-35.1c0-14.2-5.6-24.7-77.7-31.8c-60.3-6-97.5-19.3-97.5-67.5
		c0-44.4,37.5-70.9,100.3-70.9c70.6,0,105.5,24.5,109.9,77c0.2,1.8-0.5,3.5-1.7,4.9c-1.2,1.3-2.9,2-4.7,2h-28.6c-3,0-5.6-2.1-6.2-5
		c-6.9-30.5-23.5-40.3-68.8-40.3c-50.7,0-56.5,17.6-56.5,30.9c0,16,6.9,20.7,75.3,29.7c67.7,8.9,99.8,21.6,99.8,69.2
		C444.3,398.4,404.3,425.9,334.5,425.9z"/>
</g>
</svg>
