<?xml version="1.0" encoding="UTF-8"?>
<svg xmlns="http://www.w3.org/2000/svg" xmlns:xlink="http://www.w3.org/1999/xlink" viewBox="0 0 50 50" version="1.1" fill="#ffffff" width="500px" height="500px">
<g id="surface1" fill="#ffffff">
<path style=" " d="M 46.558594 23.253906 L 37.25 6.738281 C 36.660156 5.683594 35.488281 5 34.300781 5 L 15.699219 5 C 14.511719 5 13.339844 5.683594 12.75 6.738281 L 3.441406 23.253906 C 2.851563 24.316406 2.851563 25.683594 3.441406 26.746094 L 12.75 43.261719 C 13.339844 44.316406 14.511719 45 15.699219 45 L 34.300781 45 C 35.488281 45 36.660156 44.3125 37.25 43.261719 L 46.558594 26.746094 C 47.148438 25.683594 47.148438 24.316406 46.558594 23.253906 Z M 33.613281 35 L 30.5625 35 C 30.417969 35 30.277344 34.910156 30.210938 34.78125 L 25.046875 25.199219 C 25.019531 25.148438 24.980469 25.148438 24.953125 25.199219 L 19.773438 34.78125 C 19.714844 34.910156 19.582031 34.988281 19.441406 35 L 16.390625 35 C 16.113281 35 15.902344 34.632813 16.046875 34.378906 L 21.09375 25 L 16.046875 15.601563 C 15.921875 15.375 16.074219 15.050781 16.3125 15 L 19.4375 15 C 19.570313 15 19.703125 15.089844 19.773438 15.207031 L 24.953125 24.792969 C 24.980469 24.84375 25.019531 24.84375 25.046875 24.792969 L 30.207031 15.207031 C 30.285156 15.078125 30.417969 15 30.5625 15 L 33.613281 15 C 33.878906 15 34.078125 15.355469 33.953125 15.601563 L 28.90625 25 L 33.953125 34.378906 C 34.097656 34.632813 33.886719 35 33.613281 35 Z " fill="#ffffff"/>
</g>
</svg>
