<?xml version="1.0" encoding="utf-8"?>
<!-- Generator: Adobe Illustrator 21.1.0, SVG Export Plug-In . SVG Version: 6.00 Build 0)  -->
<svg version="1.1" id="Capa_1" xmlns="http://www.w3.org/2000/svg" xmlns:xlink="http://www.w3.org/1999/xlink" x="0px" y="0px"
	 viewBox="0 0 91.2 91.2" style="enable-background:new 0 0 91.2 91.2;" xml:space="preserve">
<style type="text/css">
	.st0{fill:url(#SVGID_1_);}
</style>
<g>
	<linearGradient id="SVGID_1_" gradientUnits="userSpaceOnUse" x1="45.6015" y1="1" x2="45.6015" y2="91.3389">
		<stop  offset="0" style="stop-color:#5B247A"/>
		<stop  offset="1" style="stop-color:#1BCEDF"/>
	</linearGradient>
	<path class="st0" d="M55,20.4c4.2,2.6,7.2,7.1,7.7,12.3c1.7,0.8,3.6,1.3,5.7,1.3c7.4,0,13.4-6,13.4-13.4c0-7.4-6-13.4-13.4-13.4
		C61.1,7.2,55.1,13.1,55,20.4z M46.3,47.8c7.4,0,13.4-6,13.4-13.4c0-7.4-6-13.4-13.4-13.4s-13.4,6-13.4,13.4
		C32.9,41.8,38.9,47.8,46.3,47.8z M51.9,48.7H40.6c-9.4,0-17.1,7.7-17.1,17.1v13.9l0,0.2l1,0.3c9,2.8,16.8,3.8,23.3,3.8
		c12.6,0,19.9-3.6,20.3-3.8l0.9-0.5h0.1V65.8C69.1,56.4,61.4,48.7,51.9,48.7z M74.1,34.9H62.8c-0.1,4.5-2,8.6-5.1,11.5
		c8.4,2.5,14.5,10.3,14.5,19.5v4.3c11.1-0.4,17.5-3.6,18-3.8l0.9-0.5h0.1V52C91.2,42.6,83.5,34.9,74.1,34.9z M22.8,34
		c2.6,0,5.1-0.8,7.1-2.1c0.7-4.3,2.9-8,6.2-10.6c0-0.3,0-0.5,0-0.8c0-7.4-6-13.4-13.4-13.4c-7.4,0-13.4,6-13.4,13.4
		C9.4,28,15.4,34,22.8,34z M34.8,46.4c-3-2.9-4.9-6.9-5.1-11.4c-0.4,0-0.8-0.1-1.3-0.1H17.1C7.7,34.9,0,42.6,0,52v13.9l0,0.2l1,0.3
		c7.2,2.3,13.7,3.3,19.3,3.6v-4.2C20.3,56.7,26.4,48.9,34.8,46.4z"/>
</g>
</svg>
