<?xml version="1.0" encoding="utf-8"?>
<!-- Generator: Adobe Illustrator 21.1.0, SVG Export Plug-In . SVG Version: 6.00 Build 0)  -->
<svg version="1.1" id="Capa_1" xmlns="http://www.w3.org/2000/svg" xmlns:xlink="http://www.w3.org/1999/xlink" x="0px" y="0px"
	 viewBox="0 0 60 60" style="enable-background:new 0 0 60 60;" xml:space="preserve">
<style type="text/css">
	.st0{fill:url(#SVGID_1_);}
</style>
<linearGradient id="SVGID_1_" gradientUnits="userSpaceOnUse" x1="30" y1="60" x2="30" y2="6.438640e-02">
	<stop  offset="0" style="stop-color:#F02FC2"/>
	<stop  offset="1" style="stop-color:#6094EA"/>
</linearGradient>
<path class="st0" d="M47,4H35l1.8-2.4c0.3-0.4,0.2-1.1-0.2-1.4c-0.4-0.3-1.1-0.2-1.4,0.2L32.5,4h-4.9l-1.7-3.4
	c-0.2-0.5-0.8-0.7-1.3-0.4c-0.5,0.2-0.7,0.8-0.4,1.3L25.4,4H13c-1.7,0-3,1.3-3,3v50c0,1.7,1.3,3,3,3h34c1.7,0,3-1.3,3-3V7
	C50,5.3,48.7,4,47,4z M22,55h-1c-0.6,0-1-0.4-1-1s0.4-1,1-1h1c0.6,0,1,0.4,1,1S22.6,55,22,55z M28,55h-2c-0.6,0-1-0.4-1-1s0.4-1,1-1
	h2c0.6,0,1,0.4,1,1S28.6,55,28,55z M33,55h-1c-0.6,0-1-0.4-1-1s0.4-1,1-1h1c0.6,0,1,0.4,1,1S33.6,55,33,55z M39,55h-2
	c-0.6,0-1-0.4-1-1s0.4-1,1-1h2c0.6,0,1,0.4,1,1S39.6,55,39,55z M39,51H21c-0.6,0-1-0.4-1-1s0.4-1,1-1h18c0.6,0,1,0.4,1,1
	S39.6,51,39,51z M24,46c0-0.6,0.4-1,1-1h10c0.6,0,1,0.4,1,1s-0.4,1-1,1H25C24.4,47,24,46.6,24,46z M48,40h-8.1
	c-0.3-1.2-1.1-2.2-2.2-2.8L34,35.4V35c1.6-0.9,2.8-2.4,3.4-4.4c1-0.5,1.6-1.5,1.6-2.6v-1c0-0.9-0.4-1.8-1.2-2.3
	C37.2,20.9,34.6,19,30,19c-0.2,0-0.4,0-0.6,0c-1.2,0.1-2.4-0.2-3.2-0.7c-0.4-0.3-0.7-0.5-0.9-0.8c-0.4-0.6-1.4-0.6-1.8-0.1
	c-0.2,0.3-0.3,0.6-0.3,0.9c0,0.4,0.1,0.8,0.2,1.3c0.2,1,0.2,1-0.1,1.6c-0.1,0.2-0.2,0.5-0.4,0.9c-0.3,0.8-0.6,1.7-0.7,2.6
	C21.4,25.2,21,26.1,21,27v1c0,1.1,0.6,2.1,1.6,2.6c0.6,2,1.8,3.5,3.4,4.4v0.4l-3.8,1.9c-1.1,0.6-1.8,1.6-2.1,2.8H12V7
	c0-0.6,0.4-1,1-1h13.4l1,2C26.5,8.7,26,9.8,26,11c0,2.2,1.8,4,4,4s4-1.8,4-4s-1.8-4-4-4c-0.3,0-0.6,0-0.8,0.1L28.6,6H47
	c0.6,0,1,0.4,1,1V40z M28.3,9.9l0.8,1.5c0.2,0.4,0.5,0.6,0.9,0.6c0.1,0,0.3,0,0.4-0.1c0.5-0.2,0.7-0.8,0.4-1.3L30.1,9
	c1,0.1,1.9,0.9,1.9,2c0,1.1-0.9,2-2,2s-2-0.9-2-2C28,10.6,28.1,10.2,28.3,9.9z"/>
</svg>
