<?xml version="1.0" encoding="utf-8"?>
<!-- Generator: Adobe Illustrator 21.1.0, SVG Export Plug-In . SVG Version: 6.00 Build 0)  -->
<svg version="1.1" id="Capa_1" xmlns="http://www.w3.org/2000/svg" xmlns:xlink="http://www.w3.org/1999/xlink" x="0px" y="0px"
	 viewBox="0 0 444.5 444.5" style="enable-background:new 0 0 444.5 444.5;" xml:space="preserve">
<style type="text/css">
	.st0{fill:#E9F1F4;}
</style>
<g>
	<path class="st0" d="M231.4,222.3L92.6,361c-7,7-10.6,15.7-10.6,25.8c0,10.2,3.5,18.8,10.6,25.8L114,434c7,7,15.7,10.6,25.8,10.6
		s18.8-3.5,25.8-10.6l186.3-185.7c7-7,10.6-15.7,10.6-25.8s-3.5-18.8-10.6-25.8l-186.2-186c-7-7-15.7-10.6-25.8-10.6
		s-18.8,3.5-25.8,10.6L92.7,32.1c-7,7-10.6,15.6-10.6,25.7s3.5,18.7,10.6,26L231.4,222.3z"/>
</g>
</svg>
