<?xml version="1.0" encoding="utf-8"?>
<!-- Generator: Adobe Illustrator 21.1.0, SVG Export Plug-In . SVG Version: 6.00 Build 0)  -->
<svg version="1.1" id="Capa_1" xmlns="http://www.w3.org/2000/svg" xmlns:xlink="http://www.w3.org/1999/xlink" x="0px" y="0px"
	 viewBox="0 0 104.5 100.8" style="enable-background:new 0 0 104.5 100.8;" xml:space="preserve">
<style type="text/css">
	.st0{fill:#FFFFFF;}
	.st1{fill:#EFCE4A;}
	.st2{fill:#EBBA16;}
	.st3{fill:#EDEADA;}
	.st4{fill:#CEC9AE;}
	.st5{fill:#556080;}
	.st6{fill:#694F87;}
	.st7{fill:#BF4D90;}
</style>
<circle class="st0" cx="52.8" cy="52" r="32.8"/>
<path class="st1" d="M97.1,95.5H66.9c-0.6,0-1.1-0.5-1.1-1.1V76.5h32.5v17.9C98.2,95,97.7,95.5,97.1,95.5z"/>
<path class="st2" d="M80.3,71.5v-3.3c0-0.6-0.5-1.1-1.1-1.1H66.9c-0.6,0-1.1,0.5-1.1,1.1v2.8v5.5h32.5v-3.9c0-0.6-0.5-1.1-1.1-1.1
	L80.3,71.5L80.3,71.5z"/>
<rect x="84.8" y="86" class="st3" width="10.6" height="6.7"/>
<g>
	<path class="st4" d="M87.1,88.8h2.3c0.3,0,0.5-0.3,0.5-0.5c0-0.3-0.3-0.5-0.5-0.5h-2.3c-0.3,0-0.5,0.3-0.5,0.5
		C86.5,88.6,86.7,88.8,87.1,88.8z"/>
	<path class="st4" d="M91.5,88.8h0.5c0.3,0,0.5-0.3,0.5-0.5c0-0.3-0.3-0.5-0.5-0.5h-0.5c-0.3,0-0.5,0.3-0.5,0.5
		C91,88.6,91.2,88.8,91.5,88.8z"/>
	<path class="st4" d="M93.2,89.9h-6.1c-0.3,0-0.5,0.3-0.5,0.5c0,0.3,0.3,0.5,0.5,0.5h6.1c0.3,0,0.5-0.3,0.5-0.5
		C93.7,90.2,93.5,89.9,93.2,89.9z"/>
</g>
<g>
	<g>
		<polygon class="st5" points="52.6,58.9 44.5,54.3 39.5,57 52.6,64.6 65.8,57 60.8,54.3 		"/>
	</g>
	<polygon class="st6" points="52.6,53.2 44.5,48.6 39.5,51.4 52.6,58.9 65.8,51.4 60.8,48.6 	"/>
	<g>
		<circle class="st7" cx="60.1" cy="49.1" r="0.5"/>
		<circle class="st7" cx="61.6" cy="50.6" r="0.5"/>
		<circle class="st7" cx="44.7" cy="49.1" r="0.5"/>
		<circle class="st7" cx="58.6" cy="50.6" r="0.5"/>
		<circle class="st7" cx="43.2" cy="50.6" r="0.5"/>
		<circle class="st7" cx="46.3" cy="50.6" r="0.5"/>
		<circle class="st7" cx="44.7" cy="52.2" r="0.5"/>
		<circle class="st7" cx="47.8" cy="52.2" r="0.5"/>
		<circle class="st7" cx="47.8" cy="55.3" r="0.5"/>
		<circle class="st7" cx="46.3" cy="53.7" r="0.5"/>
		<circle class="st7" cx="49.4" cy="53.7" r="0.5"/>
		<circle class="st7" cx="50.9" cy="55.3" r="0.5"/>
		<circle class="st7" cx="54" cy="55.3" r="0.5"/>
		<circle class="st7" cx="52.5" cy="53.7" r="0.5"/>
		<circle class="st7" cx="55.5" cy="53.7" r="0.5"/>
		<circle class="st7" cx="52.5" cy="56.8" r="0.5"/>
		<circle class="st7" cx="57.1" cy="52.2" r="0.5"/>
		<circle class="st7" cx="60.1" cy="52.2" r="0.5"/>
		<circle class="st7" cx="57.1" cy="55.3" r="0.5"/>
		<circle class="st7" cx="58.6" cy="53.7" r="0.5"/>
		<circle class="st7" cx="63.2" cy="52.2" r="0.5"/>
	</g>
	<polygon class="st7" points="65.8,45.7 52.6,53.2 39.5,45.7 52.6,38.3 	"/>
</g>
<path class="st1" d="M38.3,36.1H8.2c-0.6,0-1.1-0.5-1.1-1.1V17h32.5v17.9C39.5,35.6,39,36.1,38.3,36.1z"/>
<path class="st2" d="M21.6,12V8.7c0-0.6-0.5-1.1-1.1-1.1H8.2C7.6,7.6,7,8.1,7,8.7v2.8V17h32.5v-3.9c0-0.6-0.5-1.1-1.1-1.1L21.6,12
	L21.6,12z"/>
<rect x="26.1" y="26.6" class="st3" width="10.6" height="6.7"/>
<g>
	<path class="st4" d="M28.3,29.4h2.3c0.3,0,0.5-0.3,0.5-0.5c0-0.3-0.3-0.5-0.5-0.5h-2.3c-0.3,0-0.5,0.3-0.5,0.5
		C27.8,29.1,28,29.4,28.3,29.4z"/>
	<path class="st4" d="M32.8,29.4h0.5c0.3,0,0.5-0.3,0.5-0.5c0-0.3-0.3-0.5-0.5-0.5h-0.5c-0.3,0-0.5,0.3-0.5,0.5
		C32.3,29.1,32.5,29.4,32.8,29.4z"/>
	<path class="st4" d="M34.5,30.5h-6.1c-0.3,0-0.5,0.3-0.5,0.5c0,0.3,0.3,0.5,0.5,0.5h6.1c0.3,0,0.5-0.3,0.5-0.5
		C35,30.7,34.7,30.5,34.5,30.5z"/>
</g>
</svg>
