<?xml version="1.0" encoding="utf-8"?>
<!-- Generator: Adobe Illustrator 21.1.0, SVG Export Plug-In . SVG Version: 6.00 Build 0)  -->
<svg version="1.1" id="Capa_1" xmlns="http://www.w3.org/2000/svg" xmlns:xlink="http://www.w3.org/1999/xlink" x="0px" y="0px"
	 viewBox="0 0 795.8 798.8" style="enable-background:new 0 0 795.8 798.8;" xml:space="preserve">
<style type="text/css">
	.st0{fill:#F7FAFB;}
	.st1{fill:#FFFFFF;}
	.st2{fill:#EFCE4A;}
	.st3{fill:#EBBA16;}
	.st4{fill:#EDEADA;}
	.st5{fill:#CEC9AE;}
	.st6{fill:#556080;}
	.st7{fill:#694F87;}
	.st8{fill:#BF4D90;}
</style>
<circle class="st0" cx="397.9" cy="399.9" r="397.9"/>
<circle class="st1" cx="398.5" cy="403" r="177.7"/>
<path class="st2" d="M638.5,638.6H474.9c-3.2,0-5.9-2.7-5.9-5.9v-97H645v97C644.5,635.9,641.8,638.6,638.5,638.6z"/>
<path class="st3" d="M547.5,508.7v-17.9c0-3.2-2.7-5.9-5.9-5.9H475c-3.2,0-5.9,2.7-5.9,5.9V506v29.8h176v-21.1
	c0-3.2-2.7-5.9-5.9-5.9H547.5L547.5,508.7z"/>
<rect x="571.8" y="587.2" class="st4" width="57.4" height="36.3"/>
<g>
	<path class="st5" d="M584.3,602.4h12.5c1.7,0,2.7-1.7,2.7-2.7c0-1.7-1.7-2.7-2.7-2.7h-12.5c-1.7,0-2.7,1.7-2.7,2.7
		C581.1,601.3,582.1,602.4,584.3,602.4z"/>
	<path class="st5" d="M608.2,602.4h2.7c1.7,0,2.7-1.7,2.7-2.7c0-1.7-1.7-2.7-2.7-2.7h-2.7c-1.7,0-2.7,1.7-2.7,2.7
		C605.5,601.3,606.5,602.4,608.2,602.4z"/>
	<path class="st5" d="M617.3,608.4h-33.1c-1.7,0-2.7,1.7-2.7,2.7c0,1.7,1.7,2.7,2.7,2.7h33.1c1.7,0,2.7-1.7,2.7-2.7
		C620,610,619,608.4,617.3,608.4z"/>
</g>
<g>
	<g>
		<polygon class="st6" points="397.4,440.4 353.5,415.4 326.4,430.1 397.4,471.3 468.9,430.1 441.8,415.4 		"/>
	</g>
	<polygon class="st7" points="397.4,409.5 353.5,384.5 326.4,399.7 397.4,440.4 468.9,399.7 441.8,384.5 	"/>
	<g>
		<circle class="st8" cx="438" cy="387.2" r="2.7"/>
		<circle class="st8" cx="446.1" cy="395.4" r="2.7"/>
		<circle class="st8" cx="354.6" cy="387.2" r="2.7"/>
		<circle class="st8" cx="429.9" cy="395.4" r="2.7"/>
		<circle class="st8" cx="346.5" cy="395.4" r="2.7"/>
		<circle class="st8" cx="363.2" cy="395.4" r="2.7"/>
		<circle class="st8" cx="354.6" cy="404.1" r="2.7"/>
		<circle class="st8" cx="371.3" cy="404.1" r="2.7"/>
		<circle class="st8" cx="371.3" cy="420.8" r="2.7"/>
		<circle class="st8" cx="363.2" cy="412.2" r="2.7"/>
		<circle class="st8" cx="380.1" cy="412.2" r="2.7"/>
		<circle class="st8" cx="388.2" cy="420.8" r="2.7"/>
		<circle class="st8" cx="404.9" cy="420.8" r="2.7"/>
		<circle class="st8" cx="396.8" cy="412.2" r="2.7"/>
		<circle class="st8" cx="413.1" cy="412.2" r="2.7"/>
		<circle class="st8" cx="396.8" cy="429" r="2.7"/>
		<circle class="st8" cx="421.8" cy="404.1" r="2.7"/>
		<circle class="st8" cx="438" cy="404.1" r="2.7"/>
		<circle class="st8" cx="421.8" cy="420.8" r="2.7"/>
		<circle class="st8" cx="429.9" cy="412.2" r="2.7"/>
		<circle class="st8" cx="454.8" cy="404.1" r="2.7"/>
	</g>
	<polygon class="st8" points="468.9,368.8 397.4,409.5 326.4,368.8 397.4,328.8 	"/>
</g>
<path class="st2" d="M319.9,316.9H156.8c-3.2,0-5.9-2.7-5.9-5.9v-97.6h176.1v97C326.4,314.1,323.7,316.9,319.9,316.9z"/>
<path class="st3" d="M229.4,186.3v-17.9c0-3.2-2.7-5.9-5.9-5.9h-66.6c-3.2,0-6.5,2.7-6.5,5.9v15.2v29.8h176v-21.1
	c0-3.2-2.7-5.9-5.9-5.9H229.4L229.4,186.3z"/>
<rect x="253.8" y="265.4" class="st4" width="57.4" height="36.3"/>
<g>
	<path class="st5" d="M265.7,280.6h12.5c1.7,0,2.7-1.7,2.7-2.7c0-1.7-1.7-2.7-2.7-2.7h-12.5c-1.7,0-2.7,1.7-2.7,2.7
		C263,278.9,264.1,280.6,265.7,280.6z"/>
	<path class="st5" d="M290.1,280.6h2.7c1.7,0,2.7-1.7,2.7-2.7c0-1.7-1.7-2.7-2.7-2.7h-2.7c-1.7,0-2.7,1.7-2.7,2.7
		C287.4,278.9,288.5,280.6,290.1,280.6z"/>
	<path class="st5" d="M299.3,286.5h-33.1c-1.7,0-2.7,1.7-2.7,2.7c0,1.7,1.7,2.7,2.7,2.7h33.1c1.7,0,2.7-1.7,2.7-2.7
		C302,287.5,300.4,286.5,299.3,286.5z"/>
</g>
</svg>
