<svg xmlns="http://www.w3.org/2000/svg" viewBox="0 0 471.04 471"><defs><style>.cls-1{fill:#6bdce8;}.cls-2{fill:#47adb5;}.cls-3{fill:#fff;}</style></defs><title>Asset 6</title><g id="Layer_2" data-name="Layer 2"><g id="Layer_1-2" data-name="Layer 1"><circle class="cls-1" cx="236" cy="236" r="226"/><path class="cls-1" d="M28,206V153.41c-.68-.33-1.35-.68-2-1a225.07,225.07,0,0,0-15.84,75.87A32.73,32.73,0,0,1,28,206Z"/><path class="cls-1" d="M409.82,150.7l-45.74,26.4c.07.87.13,1.73.13,2.61s-.06,1.74-.13,2.6l45.74,26.4a32.54,32.54,0,1,1-14.06,26.78c0-.88.06-1.75.13-2.61l-45.74-26.4a32.48,32.48,0,0,1-37,0l-45.74,26.4c.08.86.13,1.73.13,2.61A32.5,32.5,0,0,1,249,264.86v52.61a34,34,0,0,1,4.55,2.6l45.91-26.51c-.08-.86-.13-1.73-.13-2.61a32.66,32.66,0,1,1,65.33,0c0,.88-.06,1.75-.13,2.61l45.91,26.51a32.62,32.62,0,0,1,35.75-.89,226.71,226.71,0,0,0-.56-167.76,32.41,32.41,0,0,1-35.81-.74Z"/><path class="cls-1" d="M60.45,320.29l45.74-26.4c-.07-.86-.13-1.72-.13-2.6,0-13,18.94-29.37,18.94-29.37V209.19a32.63,32.63,0,0,1-18.67-29.48c0-.88.07-1.75.13-2.62L60.55,150.58a32,32,0,0,1-4.55,2.6V206a32.66,32.66,0,1,1-45.9,36.53A225.14,225.14,0,0,0,25.69,318.9a32.49,32.49,0,0,1,34.76,1.4Z"/><path class="cls-1" d="M74.67,123.94c0,.88-.06,1.75-.13,2.61l45.91,26.52a33,33,0,0,1,4.55-2.61V96.52a31.5,31.5,0,1,1,27,0v53.82a32.64,32.64,0,0,1,18.67,29.49c0,.88-.06,1.75-.13,2.61l45.92,26.51a32.61,32.61,0,0,1,37.1,0l45.92-26.51c-.08-.87-.13-1.73-.13-2.61s.06-1.75.13-2.62l-45.92-26.51A32.65,32.65,0,1,1,221,94.33V41.84A32.62,32.62,0,0,1,202.34,12.5,225.79,225.79,0,0,0,58.7,95.86,32.64,32.64,0,0,1,74.67,123.94Z"/><path class="cls-1" d="M249,41.84V94.56a32.51,32.51,0,0,1,18.59,29.37c0,.88-.06,1.74-.13,2.6l45.74,26.4a32.5,32.5,0,0,1,37,0l45.74-26.41c-.07-.86-.13-1.72-.13-2.6s.06-1.74.13-2.61l-45.74-26.4a32.53,32.53,0,1,1,14.06-26.77c0,.88-.06,1.74-.13,2.6l45.74,26.41a32.79,32.79,0,0,1,3-1.85,225.75,225.75,0,0,0-145.21-83.1A32.62,32.62,0,0,1,249,41.84Z"/><path class="cls-1" d="M221,429.48v-53a33,33,0,0,1-4.55-2.6l-45.91,26.5c.08.86.13,1.73.13,2.61A32.66,32.66,0,0,1,125.24,433a224.46,224.46,0,0,0,77.11,26.48A32.62,32.62,0,0,1,221,429.48Z"/><path class="cls-1" d="M396.32,347c0-.88.06-1.76.13-2.62l-45.91-26.5a32.6,32.6,0,0,1-37.1,0l-45.91,26.5c.08.86.13,1.74.13,2.62A32.63,32.63,0,0,1,249,376.44v53a32.93,32.93,0,0,1,4.55,2.6l45.91-26.5c-.08-.87-.13-1.73-.13-2.62a32.7,32.7,0,1,1,14.11,26.88l-45.91,26.5c.08.87.13,1.73.13,2.61,0,.28,0,.55,0,.83a225.77,225.77,0,0,0,146-84A32.65,32.65,0,0,1,396.32,347Z"/><path class="cls-1" d="M105.72,397.93a32.65,32.65,0,0,1,50.84-21.84l45.91-26.51c-.07-.86-.13-1.73-.13-2.61A32.63,32.63,0,0,1,221,317.48V265a32.63,32.63,0,0,1-18.67-29.48c0-.88.07-1.76.13-2.62l-45.92-26.51A32,32,0,0,1,152,209v52.94s19.13,16.39,19.13,29.37a32.52,32.52,0,0,1-51,26.77l-45.74,26.4c.07.86.13,1.73.13,2.61a32.52,32.52,0,0,1-16.45,28.28A227.17,227.17,0,0,0,118,428.78,32.67,32.67,0,0,1,105.72,397.93Z"/><path class="cls-2" d="M125.24,433q-3.66-2.06-7.23-4.24A32.62,32.62,0,0,0,125.24,433Z"/><path class="cls-2" d="M10.15,228.24a33.14,33.14,0,0,0-.44,12.21c.1.7.25,1.4.4,2.08-.06-2.17-.1-4.35-.1-6.54C10,233.4,10.06,230.82,10.15,228.24Z"/><path class="cls-2" d="M429,314.29a32.56,32.56,0,0,0-18.55,5.79l-45.91-26.51c.08-.86.13-1.73.13-2.61a32.66,32.66,0,1,0-65.33,0c0,.88.06,1.75.13,2.61l-45.91,26.51a34,34,0,0,0-4.55-2.6V264.86a32.5,32.5,0,0,0,18.59-29.36c0-.88-.06-1.75-.13-2.61l45.74-26.4a32.48,32.48,0,0,0,37,0l45.74,26.4c-.07.86-.13,1.73-.13,2.61a32.56,32.56,0,1,0,14.06-26.78l-45.74-26.4c.07-.86.13-1.72.13-2.6s-.06-1.74-.13-2.61l45.74-26.4a32.41,32.41,0,0,0,35.81.74,225.78,225.78,0,0,0-32.77-56.12,32.79,32.79,0,0,0-3,1.85L364.08,70.75c.07-.86.13-1.72.13-2.6a32.56,32.56,0,1,0-14.06,26.77l45.74,26.4c-.07.87-.13,1.73-.13,2.61s.06,1.74.13,2.6l-45.74,26.41a32.5,32.5,0,0,0-37,0l-45.74-26.4c.08-.86.13-1.72.13-2.6A32.51,32.51,0,0,0,249,94.56V41.84a32.62,32.62,0,0,0,18.66-29.62,227.55,227.55,0,0,0-65.32.28A32.62,32.62,0,0,0,221,41.84V94.33a32.65,32.65,0,1,0,32.55,56.36l45.92,26.51c-.08.87-.13,1.74-.13,2.62s.06,1.75.13,2.61l-45.92,26.51a32.61,32.61,0,0,0-37.1,0l-45.92-26.51c.08-.87.13-1.73.13-2.61A32.64,32.64,0,0,0,152,150.34V96.52a31.5,31.5,0,1,0-27,0v53.94a33,33,0,0,0-4.55,2.61L74.53,126.55c.08-.87.13-1.73.13-2.61a32.64,32.64,0,0,0-16-28.08A225.75,225.75,0,0,0,26,152.36c.66.37,1.33.72,2,1V206a32.73,32.73,0,0,0-17.85,22.23c-.09,2.58-.15,5.16-.15,7.76,0,2.19,0,4.36.1,6.54A32.66,32.66,0,1,0,56,206V153.19a32,32,0,0,0,4.55-2.6l45.92,26.51c-.07.87-.13,1.74-.13,2.62A32.63,32.63,0,0,0,125,209.19v52.72s-18.94,16.4-18.94,29.37c0,.88.07,1.74.13,2.6l-45.74,26.4a32.49,32.49,0,0,0-34.76-1.4,225.72,225.72,0,0,0,32.38,56.45,32.52,32.52,0,0,0,16.45-28.28c0-.88-.06-1.75-.13-2.61l45.74-26.4a32.52,32.52,0,0,0,51-26.77c0-13-19.13-29.37-19.13-29.37V209a32,32,0,0,0,4.55-2.6l45.92,26.51c-.07.87-.13,1.74-.13,2.62A32.63,32.63,0,0,0,221,265v52.5A32.63,32.63,0,0,0,202.34,347c0,.88.07,1.75.13,2.61l-45.91,26.51A32.66,32.66,0,0,0,118,428.78q3.57,2.19,7.23,4.24A32.66,32.66,0,0,0,170.67,403c0-.88-.06-1.75-.13-2.61l45.91-26.5a33,33,0,0,0,4.55,2.6v53a32.62,32.62,0,0,0-18.66,30,227.55,227.55,0,0,0,65.3.28c0-.28,0-.55,0-.83,0-.88-.06-1.75-.13-2.61l45.91-26.5A32.66,32.66,0,1,0,299.33,403c0,.89.06,1.76.13,2.62l-45.91,26.5a32.93,32.93,0,0,0-4.55-2.6v-53A32.63,32.63,0,0,0,267.66,347c0-.88-.06-1.76-.13-2.62l45.91-26.5a32.6,32.6,0,0,0,37.1,0l45.91,26.5c-.08.86-.13,1.74-.13,2.62a32.65,32.65,0,0,0,17.28,28.81,225.74,225.74,0,0,0,32.59-56.58A32.49,32.49,0,0,0,429,314.29Z"/><path class="cls-3" d="M471,234.4l-.12-4.74-.46-19-.71.57A235.5,235.5,0,0,0,69,69,235.85,235.85,0,0,0,6.18,289.28l-.72-.2,5.2,16.66v0l1.54,4.93.07,0A237.69,237.69,0,0,0,94.69,424.28,235.51,235.51,0,0,0,471,235.5c0-.35,0-.71,0-1.06ZM82.41,82.41A216.5,216.5,0,0,1,451.76,225.36l-.9.69c-.92.7-1.86,1.39-2.8,2.09s-1.89,1.4-2.86,2.09-1.92,1.36-2.88,2-2,1.37-2.94,2-2,1.33-3,2-2,1.34-3,2l-3,2-3.1,2-3.12,1.91-3.19,1.91-3.2,1.86-3.27,1.87-3.26,1.81-3.35,1.82-3.32,1.76L401.08,257l-3.39,1.71L395,260a68.49,68.49,0,0,0-128.77,41.3l-2.59.48c-1.6.29-3.2.56-4.81.83l-3.91.67c-1.64.27-3.29.52-4.93.78l-3.85.6c-1.7.25-3.4.49-5.1.73l-3.74.53c-1.81.24-3.63.46-5.45.69l-3.44.43c-2,.24-4.11.46-6.17.69l-2.79.31q-4.49.47-9,.87-3.08.27-6.15.51l-2.24.17-3.89.29-2.72.17-3.4.21-2.91.16-3.2.17-3,.13-3.06.13-3.12.1-3,.09-3.15.07-2.91.06-3.17,0-2.87,0h-6l-3.24,0-2.76,0-3.26-.06-2.71-.06-3.28-.09-2.68-.08-3.28-.12-2.66-.11-3.29-.16-2.62-.14-3.29-.19L120,310l-3.28-.23-2.58-.19-3.27-.26-2.57-.22-3.25-.3-2.54-.25-3.24-.33L96.76,308l-3.23-.37-2.51-.3-3.21-.4-2.5-.33-3.18-.43-2.49-.36-3.17-.47L74,304.93l-3.14-.5L68.38,304l-3.08-.53L62.79,303l-3-.55L57.24,302l-3-.58-2.57-.53-2.88-.6-2.63-.57-2.78-.61-2.72-.63-2.64-.62-2.88-.71-2.43-.6-3.24-.84-2-.53-.16,0A216.86,216.86,0,0,1,82.41,82.41ZM395.5,291a61.49,61.49,0,0,1-116.64,27.19l4.55-.94,3.68-.78c1.7-.37,3.39-.75,5.08-1.13l3.48-.79c1.82-.42,3.63-.86,5.43-1.3l3-.73,1.5-.38A35.49,35.49,0,0,0,370,291.67l2.06-.82,4.17-1.69,3.36-1.38c1.41-.59,2.82-1.19,4.22-1.79l3.2-1.38c1.48-.65,2.94-1.31,4.4-2l2.88-1.3.41-.19A61.65,61.65,0,0,1,395.5,291Zm-123,0a61.48,61.48,0,0,1,116.22-28l-1.58.74-3.52,1.61L380,267l-3.57,1.56-3.73,1.58-3.62,1.5-3.81,1.53-.28.11a35.5,35.5,0,0,0-66,18.24c0,.91,0,1.81.11,2.71l-1.33.33-4.44,1.05-4,.93-4.52,1-4,.86c-1.53.32-3.07.63-4.61.94l-3.12.63A61.71,61.71,0,0,1,272.5,291Zm116.09,97.59a216.53,216.53,0,0,1-282.53,20.47,218.86,218.86,0,0,1-71.34-92.46l1.9.43q3.52.82,7.07,1.59l3.29.69q3.22.67,6.46,1.3l3.38.65q3.51.65,7.06,1.26l2.7.47q4.88.81,9.82,1.53l1.66.23q4.12.59,8.28,1.12l3.35.4q3.39.41,6.81.77l3.62.38q3.48.35,7,.65l3.28.29q4.73.38,9.49.69l.75.05q5.13.32,10.29.55l3.2.13q3.62.14,7.26.25l3.75.09q3.5.07,7,.1l3.62,0h1.76q3.9,0,7.81-.06l1.63,0q4.91-.08,9.84-.23l.79,0q5.1-.17,10.22-.43l2-.1q5-.26,10-.61l1.87-.13q5.24-.38,10.5-.83,4.54-.4,9.07-.87l3-.33c2-.22,4-.44,6.06-.68l3.51-.44c1.82-.23,3.65-.45,5.47-.7l3.72-.51,5.2-.74L252,323l5.06-.8,3.85-.64,5-.87,3.83-.7,2.06-.37a68.48,68.48,0,0,0,129.49-41.52l.19-.09q3.52-1.7,7-3.44l2.25-1.16c1.55-.8,3.11-1.6,4.64-2.41l2.72-1.47c1.35-.73,2.7-1.46,4-2.2l2.84-1.6c1.26-.72,2.53-1.43,3.78-2.16l2.85-1.68q1.83-1.08,3.63-2.18l2.81-1.74q1.78-1.11,3.53-2.23l2.74-1.77q1.74-1.14,3.46-2.29l2.64-1.79,1.25-.84A214.92,214.92,0,0,1,388.59,388.59Z"/></g></g></svg>