<svg id="Layer_1" data-name="Layer 1" xmlns="http://www.w3.org/2000/svg" viewBox="0 0 57 57"><defs><style>.cls-1{fill:#555;}</style></defs><title>Artboard 154</title><path class="cls-1" d="M54.71,0H2.29A2.29,2.29,0,0,0,0,2.29v11H57v-11A2.29,2.29,0,0,0,54.71,0Z"/><path class="cls-1" d="M7,57H50a4.19,4.19,0,0,0,4.19-4.19V15.2H2.85V52.81A4.19,4.19,0,0,0,7,57ZM52.25,45.6v6.26A3.24,3.24,0,0,1,49,55.1H42.75A9.5,9.5,0,0,1,52.25,45.6ZM20,26.6a.95.95,0,0,1,1.9,0V28a1.43,1.43,0,0,0,1.43,1.43H33.72A1.43,1.43,0,0,0,35.15,28V26.6a.95.95,0,1,1,1.9,0V28a3.33,3.33,0,0,1-3.33,3.33H23.28A3.33,3.33,0,0,1,20,28Zm-15.2,19a9.5,9.5,0,0,1,9.5,9.5H8a3.24,3.24,0,0,1-3.24-3.24Z"/></svg>