<svg id="Layer_1" data-name="Layer 1" xmlns="http://www.w3.org/2000/svg" viewBox="0 0 63.91 56"><defs><style>.cls-1{fill:#555;}</style></defs><title>Artboard 17</title><path class="cls-1" d="M63,4.08a3.25,3.25,0,0,0-4.48,0L29,33.56,16.71,21.24a3.25,3.25,0,0,0-4.48,0,3.17,3.17,0,0,0,0,4.48L26.79,40.28a3.17,3.17,0,0,0,4.48,0L63,8.56a3.17,3.17,0,0,0,0-4.48Z"/><path class="cls-1" d="M24.29,42,10,27.72a6,6,0,0,1-1.73-3.14,5.83,5.83,0,0,1,9.82-5.21L28.53,29.82,56,2.35V0H0V56H56V18.78L32.64,42.15a5.81,5.81,0,0,1-5.21,1.6A6,6,0,0,1,24.29,42Z"/></svg>