<svg id="Layer_1" data-name="Layer 1" xmlns="http://www.w3.org/2000/svg" viewBox="0 0 67 43.07"><defs><style>.cls-1{fill:#555;}</style></defs><title>Artboard 21</title><path class="cls-1" d="M29.91,43.07H13a13,13,0,0,1-13-13A14.22,14.22,0,0,1,7.7,17.83l.68-.32v-.75c0-.15,0-.31,0-.46v-.44c0-.1,0-.19,0-.29a8.32,8.32,0,0,1,9.47-8.29l.28,0a8.16,8.16,0,0,1,.94.21l.13,0a8.15,8.15,0,0,1,1,.38l.25.12a8.36,8.36,0,0,1,4.68,7.5,1.2,1.2,0,1,0,2.39,0,10.74,10.74,0,0,0-3.83-8.22A19,19,0,0,1,38.39,0,18.06,18.06,0,0,1,56.15,16.62a22.85,22.85,0,0,0-4.89.15,1.2,1.2,0,0,0,.18,2.38h.18a22,22,0,0,1,5.6,0,12.08,12.08,0,0,1-2.55,23.94H29.91Z"/></svg>