<svg id="Layer_1" data-name="Layer 1" xmlns="http://www.w3.org/2000/svg" viewBox="0 0 52.88 65"><defs><style>.cls-1{fill:#555;}</style></defs><title>Artboard 25</title><path class="cls-1" d="M51.78,6.61H36.31a8.76,8.76,0,0,0-2-5.19A4.66,4.66,0,0,0,30.85,0h-11a4.66,4.66,0,0,0-3.46,1.42,8.76,8.76,0,0,0-2,5.19H1.1a1.1,1.1,0,1,0,0,2.2H3.35l2.11,50.7c0,1.9,1.22,5.49,5.41,5.49H42a5.34,5.34,0,0,0,5.41-5.46L49.53,8.81h2.25a1.1,1.1,0,0,0,0-2.2Zm-35.25,48a1.1,1.1,0,0,1-2.2,0V18.29a1.1,1.1,0,0,1,2.2,0Zm11,0a1.1,1.1,0,0,1-2.2,0V18.29a1.1,1.1,0,0,1,2.2,0Zm11,0a1.1,1.1,0,0,1-2.2,0V18.29a1.1,1.1,0,0,1,2.2,0ZM17.95,3a2.5,2.5,0,0,1,1.88-.75h11A2.5,2.5,0,0,1,32.73,3a6.48,6.48,0,0,1,1.37,3.66H16.58A6.49,6.49,0,0,1,17.95,3Z"/></svg>