<svg id="Layer_1" data-name="Layer 1" xmlns="http://www.w3.org/2000/svg" viewBox="0 0 64 64"><defs><style>.cls-1{fill:#555;}</style></defs><title>Artboard 18</title><path class="cls-1" d="M32-.4a32,32,0,1,0,32,32A32,32,0,0,0,32-.4ZM45.71,46H18.38a2.34,2.34,0,0,1-2.27-1.54,2.29,2.29,0,0,1,2.17-3H45.62A2.34,2.34,0,0,1,47.88,43,2.29,2.29,0,0,1,45.71,46Zm0-12.57H18.38a2.34,2.34,0,0,1-2.27-1.54,2.29,2.29,0,0,1,2.17-3H45.62a2.34,2.34,0,0,1,2.27,1.54A2.29,2.29,0,0,1,45.71,33.43Zm0-12.57H18.38a2.34,2.34,0,0,1-2.27-1.54,2.29,2.29,0,0,1,2.17-3H45.62a2.34,2.34,0,0,1,2.27,1.54A2.29,2.29,0,0,1,45.71,20.86Z"/></svg>