<svg id="Layer_1" data-name="Layer 1" xmlns="http://www.w3.org/2000/svg" viewBox="0 0 55.71 65"><defs><style>.cls-1{fill:#555;}</style></defs><title>Artboard 34</title><path class="cls-1" d="M24.72,45.61a1.16,1.16,0,1,0,1.64,1.64L40.28,33.32a1.15,1.15,0,0,0,.25-.38,1.16,1.16,0,0,0,0-.89,1.19,1.19,0,0,0-.25-.38L26.36,17.75a1.16,1.16,0,0,0-1.64,1.64L36.66,31.34H1.16a1.16,1.16,0,0,0,0,2.32h35.5Z"/><path class="cls-1" d="M54.55,0H11.61a1.16,1.16,0,0,0-1.16,1.16V26.7h15L21,22.22a2.63,2.63,0,0,1-.47-.62,5.89,5.89,0,0,1,8.06-8.05,2.64,2.64,0,0,1,.62.47L43.56,28.39a5.82,5.82,0,0,1,.73.89,3.1,3.1,0,0,1,.2.35l.11.2a4.11,4.11,0,0,1,.23.45,4.06,4.06,0,0,1,.16.48L45,31a3.45,3.45,0,0,1,.11.4,5.79,5.79,0,0,1,0,2.27A3.29,3.29,0,0,1,45,34l-.06.21a3.88,3.88,0,0,1-.16.48,4.64,4.64,0,0,1-.24.47l-.1.19a3.16,3.16,0,0,1-.19.34,5.84,5.84,0,0,1-.73.89L29.64,50.53a5.8,5.8,0,0,1-8.21,0,6,6,0,0,1-.92-7.13,2.64,2.64,0,0,1,.47-.62l4.47-4.47h-15V63.84A1.16,1.16,0,0,0,11.61,65H54.55a1.16,1.16,0,0,0,1.16-1.16V1.16A1.16,1.16,0,0,0,54.55,0Z"/></svg>