<svg id="Layer_1" data-name="Layer 1" xmlns="http://www.w3.org/2000/svg" viewBox="0 0 57.8 59"><defs><style>.cls-1{fill:#555;}</style></defs><title>Artboard 13</title><rect class="cls-1" x="32.51" y="6.02" width="7.22" height="12.04"/><path class="cls-1" d="M47.46,0H0V59H57.8V10.34ZM12,2.41H43.35V21.67H12ZM47,56.59H9.63V31.31H47Z"/><path class="cls-1" d="M15.65,38.53h8.43a1.2,1.2,0,1,0,0-2.41H15.65a1.2,1.2,0,0,0,0,2.41Z"/><path class="cls-1" d="M15.65,43.35h12a1.2,1.2,0,0,0,0-2.41h-12a1.2,1.2,0,0,0,0,2.41Z"/><path class="cls-1" d="M31.31,43.35a1.24,1.24,0,0,0,.85-.35,1.22,1.22,0,0,0,0-1.71,1.25,1.25,0,0,0-1.7,0,1.2,1.2,0,0,0-.36.85,1.19,1.19,0,0,0,1.2,1.2Z"/></svg>