<svg id="Layer_1" data-name="Layer 1" xmlns="http://www.w3.org/2000/svg" viewBox="0 0 69 45.93"><defs><style>.cls-1{fill:#555;}</style></defs><title>Artboard 7</title><path class="cls-1" d="M69,1h0a1.09,1.09,0,0,0-.15-.39h0a1.13,1.13,0,0,0-.27-.29l-.07,0a1.09,1.09,0,0,0-.27-.13L68,0a1.06,1.06,0,0,0-.15,0h-.18l-.09,0L.92,13.8a1.15,1.15,0,0,0-.3,2.14L19.71,26l3.35,18.59s0,0,0,0a1.08,1.08,0,0,0,0,.27,1.06,1.06,0,0,0,0,.13,1.11,1.11,0,0,0,.13.31s0,0,0,.06h0l.05.06a1.17,1.17,0,0,0,.17.18l0,0,.05,0a1.17,1.17,0,0,0,.22.11l.09,0a1.15,1.15,0,0,0,.32.05h.08a1.14,1.14,0,0,0,.82-.36L37.8,37.09l13.32,8.66a1.15,1.15,0,0,0,1.7-.57l16-43.44a1.14,1.14,0,0,0,.17-.6A1.25,1.25,0,0,0,69,1ZM55.66,8.67,28.1,28.93,28,29l0,0-.07.08-.06.08a1.17,1.17,0,0,0-.11.22l0,0h0L24.53,39.78,22,25.9ZM26.31,42l3.13-10.34,4.87,3.17,1.39.91L31,38.89Z"/></svg>