<svg id="Layer_1" data-name="Layer 1" xmlns="http://www.w3.org/2000/svg" viewBox="0 0 60.4 62.73"><defs><style>.cls-1{fill:#555;}</style></defs><title>Artboard 32</title><path class="cls-1" d="M60.07,60.72l-17.6-18.3A24.89,24.89,0,1,0,40.72,44L58.36,62.37a1.18,1.18,0,1,0,1.71-1.64ZM33.65,26.92H27.83v5.82a2.43,2.43,0,0,1-1.59,2.35,2.38,2.38,0,0,1-3.14-2.25V26.92H17.27a2.43,2.43,0,0,1-2.35-1.59,2.38,2.38,0,0,1,2.25-3.14h5.92V16.36A2.43,2.43,0,0,1,24.69,14a2.38,2.38,0,0,1,3.14,2.25v5.92h5.92A2.38,2.38,0,0,1,36,25.33,2.43,2.43,0,0,1,33.65,26.92Z"/></svg>