<svg id="Layer_1" data-name="Layer 1" xmlns="http://www.w3.org/2000/svg" viewBox="0 0 55.29 57.9"><defs><style>.cls-1{fill:#c2c2c2;}</style></defs><title>Artboard 28 copy</title><path class="cls-1" d="M14.51,57.9A14.52,14.52,0,0,1,4.24,33.13l30-30c4.3-4.29,11-4.1,15.53.45s4.75,11.23.46,15.53L22,47.29a6.8,6.8,0,0,1-9.61-9.61L31.54,18.57a1.65,1.65,0,1,1,2.33,2.33L14.76,40A3.5,3.5,0,0,0,19.71,45L47.92,16.75c3-3,2.77-7.64-.46-10.86s-7.9-3.42-10.86-.45l-30,30A11.22,11.22,0,0,0,22.44,51.33l30-30a1.65,1.65,0,0,1,2.33,2.33l-30,30A14.42,14.42,0,0,1,14.51,57.9Z"/></svg>