<svg id="Layer_1" data-name="Layer 1" xmlns="http://www.w3.org/2000/svg" viewBox="0 0 53.96 61.42"><defs><style>.cls-1{fill:#c2c2c2;}</style></defs><title>Artboard 37 copy</title><path class="cls-1" d="M53.63,50.59A25,25,0,0,1,45.79,32.4V22.33A16.22,16.22,0,0,0,36.28,7.6a21.55,21.55,0,0,0-3.9-1.31V5.8A5.73,5.73,0,0,0,28,.12a5.59,5.59,0,0,0-6.75,5.47v.79A21.26,21.26,0,0,0,17.7,7.6c-4.89,2.25-9.85,7.69-9.89,14.74V32.4A24.76,24.76,0,0,1,.33,50.59a1.12,1.12,0,0,0,.6,1.89l10.59,1.83c2,.34,3.81.62,5.52.85a11.26,11.26,0,0,0,10,6.27,11.26,11.26,0,0,0,10-6.27c1.7-.22,3.5-.5,5.49-.84L53,52.48a1.12,1.12,0,0,0,.6-1.89Zm-30.18-45a3.36,3.36,0,0,1,4.44-3.18,3.41,3.41,0,0,1,2.26,3.29V5.8a22.54,22.54,0,0,0-6.7.06ZM15,23.93h0a1.12,1.12,0,0,1-1.11-1.12c0-5.23,4.19-8.54,6.64-9.67a17.07,17.07,0,0,1,13.93,0,1.12,1.12,0,1,1-.93,2,14.79,14.79,0,0,0-12.06,0c-2,.91-5.32,3.54-5.34,7.65A1.12,1.12,0,0,1,15,23.93ZM34.66,55.49a8.79,8.79,0,0,1-14.35,0h0l1.3.12.62.06.46,0a64.08,64.08,0,0,0,9.48,0l.56,0,.74-.07,1.14-.11Z"/></svg>