<svg id="Layer_1" data-name="Layer 1" xmlns="http://www.w3.org/2000/svg" viewBox="0 0 66 43"><defs><style>.cls-1{fill:#c2c2c2;}</style></defs><title>Artboard 29 copy</title><path class="cls-1" d="M63.5,6.5H16a2.5,2.5,0,0,1,0-5H63.5a2.5,2.5,0,0,1,0,5Z"/><circle class="cls-1" cx="4" cy="4" r="4"/><path class="cls-1" d="M63.5,23.5H16a2.5,2.5,0,0,1,0-5H63.5a2.5,2.5,0,0,1,0,5Z"/><circle class="cls-1" cx="4" cy="21.5" r="4"/><path class="cls-1" d="M63.5,41.5H16a2.5,2.5,0,0,1,0-5H63.5a2.5,2.5,0,0,1,0,5Z"/><circle class="cls-1" cx="4" cy="39" r="4"/></svg>