<svg id="Layer_1" data-name="Layer 1" xmlns="http://www.w3.org/2000/svg" viewBox="0 0 65 60.19"><defs><style>.cls-1{fill:#c2c2c2;}</style></defs><title>Artboard 141</title><path class="cls-1" d="M43.33,46.94v4.81H1.2a1.2,1.2,0,0,0,0,2.41H43.33V59a1.2,1.2,0,0,0,1.2,1.2H59a1.2,1.2,0,0,0,1.2-1.2V54.17H63.8a1.2,1.2,0,0,0,0-2.41H60.19V46.94a1.2,1.2,0,0,0-1.2-1.2H44.54A1.2,1.2,0,0,0,43.33,46.94Z"/><path class="cls-1" d="M24.07,24.07v4.81H1.2a1.2,1.2,0,0,0,0,2.41H24.07v4.81a1.2,1.2,0,0,0,1.2,1.2H39.72a1.2,1.2,0,0,0,1.2-1.2V31.3H63.8a1.2,1.2,0,0,0,0-2.41H40.93V24.07a1.2,1.2,0,0,0-1.2-1.2H25.28A1.2,1.2,0,0,0,24.07,24.07Z"/><path class="cls-1" d="M4.81,1.2V6H1.2a1.2,1.2,0,1,0,0,2.41H4.81v4.81A1.2,1.2,0,0,0,6,14.44H20.46a1.2,1.2,0,0,0,1.2-1.2V8.43H63.8A1.2,1.2,0,0,0,63.8,6H21.67V1.2A1.2,1.2,0,0,0,20.46,0H6A1.2,1.2,0,0,0,4.81,1.2Z"/></svg>