<svg id="Layer_1" data-name="Layer 1" xmlns="http://www.w3.org/2000/svg" viewBox="0 0 50.71 68"><defs><style>.cls-1{fill:#c2c2c2;}</style></defs><title>Artboard 14 copy</title><path class="cls-1" d="M15.44,31.82a2.3,2.3,0,0,0-3.26,3.26l11.5,11.5a2.3,2.3,0,0,0,1.63.68h0a2.3,2.3,0,0,0,1.86-1L38.49,35a2.3,2.3,0,1,0-3.26-3.26l-7.57,7.57v-37a2.31,2.31,0,1,0-4.61,0V39.43Z"/><path class="cls-1" d="M30,18.44V33.77l3.63-3.63a4.61,4.61,0,0,1,6.52,6.52L28.85,47.93a4.58,4.58,0,0,1-3.49,1.63h0A4.61,4.61,0,0,1,22,48.21l-11.5-11.5a4.61,4.61,0,1,1,6.52-6.52l3.68,3.68V18.44H0V68H50.71V18.44Z"/></svg>