<svg id="Layer_1" data-name="Layer 1" xmlns="http://www.w3.org/2000/svg" viewBox="0 0 53.33 64"><defs><style>.cls-1{fill:#c2c2c2;}</style></defs><title>Artboard 12 copy</title><path class="cls-1" d="M52.27,61.87h-3.2V57.6H43.73V46.7a8.6,8.6,0,0,0-3.83-7.15L28.59,32l11.32-7.54a8.6,8.6,0,0,0,3.83-7.15V6.4h5.33V2.13h3.2a1.07,1.07,0,0,0,0-2.13H1.07a1.07,1.07,0,1,0,0,2.13h3.2V6.4H9.6V17.3a8.6,8.6,0,0,0,3.83,7.15L24.74,32,13.43,39.54A8.6,8.6,0,0,0,9.6,46.7V57.6H4.27v4.27H1.07a1.07,1.07,0,1,0,0,2.13h51.2a1.07,1.07,0,0,0,0-2.13ZM14.61,22.68a6.45,6.45,0,0,1-2.88-5.38V6.4H41.6V17.3a6.45,6.45,0,0,1-2.88,5.38l-12.06,8Zm-2.88,24a6.45,6.45,0,0,1,2.88-5.38l12.06-8,12.06,8A6.45,6.45,0,0,1,41.6,46.7V57.6H11.73Z"/><path class="cls-1" d="M17,19.56a2.2,2.2,0,0,1-1-1.83V15.36a1.07,1.07,0,1,0-2.13,0v2.37a4.33,4.33,0,0,0,1.93,3.6l4.95,3.3a1.07,1.07,0,1,0,1.18-1.77Z"/><path class="cls-1" d="M39.47,48a4.33,4.33,0,0,0-1.93-3.6l-4.95-3.3a1.07,1.07,0,1,0-1.18,1.77l4.95,3.3a2.2,2.2,0,0,1,1,1.83v2.37a1.07,1.07,0,0,0,2.13,0Z"/></svg>