<svg id="Layer_1" data-name="Layer 1" xmlns="http://www.w3.org/2000/svg" viewBox="0 0 67 67"><defs><style>.cls-1{fill:#c2c2c2;}</style></defs><title>Artboard 142</title><path class="cls-1" d="M47.36,0A19.6,19.6,0,0,0,30.54,29.72L.68,59.59a2.31,2.31,0,1,0,3.27,3.27l4.14-4.14,7.61,7.61A2.31,2.31,0,1,0,19,63.06l-7.61-7.61,2.51-2.51,5.3,5.3A2.31,2.31,0,1,0,22.43,55l-5.3-5.3,2.51-2.51,7.61,7.61a2.31,2.31,0,1,0,3.27-3.27L22.9,43.9,33.39,33.41A19.63,19.63,0,1,0,47.36,0Zm0,34.66a15,15,0,1,1,15-15A15,15,0,0,1,47.36,34.66Z"/></svg>