<svg id="Layer_1" data-name="Layer 1" xmlns="http://www.w3.org/2000/svg" viewBox="0 0 59.74 62"><defs><style>.cls-1{fill:#c2c2c2;}</style></defs><title>Artboard 33 copy</title><path class="cls-1" d="M59.66,26.62a1.15,1.15,0,0,0-.24-.37L45.89,12.73a1.13,1.13,0,0,0-1.59,1.59l11.6,11.6H31.56a1.13,1.13,0,1,0,0,2.25H55.9l-11.6,11.6a1.13,1.13,0,1,0,1.59,1.59L59.41,27.85a1.12,1.12,0,0,0,.24-.37A1.13,1.13,0,0,0,59.66,26.62Z"/><path class="cls-1" d="M39.45,32.69a1.13,1.13,0,0,0-1.13,1.13v18H27.05V9a1.13,1.13,0,0,0-.79-1.07L8.39,2.25H38.33v18a1.13,1.13,0,1,0,2.25,0V1.13A1.13,1.13,0,0,0,39.45,0H1.13L1,0,.85.06A1.1,1.1,0,0,0,.55.18L.46.22.37.3.31.36A1.17,1.17,0,0,0,.1.66l0,.07a1.12,1.12,0,0,0-.08.4V53a1.11,1.11,0,0,0,.08.4,1.13,1.13,0,0,0,.06.12,1.08,1.08,0,0,0,.15.22l.1.1A1.11,1.11,0,0,0,.61,54L.73,54l.05,0,24.8,7.89a1.17,1.17,0,0,0,.34.05,1.13,1.13,0,0,0,1.13-1.13V54.11h12.4A1.13,1.13,0,0,0,40.58,53V33.82A1.13,1.13,0,0,0,39.45,32.69Z"/></svg>