<svg id="Layer_1" data-name="Layer 1" xmlns="http://www.w3.org/2000/svg" viewBox="0 0 68.85 68.85"><defs><style>.cls-1{fill:#c2c2c2;}</style></defs><title>Artboard 11 copy</title><path class="cls-1" d="M.65,64.72,0,67.31a1.24,1.24,0,0,0,0,.25s0,0,0,0A1.24,1.24,0,0,0,.08,68l0,.09a1.24,1.24,0,0,0,.24.37,1.25,1.25,0,0,0,.41.27,1.24,1.24,0,0,0,.47.09,1.25,1.25,0,0,0,.29,0l2.6-.62Z"/><path class="cls-1" d="M65.57,3.28a11.23,11.23,0,0,0-15.86,0L4.77,48.22l-.05.07-.07.09a1.21,1.21,0,0,0-.16.3l0,.09v0L1.33,61.87,7,67.52,20,64.41l.1,0,.12,0a1.23,1.23,0,0,0,.25-.15l.09-.07,0,0L65.57,19.14A11.23,11.23,0,0,0,65.57,3.28ZM21.38,59.81l.44-4L49.71,28a1.25,1.25,0,1,0-1.76-1.76L20.06,54.08l-5.95.66.66-5.95L42.66,20.9a1.25,1.25,0,1,0-1.76-1.76L13,47l-4,.44L43.54,13,55.88,25.31ZM57.64,23.55,45.3,11.21l1.76-1.76L59.4,21.78ZM61.16,20,48.83,7.69l1.76-1.76L62.93,18.26Z"/></svg>