<svg id="Layer_1" data-name="Layer 1" xmlns="http://www.w3.org/2000/svg" viewBox="0 0 59.88 59.95"><defs><style>.cls-1{fill:#c2c2c2;}</style></defs><title>Artboard 22 copy</title><path class="cls-1" d="M59.86,24.08a1.13,1.13,0,0,0-.69-.82,26.37,26.37,0,0,0-9.81-1.87,28.37,28.37,0,0,0-11,2.2L21.58,9.27A12.64,12.64,0,0,0,19.26.42,1.14,1.14,0,0,0,18.44,0a1.17,1.17,0,0,0-.86.33L.33,17.58a1.13,1.13,0,0,0,.1,1.69A12.18,12.18,0,0,0,8,21.63c.47,0,.86,0,1.17,0L23.55,38.5c-1,2.52-4,11.61-.35,20.74a1.13,1.13,0,0,0,.82.69l.23,0a1.13,1.13,0,0,0,.8-.33L41.53,43.14,56.87,58.48a1.13,1.13,0,1,0,1.6-1.6L43.12,41.54,59.55,25.11A1.13,1.13,0,0,0,59.86,24.08Z"/></svg>