<svg id="Layer_1" data-name="Layer 1" xmlns="http://www.w3.org/2000/svg" viewBox="0 0 59.78 65.53"><defs><style>.cls-1{fill:#c2c2c2;}</style></defs><title>Artboard 30 copy</title><path class="cls-1" d="M32.77,30.94V2.4A2.36,2.36,0,0,0,31.22.12,2.31,2.31,0,0,0,28.17,2.3V31a2.31,2.31,0,0,0,3.05,2.18A2.36,2.36,0,0,0,32.77,30.94Z"/><path class="cls-1" d="M59.69,33.37c0-.1,0-.21,0-.32A29.9,29.9,0,0,0,40.81,7.81l-.32-.12q-1-.38-2-.69l-.15-.05h0A29.9,29.9,0,0,0,33.92,6v4.64a25.29,25.29,0,1,1-8,0V6a30.07,30.07,0,0,0-4.3.9h0L21.37,7q-1,.31-2,.69L19,7.8a29.71,29.71,0,0,0-4.15,2l0,0A29.89,29.89,0,0,0,.12,33.05c0,.1,0,.21,0,.32C0,34.12,0,34.87,0,35.64a29.89,29.89,0,0,0,59.78,0C59.78,34.88,59.74,34.12,59.69,33.37Z"/></svg>