<svg id="Layer_1" data-name="Layer 1" xmlns="http://www.w3.org/2000/svg" viewBox="0 0 300 300"><defs><style>.cls-1{fill:#fff;}</style></defs><title>MaidSafe_mark_</title><path class="cls-1" d="M252.31,167.23a17.23,17.23,0,1,0-9.78-31.4l-24.21-14c0-.46.07-.91.07-1.38s0-.92-.07-1.38l24.21-14a17.23,17.23,0,1,0,0-28.35l-24.21-14c0-.46.07-.91.07-1.38a17.25,17.25,0,1,0-7.44,14.17l24.21,14c0,.46-.07.91-.07,1.38s0,.92.07,1.38l-24.21,14a17.18,17.18,0,0,0-19.57,0l-24.22-14c0-.46.07-.91.07-1.38a17.21,17.21,0,0,0-9.84-15.55v-28a17.23,17.23,0,1,0-14.77,0v28a17.22,17.22,0,1,0,17.17,29.72l24.21,14c0,.46-.07.92-.07,1.38s0,.92.07,1.38l-24.21,14a17.2,17.2,0,0,0-19.57,0l-24.22-14c0-.46.07-.91.07-1.38a17.22,17.22,0,0,0-9.84-15.55v-28a17.23,17.23,0,1,0-14.77,0v28a17.15,17.15,0,0,0-2.4,1.38l-24.22-14c0-.46.07-.91.07-1.38a17.23,17.23,0,1,0-24.61,15.55v28a17.23,17.23,0,1,0,14.77,0v-28a17.1,17.1,0,0,0,2.4-1.37l24.22,14c0,.46-.07.92-.07,1.38A17.21,17.21,0,0,0,91.46,136v28a17.21,17.21,0,0,0-9.85,15.55c0,.47,0,.92.07,1.38l-24.21,14a17.23,17.23,0,1,0,7.44,14.17c0-.47,0-.92-.07-1.38l24.22-14A17.22,17.22,0,1,0,106.23,164V136a17.32,17.32,0,0,0,2.4-1.37l24.21,14c0,.46-.07.91-.07,1.38a17.21,17.21,0,0,0,9.85,15.55v28a17.21,17.21,0,0,0-9.85,15.55c0,.47,0,.92.07,1.38l-24.21,14a17.22,17.22,0,1,0,7.44,14.17c0-.47,0-.92-.07-1.38l24.22-14a17.49,17.49,0,0,0,2.4,1.38v28a17.22,17.22,0,1,0,24.61,15.55c0-.47,0-.92-.07-1.38l24.22-14a17.23,17.23,0,1,0-7.44-14.17c0,.47,0,.92.07,1.38l-24.21,14a16.83,16.83,0,0,0-2.4-1.38v-28a17.22,17.22,0,0,0,9.84-15.55c0-.47,0-.92-.07-1.38l24.22-14a17.2,17.2,0,0,0,19.57,0l24.21,14c0,.46-.07.91-.07,1.38a17.24,17.24,0,1,0,7.44-14.17l-24.21-14c0-.46.07-.91.07-1.38a17.23,17.23,0,0,0-34.45,0c0,.47,0,.92.07,1.38l-24.21,14a17.13,17.13,0,0,0-2.4-1.37v-28A17.21,17.21,0,0,0,167.23,150c0-.47,0-.92-.07-1.38l24.22-14a17.2,17.2,0,0,0,19.57,0l24.21,14c0,.46-.07.91-.07,1.38a17.23,17.23,0,0,0,17.23,17.23"/></svg>