<svg id="Layer_1" data-name="Layer 1" xmlns="http://www.w3.org/2000/svg" viewBox="0 0 62 67.75"><defs><style>.cls-1{fill:#c2c2c2;}</style></defs><title>Artboard 20 copy</title><path class="cls-1" d="M33.4,34.48,18.8,23.92a1.13,1.13,0,0,0-1.58,1.58l10.56,14.6A4,4,0,0,0,31,41.75a4,4,0,0,0,2.36-7.27Z"/><path class="cls-1" d="M60.32,29.43h0a30.32,30.32,0,0,0-3-7.26s0,0,0-.07l0-.06a30.56,30.56,0,0,0-4-5.42l2.41-2.42,1.59,1.59L62,11,57.24,6.21,52.47,11l1.59,1.59L51.64,15a30.52,30.52,0,0,0-5.4-4l-.06,0-.07,0a30.07,30.07,0,0,0-7.23-3h0A30,30,0,0,0,34.39,7V5.64h1.55a2.91,2.91,0,0,0,2.87-2.11A2.83,2.83,0,0,0,36.08,0h-10A2.91,2.91,0,0,0,23.2,2.11a2.83,2.83,0,0,0,2.73,3.52h1.69V7.07a29.59,29.59,0,0,0-4.4.83h-.09a30.13,30.13,0,0,0-7.24,3l-.07,0-.06,0a30.52,30.52,0,0,0-5.41,4L8,12.59,9.54,11,4.77,6.21,0,11l4.77,4.78,1.59-1.59L8.77,16.6a30.55,30.55,0,0,0-4,5.42l0,.06s0,0,0,.07a30.27,30.27,0,0,0-3,7.26h0a30.48,30.48,0,0,0,0,15.74h0v0a30.29,30.29,0,0,0,3,7.26s0,0,0,.07l.07.09a30.66,30.66,0,0,0,4.71,6.15s0,0,0,.07l.07,0a30.54,30.54,0,0,0,6.16,4.74l.06,0,.11,0a30.11,30.11,0,0,0,7.2,3h0a30.2,30.2,0,0,0,15.68,0h0a30.13,30.13,0,0,0,7.2-3l.11,0,.06,0a30.57,30.57,0,0,0,6.16-4.74l.07,0s0,0,0-.07a30.66,30.66,0,0,0,4.71-6.15l.07-.09s0,0,0-.07a30.29,30.29,0,0,0,3-7.26v0h0a30.47,30.47,0,0,0,0-15.74ZM55.76,45l2.16.58a28,28,0,0,1-2,4.72L54,49.2a1.13,1.13,0,0,0-1.13,2l1.92,1.11a28.29,28.29,0,0,1-3.11,4.06l-1.57-1.57a1.13,1.13,0,0,0-1.59,1.59l1.57,1.57A28.29,28.29,0,0,1,46.06,61l-1.11-1.92a1.13,1.13,0,0,0-2,1.13l1.11,1.92a28,28,0,0,1-4.72,2L38.8,62a1.13,1.13,0,1,0-2.18.58l.58,2.15a28.13,28.13,0,0,1-5.07.67V63.15a1.13,1.13,0,1,0-2.26,0v2.23a28.13,28.13,0,0,1-5.07-.67l.58-2.15A1.13,1.13,0,0,0,23.2,62l-.58,2.16a28,28,0,0,1-4.72-2L19,60.24a1.13,1.13,0,1,0-2-1.13L15.95,61a28.29,28.29,0,0,1-4.06-3.11l1.57-1.57a1.13,1.13,0,1,0-1.59-1.59L10.3,56.32a28.29,28.29,0,0,1-3.11-4.06l1.92-1.11A1.13,1.13,0,0,0,8,49.2L6.05,50.31a28,28,0,0,1-2-4.72L6.24,45a1.13,1.13,0,0,0-.58-2.18l-2.15.58a28.13,28.13,0,0,1-.67-5.07H5.07a1.13,1.13,0,1,0,0-2.26H2.84A28.13,28.13,0,0,1,3.51,31l2.15.58a1.14,1.14,0,0,0,.29,0,1.13,1.13,0,0,0,.29-2.22l-2.16-.58a28,28,0,0,1,2-4.72L8,25.22a1.13,1.13,0,1,0,1.13-2L7.18,22.16A28.29,28.29,0,0,1,10.3,18.1l1.57,1.57a1.13,1.13,0,0,0,1.59-1.59l-1.57-1.57a28.38,28.38,0,0,1,4.06-3.11l1.11,1.92a1.13,1.13,0,1,0,2-1.13L17.9,12.26a28,28,0,0,1,4.72-2l.58,2.16a1.13,1.13,0,0,0,1.09.84,1.14,1.14,0,0,0,.29,0,1.13,1.13,0,0,0,.8-1.38L24.8,9.72A28.13,28.13,0,0,1,29.88,9v2.23a1.13,1.13,0,1,0,2.26,0V9a28.16,28.16,0,0,1,5.07.67l-.58,2.15a1.13,1.13,0,0,0,.8,1.38,1.14,1.14,0,0,0,.29,0,1.13,1.13,0,0,0,1.09-.84l.58-2.16a28,28,0,0,1,4.72,2L43,14.19a1.13,1.13,0,1,0,2,1.13l1.11-1.92a28.38,28.38,0,0,1,4.06,3.11l-1.57,1.57a1.13,1.13,0,1,0,1.59,1.59L51.7,18.1a28.29,28.29,0,0,1,3.11,4.06L52.9,23.27a1.13,1.13,0,1,0,1.13,2L56,24.11a28,28,0,0,1,2,4.72l-2.16.58a1.13,1.13,0,0,0,.29,2.22,1.14,1.14,0,0,0,.29,0L58.5,31a28.13,28.13,0,0,1,.67,5.07H56.94a1.13,1.13,0,0,0,0,2.26h2.23a28.16,28.16,0,0,1-.67,5.07l-2.15-.58A1.13,1.13,0,1,0,55.76,45Z"/></svg>