<svg id="Layer_1" data-name="Layer 1" xmlns="http://www.w3.org/2000/svg" viewBox="0 0 86 86"><defs><style>.cls-1{fill:#c2c2c2;}</style></defs><title>Artboard 26 copy</title><path class="cls-1" d="M84,41H73.93A31,31,0,0,0,45,12.07V2a2,2,0,0,0-4,0V12.07A31,31,0,0,0,12.07,41H2a2,2,0,0,0,0,4H12.07A31,31,0,0,0,41,73.93V84a2,2,0,0,0,4,0V73.93A31,31,0,0,0,73.93,45H84a2,2,0,0,0,0-4ZM45,69.92V61a2,2,0,0,0-4,0v8.92A27,27,0,0,1,16.08,45H25a2,2,0,0,0,0-4H16.08A27,27,0,0,1,41,16.08V25a2,2,0,0,0,4,0V16.08A27,27,0,0,1,69.92,41H61a2,2,0,0,0,0,4h8.92A27,27,0,0,1,45,69.92Z"/></svg>