<svg id="Layer_1" data-name="Layer 1" xmlns="http://www.w3.org/2000/svg" viewBox="0 0 48.83 66"><defs><style>.cls-1{fill:#c2c2c2;}</style></defs><title>Artboard 27 copy</title><path class="cls-1" d="M13.3,15.56a2.21,2.21,0,0,0,1.57-.65L22.2,7.58V43.19a2.28,2.28,0,0,0,1.49,2.2,2.23,2.23,0,0,0,2.94-2.1V7.58l7.22,7.22a2.27,2.27,0,0,0,2.61.5,2.23,2.23,0,0,0,.59-3.57L26,.65a2.17,2.17,0,0,0-.34-.28L25.48.28,25.26.17,25,.1,24.85,0A2.2,2.2,0,0,0,24,0L23.79.1l-.22.07-.22.11-.16.09a2.28,2.28,0,0,0-.34.28l-11,11a2.29,2.29,0,0,0-.4,2.81A2.23,2.23,0,0,0,13.3,15.56Z"/><path class="cls-1" d="M28.86,18.28V43.64a4.55,4.55,0,0,1-3.52,4.51A4.44,4.44,0,0,1,20,43.8V18.28H0V66H48.83V18.28Z"/></svg>